<?xml version="1.0" encoding="utf-8"?>
<!-- Generator: Adobe Illustrator 22.1.0, SVG Export Plug-In . SVG Version: 6.00 Build 0)  -->
<svg version="1.1" xmlns="http://www.w3.org/2000/svg" xmlns:xlink="http://www.w3.org/1999/xlink" x="0px" y="0px"
	 viewBox="0 0 348.7 353.1" style="enable-background:new 0 0 348.7 353.1;" xml:space="preserve">
<style type="text/css">
	.st0{clip-path:url(#SVGID_2_);fill:#5CB2E1;}
	.st1{clip-path:url(#SVGID_2_);}
	.st2{fill:#FFEAD4;}
	.st3{fill:#FFD9B6;}
	.st4{clip-path:url(#SVGID_4_);}
	.st5{fill:#EAD9CA;}
	.st6{fill:#D6C5B9;}
	.st7{fill:#44260F;}
	.st8{fill:#4261BE;}
	.st9{fill:#365CBA;}
	.st10{fill:#F45D44;}
	.st11{fill:#E0532C;}
	.st12{fill:#F6CE43;}
	.st13{fill:#C18F46;}
	.st14{fill:#9B6A2A;}
	.st15{fill:#EDAE5A;}
	.st16{fill:#B57E37;}
	.st17{fill:#F2BF1D;}
	.st18{fill:#3A4892;}
	.st19{fill:#F4B400;}
	.st20{fill:#FFDF78;}
	.st21{fill:#29379B;}
	.st22{fill:#212883;}
	.st23{fill:#E7BD00;}
	.st24{fill:#FFFFFF;stroke:#FFFFFF;stroke-width:0.25;stroke-miterlimit:10;}
	.st25{fill:#DBB100;}
	.st26{fill:#FFE07D;}
	.st27{fill:#F2F2F2;stroke:#F2F2F2;stroke-width:0.25;stroke-miterlimit:10;}
	.st28{fill:#F4C916;}
	.st29{fill:#FDE682;}
	.st30{fill:#F4BF19;}
	.st31{fill:#F9DA55;}
	.st32{fill:#E2A803;}
	.st33{fill:#F4CD2A;}
	.st34{fill:#FCE49A;}
</style>
<g id="Capa_17">
</g>
<g id="Tableta">
	<g>
		<defs>
			<circle id="SVGID_1_" cx="174.3" cy="174.3" r="174.3"/>
		</defs>
		<clipPath id="SVGID_2_">
			<use xlink:href="#SVGID_1_"  style="overflow:visible;"/>
		</clipPath>
		<circle class="st0" cx="174.3" cy="174.3" r="174.3"/>
		<g class="st1">
			<path class="st2" d="M317.4,348.7h-52.1c-1.6,0-3-1.3-3-3v-9.4c0-13,10.5-23.5,23.5-23.5h9.4c13.9,0,25.1,11.3,25.1,25.1v7.8
				C320.4,347.4,319.1,348.7,317.4,348.7z"/>
			<path class="st3" d="M279.6,348.7c-0.3-1.8-0.5-3.5-0.6-5.3c-0.1-1.8-0.2-3.5-0.2-5.3c0-1.8,0-3.5,0.2-5.3
				c0.1-1.8,0.3-3.5,0.6-5.3c0.3,1.8,0.5,3.5,0.6,5.3c0.1,1.8,0.2,3.5,0.2,5.3c0,1.8,0,3.5-0.2,5.3
				C280.1,345.2,280,346.9,279.6,348.7z"/>
			<path class="st3" d="M292.8,348.7c-0.3-1.8-0.5-3.5-0.6-5.3c-0.1-1.8-0.2-3.5-0.2-5.3c0-1.8,0-3.5,0.2-5.3
				c0.1-1.8,0.3-3.5,0.6-5.3c0.3,1.8,0.5,3.5,0.6,5.3c0.1,1.8,0.2,3.5,0.2,5.3c0,1.8,0,3.5-0.2,5.3
				C293.2,345.2,293.1,346.9,292.8,348.7z"/>
			<path class="st3" d="M305.9,348.7c-0.3-1.8-0.5-3.5-0.6-5.3c-0.1-1.8-0.2-3.5-0.2-5.3c0-1.8,0-3.5,0.2-5.3
				c0.1-1.8,0.3-3.5,0.6-5.3c0.3,1.8,0.5,3.5,0.6,5.3c0.1,1.8,0.2,3.5,0.2,5.3c0,1.8,0,3.5-0.2,5.3
				C306.4,345.2,306.2,346.9,305.9,348.7z"/>
		</g>
		<g class="st1">
			<defs>
				
					<rect id="SVGID_3_" x="-35.6" y="13.7" transform="matrix(-1 -4.489621e-11 4.489621e-11 -1 335.7751 362.3875)" width="407" height="335"/>
			</defs>
			<clipPath id="SVGID_4_">
				<use xlink:href="#SVGID_3_"  style="overflow:visible;"/>
			</clipPath>
			<g class="st4">
				
					<rect x="149" y="267.2" transform="matrix(-1 -4.490109e-11 4.490109e-11 -1 363.0744 582.3876)" class="st2" width="65" height="48"/>
				<path class="st3" d="M149,278.9v7.5c2.1,0.2,4.2,0.3,6.3,0.3h51.5c2.5,0,4.9-0.1,7.3-0.4v-7.5c-2.5,0.3-5,0.4-7.6,0.4h-51.5
					C153,279.2,151,279.1,149,278.9z"/>
				<path class="st2" d="M92.8,228.2h8.1v-54H82.8c-6.6,0-11.9,5.3-11.9,11.9v20.2C70.9,218.4,80.7,228.2,92.8,228.2z"/>
				<path class="st2" d="M270,228.2h-8.1v-54H280c6.6,0,11.9,5.3,11.9,11.9v20.2C291.9,218.4,282.1,228.2,270,228.2z"/>
				<path class="st2" d="M155.8,279.2h51.5c38.5,0,69.8-31.2,69.8-69.8v-79.2H86v79.2C86,248,117.3,279.2,155.8,279.2z"/>
				<path class="st3" d="M82.4,174.2v35.7c0,5.7,0.7,11.3,2,16.6c1.3,0.6,2.7,1,4.1,1.2c-1.6-5.8-2.4-12-2.4-18.3v-35.2h-3.3
					C82.6,174.2,82.5,174.2,82.4,174.2z"/>
				<path class="st3" d="M274.6,227.7c1.7-0.4,3.4-0.9,4.9-1.7c1.2-5.2,1.9-10.5,1.9-16.1v-35.7c-0.5,0-0.9-0.1-1.4-0.1h-3v35.2
					C277,215.8,276.2,221.9,274.6,227.7z"/>
				<path class="st3" d="M86,148v5.6c23.6,14.2,57.7,23.1,95.5,23.1c37.8,0,71.9-8.9,95.5-23.1v-6c-23.6,14.2-57.7,23.1-95.5,23.1
					c-37.7,0-71.6-8.8-95.2-23C86.2,147.9,86.1,147.9,86,148z"/>
				<g>
					<path d="M161.9,258.3c-2.3,0.6-4.7,0.7-7.1,0.5c-2.4-0.2-4.8-0.9-7-2l-0.8-0.4c-0.3-0.2-0.5-0.3-0.8-0.5
						c-0.5-0.3-1.1-0.6-1.6-1c-0.5-0.4-1-0.8-1.4-1.2c-0.5-0.4-0.8-1-1.2-1.5c-0.8-1-1.2-2.2-1.7-3.3c-0.4-1.2-0.6-2.4-0.7-3.6
						l0.3-0.1c0.9,0.9,1.5,1.8,2.2,2.7c0.8,0.8,1.4,1.7,2.2,2.5c1.4,1.6,2.8,3.2,4.6,4.4c1.8,1.2,3.9,2.1,6,2.6
						c2.2,0.6,4.5,0.8,6.8,0.7L161.9,258.3z"/>
				</g>
				<path class="st5" d="M86,188.9v20.6c0,38.5,31.2,69.8,69.8,69.8h51.5c38.5,0,69.8-31.2,69.8-69.8v-13.2
					c-6.6,1.5-12.8,4.1-18.4,7.9c-7.1,4.9-11.3,11.8-17.4,17.7c-6,5.9-14.4,7.8-22.6,8.6c-8.8,0.9-17.7,1-26.5,1.5
					c-18.2,0.9-37,2-54.7-3.3c-7.5-2.2-14.7-5.6-20.9-10.3c-6.8-5.1-10.9-11.5-15.4-18.4C97.4,194.3,92,190.3,86,188.9z
					 M136.4,254.4c-3.1-5.3-3.1-14.3,5.1-13.5c3.3,0.3,5.2,4.4,7.7,6.2c1.5,1.1,3.1,1.8,4.9,2.3c2.7,0.8,5.5,0.9,8.2,1.8
					c5.5,1.9,7.5,7.4,2.6,11.3c-5.1,4.2-16.5,2.4-21.7-0.8C140.3,260,138.1,257.3,136.4,254.4z"/>
				<path class="st6" d="M269.6,207c0.1-0.2,0.2-0.3,0.4-0.4c-0.2-1.1-0.3-2.1-0.3-3.2c0-0.6,1-0.6,1,0c0,1.2,0.1,2.5,0.4,3.7
					c0.1,0.4-0.3,0.7-0.7,0.6c-0.2,0.8-0.2,1.6-0.1,2.5c0.1,0.6-0.9,0.6-1,0C269.3,209.1,269.4,208.1,269.6,207z"/>
				<path class="st6" d="M266.1,209.9c0-0.6,1-0.6,1,0c-0.1,1.4,0,2.7,0.3,4.1c0.1,0.6-0.8,0.9-1,0.3
					C266.2,212.9,266.1,211.4,266.1,209.9z"/>
				<path class="st6" d="M268.4,217.9c0.1-0.6,1.1-0.6,1,0c-0.1,1.3-0.1,2.6,0.1,3.9c0.1,0.6-0.9,0.9-1,0.3
					C268.4,220.7,268.3,219.3,268.4,217.9z"/>
				<path class="st6" d="M271.7,215.5c0.3,0.8,0.3,1.7,0.2,2.5c-0.1,0.6-1.1,0.4-1-0.3c0.1-0.7,0-1.3-0.2-2
					C270.5,215.2,271.5,214.9,271.7,215.5z"/>
				<path class="st6" d="M262.2,218.2c0-0.6,1-0.6,1,0c-0.1,1.4-0.2,2.8-0.3,4.2c0,0.6-1,0.6-1,0C262,221,262.1,219.6,262.2,218.2z"
					/>
				<path class="st6" d="M260.4,213.1c0.1-0.6,1.1-0.4,1,0.3c-0.2,1.1-0.3,2.2-0.2,3.4c0,0.6-1,0.6-1,0
					C260.1,215.5,260.1,214.3,260.4,213.1z"/>
				<path class="st6" d="M262.7,207.7c0.1-0.6,1.1-0.6,1,0c-0.1,1.1-0.1,2.1,0.1,3.1c0.1,0.6-0.9,0.9-1,0.3
					C262.6,210,262.5,208.8,262.7,207.7z"/>
				<path class="st6" d="M273.5,203.1c0.1-0.6,1.1-0.4,1,0.3c-0.3,1.7-0.3,3.4-0.2,5.1c0.1,0.6-0.9,0.6-1,0
					C273.1,206.6,273.2,204.9,273.5,203.1z"/>
				<path class="st6" d="M267.4,227.3c-0.1-0.6,0.9-0.9,1-0.3c0.3,1.6,0.4,3.2,0.3,4.9c0,0.6-1,0.6-1,0
					C267.7,230.4,267.7,228.9,267.4,227.3z"/>
				<path class="st6" d="M263.1,228.4c0-0.6,1-0.6,1,0c0.1,1.8,0.1,3.7-0.2,5.5c-0.1,0.6-1.1,0.6-1,0
					C263.2,232.1,263.2,230.3,263.1,228.4z"/>
				<path class="st6" d="M259.4,227.4v3c0,0.6-1,0.6-1,0v-3C258.4,226.8,259.4,226.8,259.4,227.4z"/>
				<path class="st6" d="M251.7,223.4c0-0.6,1-0.6,1,0c-0.1,1-0.1,2,0.1,3c0.1,0.6-0.9,0.6-1,0C251.6,225.5,251.6,224.5,251.7,223.4
					z"/>
				<path class="st6" d="M257.9,220.9v3.2c0,0.6-1,0.6-1,0v-3.2C256.9,220.3,257.9,220.3,257.9,220.9z"/>
				<path class="st6" d="M254.4,216.7c0-0.6,1-0.6,1,0c-0.1,1.2-0.2,2.3-0.2,3.5c0,0.6-1,0.6-1,0C254.2,219,254.3,217.9,254.4,216.7
					z"/>
				<path class="st6" d="M248.1,232.2c0-0.6,1-0.6,1,0c-0.1,1.5,0.1,2.9,0.4,4.4c0.1,0.6-0.8,0.9-1,0.3
					C248.2,235.3,248.1,233.8,248.1,232.2z"/>
				<path class="st6" d="M255.4,234.7c0.1,0.8,0.1,1.6,0.2,2.3c0,0.4-0.1,2.1,0.4,2.4c0.5,0.3,0,1.2-0.5,0.9
					c-0.7-0.4-0.7-1.1-0.7-1.9c-0.1-1.2-0.2-2.5-0.3-3.7C254.3,234,255.3,234,255.4,234.7z"/>
				<path class="st6" d="M259.9,238.3c0.1-0.6,1.1-0.4,1,0.3c-0.2,1.4,0,2.8,0.6,4.2c0.3,0.6-0.6,1.1-0.9,0.5
					C259.9,241.7,259.7,240,259.9,238.3z"/>
				<path class="st6" d="M265.2,238.2c0.1,1,0.3,2,0.4,3c0.1,0.6-0.9,0.6-1,0c-0.1-1-0.3-2-0.4-3
					C264.1,237.6,265.1,237.6,265.2,238.2z"/>
				<path class="st6" d="M257.9,247.9v3.5c0,0.6-1,0.6-1,0v-3.5C256.9,247.3,257.9,247.3,257.9,247.9z"/>
				<path class="st6" d="M253.6,245.9v2.8c0,0.6-1,0.6-1,0v-2.8C252.6,245.3,253.6,245.3,253.6,245.9z"/>
				<path class="st6" d="M248.1,242.6c0.2-0.6,1.1-0.4,1,0.3c-0.3,1.2-0.3,2.3-0.1,3.5c0.1,0.6-0.9,0.9-1,0.3
					C247.8,245.2,247.8,243.9,248.1,242.6z"/>
				<path class="st6" d="M243.6,235.7c0.3,2.2,0.6,4.3,0.8,6.5c0.1,0.6-0.9,0.6-1,0c-0.3-2.2-0.6-4.3-0.8-6.5
					C242.5,235,243.5,235,243.6,235.7z"/>
				<path class="st6" d="M242.8,226.2c0.1-0.6,1.1-0.6,1,0l-0.5,4c-0.1,0.6-1.1,0.6-1,0L242.8,226.2z"/>
				<path class="st6" d="M248.3,217.7c0.2,2,0.4,4,0.6,6c0.1,0.6-0.9,0.6-1,0c-0.2-2-0.4-4-0.6-6
					C247.2,217.1,248.2,217.1,248.3,217.7z"/>
				<path class="st6" d="M236.9,231.2v7c0,0.6-1,0.6-1,0v-7C235.9,230.6,236.9,230.5,236.9,231.2z"/>
				<path class="st6" d="M230.4,232.2c0.1-0.6,1.1-0.6,1,0c-0.2,2.5-0.2,4.9,0.2,7.4c0.1,0.6-0.9,0.9-1,0.3
					C230.3,237.3,230.2,234.8,230.4,232.2z"/>
				<path class="st6" d="M236.6,242.7c0.1,2.6,0.6,5.1,1.3,7.5c0.2,0.6-0.8,0.9-1,0.3c-0.8-2.5-1.2-5.1-1.4-7.8
					C235.6,242,236.6,242,236.6,242.7z"/>
				<path class="st6" d="M242.5,245.7c0.3,2.2,0.5,4.4,0.8,6.5c0.1,0.6-0.9,0.6-1,0c-0.3-2.2-0.5-4.4-0.8-6.5
					C241.4,245,242.4,245,242.5,245.7z"/>
				<path class="st6" d="M247.1,250.1c0.2-0.6,1.2-0.3,1,0.3c-0.6,1.8-0.3,3.7,1,5.2c0.4,0.5-0.3,1.2-0.7,0.7
					C246.8,254.6,246.3,252.3,247.1,250.1z"/>
				<path class="st6" d="M254,253.2c0.1-0.6,1.1-0.6,1,0c-0.2,1.8-0.4,3.7-0.6,5.5c-0.1,0.6-1.1,0.6-1,0
					C253.6,256.9,253.8,255,254,253.2z"/>
				<path class="st6" d="M246.4,261.2v5.5c0,0.6-1,0.6-1,0v-5.5C245.4,260.6,246.4,260.5,246.4,261.2z"/>
				<path class="st6" d="M242.8,258.2c0.1,2,0.2,4,0.3,6c0,0.6-1,0.6-1,0c-0.1-2-0.2-4-0.3-6C241.8,257.6,242.8,257.6,242.8,258.2z"
					/>
				<path class="st6" d="M237.8,256.2c0.1,2,0.3,4,0.4,6c0,0.6-1,0.6-1,0c-0.1-2-0.3-4-0.4-6C236.8,255.6,237.8,255.6,237.8,256.2z"
					/>
				<path class="st6" d="M231.4,252.7v5c0,0.6-1,0.6-1,0v-5C230.4,252.1,231.4,252,231.4,252.7z"/>
				<path class="st6" d="M233,249c0.4,1.9,0.8,3.7,1.3,5.6c0.1,0.6-0.8,0.9-1,0.3c-0.4-1.9-0.8-3.7-1.3-5.6
					C231.8,248.7,232.8,248.4,233,249z"/>
				<path class="st6" d="M226.6,251c1.3-1.8,1.7-4,1.3-6.2c-0.1-0.6,0.8-0.9,1-0.3c0.5,2.5,0,4.9-1.4,6.9
					C227.1,252.1,226.2,251.6,226.6,251z"/>
				<path class="st6" d="M224.9,241.2v7c0,0.6-1,0.6-1,0v-7C223.9,240.6,224.9,240.5,224.9,241.2z"/>
				<path class="st6" d="M220.5,236.1c0.1-0.6,1.1-0.4,1,0.3c-0.3,1.8-0.6,3.7-1,5.5c-0.1,0.6-1.1,0.4-1-0.3L220.5,236.1z"/>
				<path class="st6" d="M211.8,236c0.2-0.6,1.2-0.3,1,0.3c-0.8,2.1-1.1,4.2-0.9,6.4c0.1,0.6-0.9,0.6-1,0
					C210.7,240.4,211,238.2,211.8,236z"/>
				<path class="st6" d="M216.6,246.2l0.5,5.5c0.1,0.6-0.9,0.6-1,0l-0.5-5.5C215.5,245.5,216.5,245.5,216.6,246.2z"/>
				<path class="st6" d="M219.4,251.6c0.3-1.3,0.6-2.7,0.9-4c0.1-0.6,1.1-0.4,1,0.3c-0.3,1.3-0.6,2.7-0.9,4
					C220.2,252.5,219.3,252.2,219.4,251.6z"/>
				<path class="st6" d="M216.4,237.9c0.4-0.5,1.2,0,0.9,0.5c-1,1.4-1.2,3-0.8,4.7c0.2,0.6-0.8,0.9-1,0.3
					C214.9,241.4,215.2,239.5,216.4,237.9z"/>
				<path class="st6" d="M213.1,251.2c0,2.5,0.3,5,1.1,7.4c0.2,0.6-0.8,0.9-1,0.3c-0.8-2.5-1.2-5-1.2-7.7
					C212.1,250.5,213.1,250.5,213.1,251.2z"/>
				<path class="st6" d="M219.5,258.1c0.1-0.6,1.1-0.4,1,0.3c-0.2,1.4-0.1,2.9,0.3,4.3c0.2,0.6-0.8,0.9-1,0.3
					C219.3,261.3,219.2,259.7,219.5,258.1z"/>
				<path class="st6" d="M225.5,256.2c0.2,2.2,0.4,4.4,0.6,6.5c0.1,0.6-0.9,0.6-1,0c-0.2-2.2-0.4-4.4-0.6-6.5
					C224.5,255.5,225.5,255.5,225.5,256.2z"/>
				<path class="st6" d="M230.3,261.6c0.3,2,0.5,4,0.8,6c0.1,0.6-0.9,0.9-1,0.3l-0.8-6C229.3,261.2,230.2,260.9,230.3,261.6z"/>
				<path class="st6" d="M236.4,265.1c0.3,1,0.6,2,0.8,3c0.2,0.6-0.8,0.9-1,0.3c-0.3-1-0.6-2-0.8-3
					C235.2,264.7,236.2,264.4,236.4,265.1z"/>
				<path class="st6" d="M230.6,272.5c0.3-0.1,0.1-1,0.2-1.2c0-0.4,0.2-0.9,0.7-1c0.7-0.3,1.6,0.5,1.2,1.2c-0.2,0.3-0.6,0.3-0.8,0
					c0,0.1,0,0.1,0,0.2c0,0.2,0,0.5,0,0.7c-0.1,0.5-0.4,0.9-0.9,1C230.2,273.6,229.9,272.7,230.6,272.5z"/>
				<path class="st6" d="M225.3,267c0.2-0.6,1.1-0.4,1,0.3c-0.4,1.8-0.5,3.6-0.3,5.4c0.1,0.6-0.9,0.6-1,0
					C224.7,270.8,224.8,268.9,225.3,267z"/>
				<path class="st6" d="M218.5,266.5c1.9,1.7,2.3,4.5,1,6.6c-0.3,0.5-1.2,0-0.9-0.5c1.1-1.8,0.8-4-0.8-5.4
					C217.3,266.8,218,266.1,218.5,266.5z"/>
				<path class="st6" d="M212.6,265.2c0-0.6,1-0.6,1,0c-0.1,1.3-0.2,2.7-0.3,4c0,0.6-1,0.6-1,0C212.4,267.9,212.5,266.5,212.6,265.2
					z"/>
				<path class="st6" d="M208.3,261c0.2-0.6,1.2-0.3,1,0.3c-0.5,1.2-0.6,2.5-0.4,3.8c0.1,0.6-0.9,0.9-1,0.3
					C207.7,263.9,207.8,262.4,208.3,261z"/>
				<path class="st6" d="M204.8,256.5c0.2-0.6,1.1-0.4,1,0.3c-0.4,1.6-0.6,3.2-0.3,4.8c0.1,0.6-0.9,0.9-1,0.3
					C204.2,260,204.3,258.3,204.8,256.5z"/>
				<path class="st6" d="M206.1,248.3c0.8,1.3,1.2,2.8,1.1,4.4c0,0.6-1,0.6-1,0c0.1-1.4-0.2-2.7-1-3.9
					C204.8,248.2,205.7,247.7,206.1,248.3z"/>
				<path class="st6" d="M207.2,241.7c0.1-0.6,1.1-0.6,1,0l-0.5,5c-0.1,0.6-1.1,0.6-1,0L207.2,241.7z"/>
				<path class="st6" d="M201.2,237.2c0-0.6,1-0.6,1,0c-0.2,2.3-0.3,4.7-0.5,7c0,0.6-1,0.6-1,0C200.9,241.9,201,239.5,201.2,237.2z"
					/>
				<path class="st6" d="M199.3,249.2c0.2,1.8,0.4,3.7,0.6,5.5c0.1,0.6-0.9,0.6-1,0c-0.2-1.8-0.4-3.7-0.6-5.5
					C198.2,248.6,199.2,248.6,199.3,249.2z"/>
				<path class="st6" d="M195.4,242.6c0.2-0.6,1.2-0.3,1,0.3c-0.5,1.4-0.6,2.9-0.4,4.4c0.1,0.6-0.9,0.6-1,0
					C194.7,245.6,194.9,244.1,195.4,242.6z"/>
				<path class="st6" d="M188.7,244.5c0.2-0.6,1.2-0.3,1,0.3c-0.5,1.6-0.5,3.2-0.1,4.9c0.2,0.6-0.8,0.9-1,0.3
					C188.2,248.1,188.2,246.3,188.7,244.5z"/>
				<path class="st6" d="M225.6,231.2c0.2,1.5,0.4,3,0.6,4.6c0.1,0.6-0.9,0.6-1,0c-0.2-1.5-0.4-3-0.6-4.6
					C224.5,230.5,225.5,230.5,225.6,231.2z"/>
				<path class="st6" d="M254.3,209.1c0.2,1.3,0.4,2.7,0.6,4c0.1,0.6-0.9,0.9-1,0.3c-0.2-1.3-0.4-2.7-0.6-4
					C253.2,208.7,254.2,208.4,254.3,209.1z"/>
				<path class="st6" d="M182.8,240.1c0.5,2,0.7,4,0.6,6.1c0,0.6-1,0.6-1,0c0.1-2-0.1-3.9-0.6-5.8
					C181.7,239.7,182.6,239.5,182.8,240.1z"/>
				<path class="st6" d="M188,253.1c0.1-0.6,1.1-0.4,1,0.3c-0.2,1.6-0.1,3.2,0.3,4.8c0.2,0.6-0.8,0.9-1,0.3
					C187.8,256.6,187.7,254.9,188,253.1z"/>
				<path class="st6" d="M194.7,253.9c0.7,2.2,1,4.4,0.9,6.7c0,0.6-1,0.6-1,0c0.1-2.2-0.2-4.4-0.9-6.5
					C193.6,253.6,194.5,253.3,194.7,253.9z"/>
				<path class="st6" d="M201.4,260.7v6c0,0.6-1,0.6-1,0v-6C200.4,260.1,201.4,260,201.4,260.7z"/>
				<path class="st6" d="M202.8,268c0.8,1.6,0.8,3.4,0.1,5c-0.3,0.6-1.1,0.1-0.9-0.5c0.6-1.3,0.6-2.7-0.1-4
					C201.6,267.9,202.5,267.4,202.8,268z"/>
				<path class="st6" d="M193.8,262.6c0.2,1.5,0.4,3,0.6,4.5c0.1,0.6-0.9,0.9-1,0.3c-0.2-1.5-0.4-3-0.6-4.5
					C192.7,262.2,193.7,261.9,193.8,262.6z"/>
				<path class="st6" d="M197.9,265.7v5c0,0.6-1,0.6-1,0v-5C196.9,265.1,197.9,265,197.9,265.7z"/>
				<path class="st6" d="M206.5,270.5c0.3,1.3,0.5,2.7,0.8,4c0.1,0.6-0.8,0.9-1,0.3c-0.3-1.3-0.5-2.7-0.8-4
					C205.4,270.2,206.4,269.9,206.5,270.5z"/>
				<path class="st6" d="M214.3,273.5c0.8,1.2,0.9,2.8,0.2,4.1c-0.3,0.6-1.2,0.1-0.9-0.5c0.6-1,0.5-2.1-0.2-3
					C213.1,273.4,213.9,272.9,214.3,273.5z"/>
				<path class="st6" d="M194.3,276.8c0.7-0.2,1-1.1,0.6-1.6c-0.4-0.5,0.3-1.2,0.7-0.7c0.9,1.1,0.4,2.9-1,3.3
					C193.9,278,193.7,277,194.3,276.8z"/>
				<path class="st6" d="M187,274.4c0.1-0.2,0.3-0.2,0.4-0.2c0-0.5,0-1,0-1.5c0-0.6,1-0.6,1,0c0,0.9,0,1.7,0,2.6
					c0,0.2-0.1,0.3-0.2,0.4C187.4,276.1,186.4,275.2,187,274.4z"/>
				<path class="st6" d="M188.9,263.4c0.8,1.4,1,2.9,0.8,4.5c-0.1,0.6-1.1,0.4-1-0.3c0.2-1.3-0.1-2.6-0.7-3.7
					C187.7,263.3,188.6,262.8,188.9,263.4z"/>
				<path class="st6" d="M182.7,262.2c0.1-0.6,1.1-0.6,1,0c-0.2,1.8-0.3,3.7-0.5,5.5c-0.1,0.6-1.1,0.6-1,0
					C182.3,265.9,182.5,264,182.7,262.2z"/>
				<path class="st6" d="M176.9,256.2v4.5c0,0.6-1,0.6-1,0v-4.5C175.9,255.6,176.9,255.5,176.9,256.2z"/>
				<path class="st6" d="M182.4,253.7v5c0,0.6-1,0.6-1,0v-5C181.4,253.1,182.4,253,182.4,253.7z"/>
				<path class="st6" d="M174.9,251.1c0.4-1.3,0.6-2.5,0.5-3.9c-0.1-0.6,0.9-0.6,1,0c0.1,1.4-0.1,2.8-0.5,4.1
					C175.7,251.9,174.7,251.7,174.9,251.1z"/>
				<path class="st6" d="M172.9,241.7v4c0,0.6-1,0.6-1,0v-4C171.9,241.1,172.9,241,172.9,241.7z"/>
				<path class="st6" d="M165.9,240.2v6.5c0,0.6-1,0.6-1,0v-6.5C164.9,239.6,165.9,239.5,165.9,240.2z"/>
				<path class="st6" d="M169.9,249.1c0.5,1.4,0.7,2.8,0.5,4.3c-0.1,0.6-1,0.4-1-0.3c0.2-1.3,0-2.5-0.5-3.7
					C168.7,248.7,169.6,248.5,169.9,249.1z"/>
				<path class="st6" d="M191.9,235.4c0.3-0.6,1.2-0.1,0.9,0.5c-0.4,0.8-0.6,1.7-0.4,2.6c0.1,0.6-0.8,0.9-1,0.3
					C191.2,237.6,191.3,236.5,191.9,235.4z"/>
				<path class="st6" d="M206,235.6c-0.4-0.5,0.3-1.2,0.7-0.7c0.9,1,1,2.5,0.2,3.6c-0.4,0.5-1.2,0-0.9-0.5
					C206.5,237.3,206.5,236.3,206,235.6z"/>
				<path class="st6" d="M170.9,262.7v3.5c0,0.6-1,0.6-1,0v-3.5C169.9,262.1,170.9,262,170.9,262.7z"/>
				<path class="st6" d="M175.9,266.2v4c0,0.6-1,0.6-1,0v-4C174.9,265.6,175.9,265.5,175.9,266.2z"/>
				<path class="st6" d="M179.3,271c0.2-0.6,1.2-0.3,1,0.3c-0.5,1.2-0.6,2.5-0.4,3.8c0.1,0.6-0.9,0.9-1,0.3
					C178.7,273.9,178.8,272.4,179.3,271z"/>
				<path class="st6" d="M166.5,274.5c0.8-1.1,1.1-2.4,0.8-3.7c-0.2-0.6,0.8-0.9,1-0.3c0.4,1.6,0.1,3.2-0.9,4.4
					C167,275.5,166.2,275,166.5,274.5z"/>
				<path class="st6" d="M160.5,267.3c0-0.4,0.5-0.6,0.9-0.4c0.3,0.3,0.6,0.6,1,0.8c0.5,0.4-0.2,1.1-0.7,0.7c0,0-0.1-0.1-0.1-0.1
					c0,0.9,0,1.8-0.1,2.8c0,0.6-1,0.6-1,0C160.4,269.9,160.4,268.6,160.5,267.3z"/>
				<path class="st6" d="M153.9,266.4c0.3-0.6,1.1-0.1,0.9,0.5c-0.5,1-0.6,2.1-0.4,3.1c0.1,0.6-0.8,0.9-1,0.3
					C153.1,269,153.3,267.7,153.9,266.4z"/>
				<path class="st6" d="M158.8,272.2l0.3,2.5c0.1,0.6-0.9,0.6-1,0l-0.3-2.5C157.7,271.6,158.7,271.6,158.8,272.2z"/>
				<path class="st6" d="M174,274.8c0.4-0.5,1.1,0.2,0.7,0.7c-0.4,0.4-0.5,1-0.3,1.5c0.2,0.6-0.8,0.9-1,0.3
					C173.2,276.4,173.4,275.5,174,274.8z"/>
				<path class="st6" d="M133.9,257.2v4c0,0.6-1,0.6-1,0v-4C132.9,256.6,133.9,256.5,133.9,257.2z"/>
				<path class="st6" d="M140.1,262.1c0.2-0.6,1.2-0.3,1,0.3c-0.6,1.8-0.5,3.6,0.4,5.2c0.3,0.6-0.6,1.1-0.9,0.5
					C139.6,266.3,139.4,264.2,140.1,262.1z"/>
				<path class="st6" d="M146.9,267.7v3c0,0.6-1,0.6-1,0v-3C145.9,267.1,146.9,267,146.9,267.7z"/>
				<path class="st6" d="M151,270.6c0.1-0.6,1.1-0.4,1,0.3c-0.2,1.1-0.1,2.2,0.2,3.3c0.2,0.6-0.8,0.9-1,0.3
					C150.8,273.1,150.7,271.9,151,270.6z"/>
				<path class="st6" d="M141.4,272.1c0.1,0.3,0.1,0.6,0.2,1c0.1,0.6-0.9,0.9-1,0.3c-0.1-0.3-0.1-0.6-0.2-1
					C140.3,271.7,141.3,271.4,141.4,272.1z"/>
				<path class="st6" d="M133.4,266.4c0.3-0.6,1.1-0.1,0.9,0.5c-0.4,1-0.6,2.1-0.3,3.1c0.1,0.6-0.8,0.9-1,0.3
					C132.7,269,132.8,267.7,133.4,266.4z"/>
				<path class="st6" d="M127.4,260.5c0.2-0.6,1.2-0.3,1,0.3c-0.5,1.2-0.6,2.5-0.4,3.7c0.1,0.6-0.9,0.9-1,0.3
					C126.7,263.4,126.8,261.9,127.4,260.5z"/>
				<path class="st6" d="M124,253.5c0.3-0.6,1.2-0.1,0.9,0.5c-0.5,1.1-0.6,2.3,0,3.4c0.3,0.6-0.6,1.1-0.9,0.5
					C123.3,256.5,123.3,254.9,124,253.5z"/>
				<path class="st6" d="M130.9,249.1c0.5,1.7,0.7,3.4,0.5,5.1c-0.1,0.6-1.1,0.6-1,0c0.2-1.7,0-3.3-0.5-4.9
					C129.7,248.7,130.7,248.4,130.9,249.1z"/>
				<path class="st6" d="M129.4,242.7v4.5c0,0.6-1,0.6-1,0v-4.5C128.4,242.1,129.4,242,129.4,242.7z"/>
				<path class="st6" d="M122.9,236.7v7.5c0,0.6-1,0.6-1,0v-7.5C121.9,236.1,122.9,236,122.9,236.7z"/>
				<path class="st6" d="M126.5,247c0.5,1.4,0.6,2.8,0.4,4.3c-0.1,0.6-1.1,0.4-1-0.3c0.2-1.3,0.1-2.5-0.4-3.8
					C125.3,246.7,126.2,246.4,126.5,247z"/>
				<path class="st6" d="M153.9,246.6c0.5-1.2,0.6-2.5,0.5-3.7c-0.1-0.6,0.9-0.9,1-0.3c0.2,1.5,0.1,2.9-0.5,4.3
					C154.7,247.4,153.7,247.2,153.9,246.6z"/>
				<path class="st6" d="M161.2,243.8c0-0.1,0.1-0.3,0.1-0.5c0.1-0.5,0.1-1.1,0.1-1.6c0-1,0.1-2-0.1-3c-0.1-0.6,0.9-0.6,1,0
					c0.2,1.6,0.1,3.2-0.1,4.8c-0.1,0.6-0.6,2-1.3,1C160.7,244.1,160.9,243.8,161.2,243.8z"/>
				<path class="st6" d="M156.2,235.7c0.1-0.6,1.1-0.6,1,0c-0.1,1.5,0,2.9,0.3,4.4c0.1,0.6-0.8,0.9-1,0.3
					C156.2,238.8,156,237.2,156.2,235.7z"/>
				<path class="st6" d="M149.3,235.5c0.2-0.6,1.2-0.3,1,0.3c-0.7,1.8-0.6,3.5,0,5.3c0.2,0.6-0.7,0.9-1,0.3
					C148.6,239.5,148.6,237.4,149.3,235.5z"/>
				<path class="st6" d="M142.4,234.4c0.3-0.6,1.1-0.1,0.9,0.5c-0.6,1.4-0.6,3.1,0,4.5c0.3,0.6-0.6,1.1-0.9,0.5
					C141.7,238.1,141.6,236.2,142.4,234.4z"/>
				<path class="st6" d="M134.9,237.4c0.8-1.3,1.1-2.7,0.9-4.2c-0.1-0.6,0.9-0.6,1,0c0.2,1.7-0.2,3.3-1.1,4.7
					C135.5,238.5,134.6,238,134.9,237.4z"/>
				<path class="st6" d="M130.4,231.1c0.1-0.6,1.1-0.4,1,0.3c-0.3,1.5-0.6,3-0.9,4.5c-0.1,0.6-1.1,0.4-1-0.3
					C129.8,234.1,130.1,232.6,130.4,231.1z"/>
				<path class="st6" d="M132,242.5c0.3,0.2,0.6-0.5,0.7-0.7c0.1-0.3,0.1-0.7,0.1-1c0.1-0.6,0.3-1.2,0.9-1.5c0.5-0.4,1,0.5,0.5,0.9
					c-0.4,0.3-0.4,1-0.5,1.4c-0.1,0.5-0.2,0.9-0.4,1.2c-0.5,0.7-1.3,1-2,0.4C130.8,242.8,131.5,242.1,132,242.5z"/>
				<path class="st6" d="M127.4,235.4c0.3-0.6,1.1-0.1,0.9,0.5c-0.4,1-0.6,2.1-0.3,3.1c0.1,0.6-0.8,0.9-1,0.3
					C126.7,238,126.8,236.7,127.4,235.4z"/>
				<path class="st6" d="M124.1,234.6c0.4-1.4,0.5-2.8,0.3-4.3c-0.1-0.6,0.9-0.9,1-0.3c0.3,1.6,0.2,3.2-0.3,4.8
					C124.8,235.5,123.9,235.2,124.1,234.6z"/>
				<path class="st6" d="M117.4,226.5c0.2-0.6,1.1-0.4,1,0.3c-0.5,1.8-0.6,3.6-0.4,5.4c0.1,0.6-0.9,0.6-1,0
					C116.7,230.3,116.8,228.4,117.4,226.5z"/>
				<path class="st6" d="M121,236.1c0.5-1.2,0.6-2.5,0.4-3.7c-0.1-0.6,0.9-0.9,1-0.3c0.2,1.5,0.1,2.9-0.4,4.3
					C121.7,236.9,120.7,236.7,121,236.1z"/>
				<path class="st6" d="M116.4,239.6c0.2-0.6,1.2-0.3,1,0.3c-0.6,1.5-0.6,3.1,0,4.6c0.3,0.6-0.6,1.1-0.9,0.5
					C115.7,243.2,115.7,241.3,116.4,239.6z"/>
				<path class="st6" d="M119.5,244.7c0.2,1.7,0.3,3.3,0.5,5c0.1,0.6-0.9,0.6-1,0c-0.2-1.7-0.3-3.3-0.5-5
					C118.4,244,119.4,244,119.5,244.7z"/>
				<path class="st6" d="M122,250.5c0.5,1.6,0.6,3.2,0.4,4.8c-0.1,0.6-1.1,0.4-1-0.3c0.2-1.4,0.1-2.9-0.4-4.3
					C120.8,250.2,121.8,249.9,122,250.5z"/>
				<path class="st6" d="M119.9,259.9c0.4-0.5,1.3,0,0.9,0.5c-0.5,0.7-0.6,1.7,0,2.4c0.4,0.5-0.3,1.2-0.7,0.7
					C119.2,262.5,119.1,261,119.9,259.9z"/>
				<path class="st6" d="M115.2,253.2c0-0.6,1-0.6,1,0c0,0.8-0.1,1.7-0.1,2.5c0,0.6-1,0.6-1,0C115.2,254.9,115.2,254,115.2,253.2z"
					/>
				<path class="st6" d="M122.3,262.9c0.1-0.6,1.1-0.4,1,0.3c-0.2,0.9-0.1,1.9,0.1,2.8c0.2,0.6-0.8,0.9-1,0.3
					C122.1,265.1,122.1,264,122.3,262.9z"/>
				<path class="st6" d="M125.9,268.4c0.1-0.6,1.1-0.4,1,0.3c-0.1,0.4-0.1,0.8-0.2,1.2c-0.1,0.6-1.1,0.4-1-0.3
					C125.8,269.2,125.8,268.8,125.9,268.4z"/>
				<path class="st6" d="M115.4,263.7c0,0,0-0.1,0-0.1c0.1-0.9,0.1-1.8,0-2.7c-0.1-0.6,0.9-0.6,1,0c0.2,1.1,0.1,2.3-0.1,3.4
					c-0.1,0.5-1,0.4-1-0.1C115.4,264,115.4,263.8,115.4,263.7z"/>
				<path class="st6" d="M110,255c0.1-0.6,1.1-0.6,1,0c-0.1,1.1-0.2,2.1-0.4,3.1c-0.1,0.6-1.1,0.4-1-0.3
					C109.8,257,109.9,256,110,255z"/>
				<path class="st6" d="M111.2,247.4c0.2,0.7,0.2,1.4,0.2,2.1c0,0.6-1,0.6-1,0c0-0.6,0-1.2-0.2-1.9
					C110.1,247,111,246.8,111.2,247.4z"/>
				<path class="st6" d="M106,248.2c0.1-1.3,0.1-2.6,0.2-3.9c0-0.6,1-0.6,1,0c0,1.2-0.1,2.4-0.1,3.6c0.1,0.1,0.1,0.3,0,0.5
					c0,0,0,0.1,0,0.1c0,0.1,0,0.3,0,0.4c0,0.6-0.8,0.7-1,0.1C105.9,248.8,105.9,248.5,106,248.2z"/>
				<path class="st6" d="M110.1,240.9c0-0.6,1-0.6,1,0c0,0.9,0,1.8,0,2.7c0.2,0.1,0.2,0.4,0.1,0.6c0,0.1-0.1,0.1-0.1,0.2
					c-0.3,0.4-0.9,0.3-0.9-0.3L110.1,240.9z"/>
				<path class="st6" d="M110.5,234.5c-0.1-0.6,0.9-0.6,1,0c0.1,0.6,0.1,1.2,0.1,1.8c0.1,0.1,0.1,0.1,0.2,0.2
					c0.2,0.5-0.3,0.9-0.8,0.8c-0.2,0-0.4-0.3-0.4-0.5C110.6,236.1,110.6,235.3,110.5,234.5z"/>
				<path class="st6" d="M112.6,228.7c0.1-0.6,1.1-0.6,1,0c-0.1,0.8-0.1,1.6-0.2,2.3c-0.1,0.6-1.1,0.6-1,0
					C112.5,230.3,112.5,229.5,112.6,228.7z"/>
				<path class="st6" d="M111.5,221.5c-0.1-0.6,0.8-0.9,1-0.3c0.2,1.1,0.3,2.2,0.2,3.3c-0.1,0.6-1.1,0.6-1,0
					C111.8,223.5,111.7,222.5,111.5,221.5z"/>
				<path class="st6" d="M106.2,221.8c0.6-0.8,1-1.8,1-2.8c0-0.6,1-0.6,1,0c0,1.2-0.4,2.3-1.2,3.3
					C106.7,222.8,105.8,222.3,106.2,221.8z"/>
				<path class="st6" d="M107.9,228.2c0.4-0.8,0.7-1.6,0.7-2.5c0-0.6,1-0.6,1,0c0,1.1-0.3,2.1-0.8,3
					C108.4,229.2,107.6,228.7,107.9,228.2z"/>
				<path class="st6" d="M104.1,227.7c-0.1-0.6,0.9-0.9,1-0.3c0.2,1.6,0.3,3.2,0.1,4.8c-0.1,0.6-1.1,0.6-1,0
					C104.3,230.7,104.3,229.2,104.1,227.7z"/>
				<path class="st6" d="M106.9,232.9c0.1-0.6,1.1-0.6,1,0c-0.1,0.9-0.2,1.9-0.3,2.8c-0.1,0.6-1.1,0.6-1,0
					C106.7,234.8,106.8,233.8,106.9,232.9z"/>
				<path class="st6" d="M103.4,236.4c0-0.6,1-0.6,1,0c0.1,1.4,0,2.9-0.1,4.3c0,0.6-1,0.6-1,0C103.4,239.3,103.4,237.8,103.4,236.4z
					"/>
				<path class="st6" d="M100,234.2c0.1,1.3,0.1,2.7,0.2,4c0,0.6-1,0.6-1,0c-0.1-1.3-0.1-2.7-0.2-4C99,233.6,100,233.6,100,234.2z"
					/>
				<path class="st6" d="M101.4,244.2c0-0.6,1-0.6,1,0c-0.1,1.2,0,2.3,0.3,3.4c0.2,0.6-0.8,0.9-1,0.3
					C101.5,246.7,101.4,245.4,101.4,244.2z"/>
				<path class="st6" d="M103.4,250.5c0-0.6,1-0.6,1,0c0,0.3,0.2,2.2,0.2,3.4c1.2,0.2,1.2,2.2-0.2,2c-0.7-0.1-0.9-0.7-0.9-1.4
					C103.7,253.3,103.5,251.9,103.4,250.5z"/>
				<path class="st6" d="M113.2,238.1c0,0,0,0,0-0.1c0-0.1,0-0.3,0-0.4c0-0.3,0.1-0.5,0.1-0.8l0.2-1.5c0.1-0.6,1.1-0.6,1,0
					c-0.1,0.9-0.2,1.9-0.3,2.8c-0.1,0.5-0.3,0.9-0.8,0.9C112.7,239.1,112.7,238.3,113.2,238.1z"/>
				<path class="st6" d="M136.6,271.5c0.1,0.7,0.2,1.5,0.3,2.2c0.1,0.6-0.9,0.6-1,0c-0.1-0.7-0.2-1.5-0.3-2.2
					C135.5,270.9,136.5,270.9,136.6,271.5z"/>
				<path class="st6" d="M105.4,212.9c0-0.6,1-0.6,1,0c-0.1,1,0,1.9,0.1,2.8c0.1,0.6-0.9,0.6-1,0
					C105.4,214.8,105.3,213.8,105.4,212.9z"/>
				<path class="st6" d="M113.8,216.5l0.1,1.8c0,0.4,0.3,1.6-0.2,1.7c0.6-0.2,0.9,0.8,0.3,1c-0.7,0.2-1-0.5-1-1
					c-0.1-1.1-0.1-2.3-0.1-3.5C112.8,215.9,113.8,215.9,113.8,216.5z"/>
				<path class="st6" d="M119.7,222.3c-0.1-0.6,0.9-0.9,1-0.3c0.2,1.1,0.2,2.2,0.2,3.3c0,0.6-1,0.6-1,0
					C119.9,224.3,119.9,223.3,119.7,222.3z"/>
				<path class="st6" d="M129.2,227.7v2c0,0.6-1,0.6-1,0v-2C128.2,227.1,129.2,227,129.2,227.7z"/>
				<path class="st6" d="M100.5,210.5c0-0.6,1-0.6,1,0l-0.2,5.3c0,0.6-1,0.6-1,0L100.5,210.5z"/>
				<path class="st6" d="M98.3,207.6c0.1-0.8,0.2-1.7,0.3-2.5c0.1-0.6,1.1-0.4,1,0.3c-0.2,1-0.3,2.1-0.4,3.1c0,0.5-0.7,0.7-0.9,0.3
					c-0.1-0.1-0.2-0.3-0.3-0.4C97.7,208,98,207.7,98.3,207.6z"/>
				<path class="st6" d="M94.4,205.5c0.1-0.5,0-1.1,0-1.5c0-1.2,0-2.4,0-3.6c0-0.6,1-0.6,1,0c0,1.3,0,2.5,0,3.8
					c0,0.6,0.1,1.3-0.1,1.9c-0.1,0.2-0.2,0.4-0.5,0.4c0,0,0,0,0,0c-0.2,0-0.4-0.2-0.5-0.4c0,0,0,0,0-0.1
					C94.1,205.8,94.2,205.6,94.4,205.5z"/>
				<path class="st6" d="M89.1,201.8c0.3-1.6,0.5-3.2,0.6-4.8c0-0.6,1-0.6,1,0c0,1.5-0.2,2.9-0.5,4.3c0.2,0.2,0.3,0.5,0,0.7
					c-0.1,0.1-0.2,0.2-0.3,0.3C89.6,202.7,89,202.3,89.1,201.8z"/>
				<path class="st6" d="M96.7,196.4v3.3c0,0.6-1,0.6-1,0v-3.3C95.7,195.7,96.7,195.7,96.7,196.4z"/>
				<path class="st6" d="M91.5,194.7c-0.1-0.2-0.1-1.1-0.1-1.2c0-0.4,0-0.9-0.1-1.3c0-0.6,1-0.6,1,0c0,0.5,0,1,0.1,1.4
					c0,0.4,0.1,0.9,0,1.4c-0.1,0.6-0.7,1-1.2,0.5C90.9,195.2,91.1,194.8,91.5,194.7z"/>
				<path class="st6" d="M88.1,190.6c0.3,1.3,0.3,2.6,0.2,4c-0.1,0.6-1.1,0.6-1,0c0.2-1.2,0.1-2.5-0.1-3.7
					C87,190.2,88,189.9,88.1,190.6z"/>
				<path class="st6" d="M101.4,204.5c0-0.6,1-0.6,1,0c-0.1,1.1-0.1,2.1-0.2,3.2c0,0.6-1,0.6-1,0
					C101.2,206.6,101.3,205.6,101.4,204.5z"/>
				<path class="st6" d="M96.7,212v4c0,0.6-1,0.6-1,0v-4C95.7,211.4,96.7,211.4,96.7,212z"/>
				<path class="st6" d="M93.1,209.4c0.1-0.1,0.1-0.1,0.2-0.1c0-0.3,0-0.7,0-0.8c0-0.5,0.1-0.9,0.1-1.4c0-0.6,1-0.6,1,0
					c0,0.6-0.1,1.2-0.1,1.8c0,0.4,0,1-0.3,1.3C93.5,210.8,92.6,210,93.1,209.4z"/>
				<path class="st6" d="M88.9,205.3c-0.1-0.6,0.8-0.9,1-0.3c0.3,1.6,0.4,3.2,0.3,4.8c0,0.6-1,0.6-1,0
					C89.3,208.3,89.2,206.8,88.9,205.3z"/>
				<path class="st6" d="M92.6,216.4l0.1,1.9c0,0.3,0,0.6,0,1c0,0.2,0,0.6,0,0.9c0.4,0.2,0.5,0.8,0,0.9c-0.8,0.1-0.9-0.5-1-1.1
					c-0.1-1.2-0.1-2.3-0.1-3.5C91.6,215.7,92.6,215.7,92.6,216.4z"/>
				<path class="st6" d="M99.4,220.5l0.2,4c0,0.6-1,0.6-1,0l-0.2-4C98.4,219.9,99.4,219.9,99.4,220.5z"/>
				<path class="st6" d="M102.1,222.6c0.3-0.7,0.4-1.5,0.3-2.2c-0.1-0.6,0.8-0.9,1-0.3c0.2,0.9,0.1,1.9-0.3,2.8
					C102.8,223.4,101.9,223.2,102.1,222.6z"/>
				<path class="st6" d="M99.6,231.2c0.3-1.1,0.4-2.1,0.2-3.2c-0.1-0.6,0.9-0.6,1,0c0.2,1.2,0.1,2.3-0.3,3.5
					C100.4,232.1,99.5,231.9,99.6,231.2z"/>
				<path class="st6" d="M94.7,228.5c0.1-1,0-2,0-3c0-0.6,1-0.6,1,0c0,0.8,0.1,1.6,0,2.4c0,0.4-0.2,1.4-0.2,1.9c0,0,0.1,0.1,0.1,0.2
					l0,0.1c0.1,0.2-0.1,0.5-0.2,0.6c0,0,0,0-0.1,0c-0.2,0.2-0.5,0-0.7-0.2C94.4,230,94.7,229,94.7,228.5z"/>
				<path class="st6" d="M90.9,221.5v3.5c0,0.6-1,0.6-1,0v-3.5C89.9,220.9,90.9,220.9,90.9,221.5z"/>
				<path class="st6" d="M87.6,213.9c0-0.6,1-0.6,1,0c-0.1,1,0,1.9,0.1,2.8c0.1,0.6-0.9,0.6-1,0C87.5,215.8,87.5,214.8,87.6,213.9z"
					/>
				<path class="st6" d="M95.4,218.6c0.2-0.6,1.2-0.3,1,0.3c-0.4,1.1-0.4,2.1-0.2,3.2c0.1,0.6-0.8,0.9-1,0.3
					C94.9,221.1,95,219.8,95.4,218.6z"/>
				<path class="st6" d="M93.5,232.5c0-0.6,1-0.6,1,0c0,1.3,0,2.5,0.3,3.7c0.1,0.6-0.8,0.9-1,0.3C93.5,235.2,93.4,233.9,93.5,232.5z
					"/>
				<path class="st6" d="M98.4,240.2c0.1,1.6,0.1,3.2,0.2,4.8c0,0.6-1,0.6-1,0c-0.1-1.6-0.1-3.2-0.2-4.8
					C97.4,239.5,98.4,239.6,98.4,240.2z"/>
				<path class="st7" d="M238.3,186.5c7.6,0.9,14.3,3.8,19.8,9.1c4.7,4.5-2.4,11.5-7.1,7.1c-3.5-3.3-7.9-5.6-12.7-6.2
					c-2.7-0.3-5-2.1-5-5C233.3,189.1,235.6,186.2,238.3,186.5z"/>
				<path class="st7" d="M125.2,186.5c-7.6,0.9-14.3,3.8-19.8,9.1c-4.7,4.5,2.4,11.5,7.1,7.1c3.5-3.3,7.9-5.6,12.7-6.2
					c2.7-0.3,5-2.1,5-5C130.2,189.1,127.9,186.2,125.2,186.5z"/>
				<circle class="st7" cx="127.4" cy="212.7" r="3"/>
				<circle class="st7" cx="238.4" cy="212.7" r="3"/>
				<g>
					
						<rect x="193.3" y="451.2" transform="matrix(-1 -4.490331e-11 4.490331e-11 -1 439.0744 1061.8876)" class="st8" width="52.5" height="159.5"/>
					
						<rect x="117.3" y="447.2" transform="matrix(-1 -4.488599e-11 4.488599e-11 -1 287.0744 1053.8876)" class="st8" width="52.5" height="159.5"/>
					<polygon class="st8" points="198.8,478.7 157.8,478.7 157.8,447.6 202.8,447.6 					"/>
				</g>
				<path class="st9" d="M201.2,610.7h44.6V451.2h-43.5l-1.6,12.2c21.5,11.8,36.6,40.3,36.6,73.8
					C237.4,570.4,222.4,598.8,201.2,610.7z"/>
				<path class="st9" d="M117.3,447.2v159.5h44.6c-19.1-11.4-32.5-38-32.5-69c0-28.7,11.5-53.6,28.4-66.2v-23.9h12v-0.4H117.3z"/>
				<path class="st10" d="M241.4,352.7l2,10l6,94c0,0-93,21-139-7l8-100v-8c-89-22-114-104-114-104l43-21c12,53,71,75,71,75
					c12,5,24,4,24,4c32,25,77,3,77,3c6.1,0,13,0.3,19.5,1.4c11,1.9,21.9,5.5,32.1,10.1c20.8,9.3,39.6,24,50.4,44.4
					c7.3,13.8,11.8,30.6,3.3,44.9c-7,11.7-20.3,17.2-33.3,19.2l-3-39c0,0-11.5-34.5-46.5-27.5c0,0-16-36-18-53"/>
				<path class="st2" d="M36.9,208.2l-7-17.4c0,0,13.4-6.2,11.6-10.3s-16.9-3-16.9-3s1.1-19-3.8-20.3c-4.9-1.3-11.9,15.3-11.9,15.3
					s-10.2-13.6-14.3-11.9s-1.1,19-1.1,19s-14.3,4.2-13.5,8.2s13.6,6.8,13.6,6.8l9.5,25.6L36.9,208.2z"/>
				<path class="st11" d="M5.6,243.4l46.6-22.9c2.1-1,2.9-3.5,1.9-5.5l-6.2-12.5c-1-2.1-3.5-2.9-5.5-1.9l-46.6,22.9
					c-2.1,1-2.9,3.5-1.9,5.5l6.2,12.5C1.1,243.5,3.6,244.4,5.6,243.4z"/>
				<circle class="st12" cx="9.4" cy="229.7" r="4.5"/>
				<g>
					<g>
						<path class="st11" d="M135.4,312.7c-11-2.7-21.7-6.7-32.1-11.5c-10.3-4.8-20.2-10.6-29.4-17.5c-4.5-3.5-8.9-7.2-13-11.2
							c-4-4.1-7.8-8.4-11.1-13.1c-3.3-4.7-6.1-9.7-8.5-14.9c-2.2-5.3-3.9-10.7-5-16.3c1.5,5.5,3.4,10.8,5.9,15.9
							c2.5,5,5.5,9.8,8.8,14.4c3.4,4.5,7.2,8.7,11.2,12.6c4,3.9,8.4,7.6,12.9,11c4.5,3.4,9.2,6.5,14,9.5c4.8,3,9.8,5.7,14.8,8.2
							c5.1,2.5,10.2,4.9,15.4,7C124.7,309,130,311,135.4,312.7z"/>
					</g>
					<g>
						<path class="st11" d="M128.4,328.7c-3-0.7-6-1.6-9-2.6c-2.9-1-5.9-2-8.8-3.1c-5.8-2.2-11.6-4.7-17.2-7.3
							c-11.2-5.4-22.1-11.7-32.1-19.1c-10-7.4-19.3-16-26.8-26.1c-3.7-5-7-10.4-9.7-16c-2.5-5.7-4.5-11.6-5.7-17.7
							c1.6,6,3.8,11.8,6.6,17.3c2.8,5.5,6.3,10.6,10,15.5c3.8,4.9,8,9.4,12.5,13.6c4.5,4.3,9.3,8.2,14.2,11.8
							c4.9,3.7,10.1,7.1,15.4,10.3c5.3,3.2,10.7,6.2,16.2,9c5.5,2.8,11.1,5.4,16.8,7.8C116.7,324.5,122.5,326.8,128.4,328.7z"/>
					</g>
					<g>
						<path class="st11" d="M104.5,285c-2.8,3.1-5.3,6.4-7.6,9.8c-1.1,1.7-2.2,3.5-3.2,5.3c-1,1.8-1.9,3.6-2.7,5.5
							c-0.8,1.9-1.6,3.8-2.2,5.7c-0.6,1.9-1.1,3.9-1.5,5.9c-0.8,4-1,8.2-0.9,12.3c-0.9-4.1-1.2-8.4-0.6-12.6
							c0.5-4.2,1.7-8.4,3.4-12.2c1.7-3.9,3.9-7.6,6.5-10.9C98.2,290.6,101.1,287.5,104.5,285z"/>
					</g>
					<g>
						<path class="st11" d="M82.4,270.7c-4,1.7-7.8,3.8-11.2,6.3c-1.7,1.3-3.4,2.6-4.9,4c-1.5,1.5-3,3-4.2,4.7
							c-1.3,1.7-2.4,3.5-3.3,5.4c-0.9,1.9-1.6,3.9-2.2,5.9c-1.1,4.1-1.4,8.4-1.2,12.7c-1-4.2-1.1-8.7-0.3-13.1
							c0.4-2.2,1.1-4.3,2-6.4c0.9-2,2.1-4,3.4-5.8c2.7-3.6,6.1-6.5,9.8-8.9C74,273.3,78.1,271.6,82.4,270.7z"/>
					</g>
					<g>
						<path class="st11" d="M64.2,251.7c-4.4,0.5-8.6,1.3-12.8,2.5c-4.1,1.2-8.1,2.9-11.7,5.2c-1.8,1.2-3.4,2.5-4.9,4
							c-0.4,0.4-0.7,0.7-1.1,1.2l-1,1.2c-0.6,0.9-1.2,1.7-1.7,2.6c-0.6,0.9-1,1.9-1.4,2.8c-0.4,1-0.8,2-1,3
							c-0.7,2.1-0.9,4.2-1.3,6.4c-0.1-2.2-0.1-4.4,0.3-6.6c0.1-1.1,0.5-2.2,0.8-3.3c0.4-1.1,0.7-2.1,1.3-3.1c1.9-4.1,5.2-7.5,9-10
							c3.8-2.4,8-4.1,12.4-5C55.4,251.7,59.9,251.3,64.2,251.7z"/>
					</g>
				</g>
				<polygon class="st3" points="1.3,215.5 3,219.9 35.2,204 33.5,199.7 				"/>
				<g>
					<path class="st11" d="M203.3,304.7c0.4,11.4,0.6,22.9,0.8,34.3c0.2,11.4,0.2,22.9,0.2,34.3c0,11.4-0.1,22.9-0.2,34.3
						c-0.1,11.4-0.4,22.9-0.8,34.3c-0.4-11.4-0.6-22.9-0.8-34.3c-0.2-11.4-0.2-22.9-0.2-34.3c0-11.4,0.1-22.9,0.2-34.3
						C202.7,327.6,202.9,316.1,203.3,304.7z"/>
				</g>
				<g>
					<path class="st11" d="M141.3,442c-0.4-12.2-0.6-24.4-0.8-36.6c-0.2-12.2-0.2-24.4-0.2-36.6c0-12.2,0.1-24.4,0.2-36.6
						c0.1-12.2,0.4-24.4,0.8-36.6c0.4,12.2,0.6,24.4,0.8,36.6c0.2,12.2,0.2,24.4,0.2,36.6c0,12.2-0.1,24.4-0.2,36.6
						C142,417.6,141.7,429.8,141.3,442z"/>
				</g>
				<g>
					<path class="st11" d="M183.3,308.7c0.2,6.2,0.3,12.5,0.5,18.8l0.3,18.8c0.2,12.5,0.1,25,0.2,37.5c-0.1,12.5-0.1,25-0.2,37.5
						l-0.3,18.8c-0.2,6.2-0.3,12.5-0.5,18.8c-0.2-6.2-0.3-12.5-0.5-18.8l-0.3-18.8c-0.2-12.5-0.2-25-0.2-37.5
						c0.1-12.5,0.1-25,0.2-37.5l0.3-18.8C183,321.2,183.1,314.9,183.3,308.7z"/>
				</g>
				<g>
					<path class="st11" d="M161.3,309.8c0.4,11.6,0.6,23.1,0.8,34.7c0.2,11.6,0.2,23.1,0.2,34.7c0,11.6-0.1,23.1-0.2,34.7
						c-0.1,11.6-0.4,23.1-0.8,34.7c-0.4-11.6-0.6-23.1-0.8-34.7c-0.2-11.6-0.2-23.1-0.2-34.7c0-11.6,0.1-23.1,0.2-34.7
						C160.7,332.9,160.9,321.4,161.3,309.8z"/>
				</g>
				<g>
					<path class="st11" d="M220.4,317.7c-6.5,0.4-13,0.6-19.5,0.8c-6.5,0.2-13,0.2-19.5,0.2c-6.5,0-13-0.1-19.5-0.2
						c-6.5-0.1-13-0.4-19.5-0.8c6.5-0.4,13-0.6,19.5-0.8c6.5-0.2,13-0.2,19.5-0.2c6.5,0,13,0.1,19.5,0.2
						C207.4,317,213.9,317.3,220.4,317.7z"/>
				</g>
				<g>
					<path class="st11" d="M241.4,335.7c-10.2,0.4-20.5,0.6-30.8,0.8c-10.2,0.2-20.5,0.2-30.8,0.2c-10.2,0-20.5-0.1-30.8-0.2
						c-10.2-0.1-20.5-0.4-30.7-0.8c10.2-0.4,20.5-0.6,30.7-0.8c10.2-0.2,20.5-0.2,30.8-0.2c10.2,0,20.5,0.1,30.8,0.2
						C220.9,335,231.1,335.3,241.4,335.7z"/>
				</g>
				<g>
					<path class="st11" d="M241.4,351.3c-10.2,0.4-20.5,0.6-30.8,0.8c-10.2,0.2-20.5,0.2-30.8,0.2c-10.2,0-20.5-0.1-30.8-0.2
						c-10.2-0.1-20.5-0.4-30.7-0.8c10.2-0.4,20.5-0.6,30.7-0.8c10.2-0.2,20.5-0.2,30.8-0.2c10.2,0,20.5,0.1,30.8,0.2
						C220.9,350.6,231.1,350.9,241.4,351.3z"/>
				</g>
				<g>
					<path class="st11" d="M238.9,361.2c0.5,8.1,0.8,16.2,1,24.3c0.2,8.1,0.4,16.2,0.5,24.3c0.1,8.1,0.1,16.2,0,24.3
						c0,8.1-0.2,16.2-0.5,24.3c-0.5-8.1-0.8-16.2-1-24.3c-0.2-8.1-0.4-16.2-0.5-24.3c-0.1-8.1-0.1-16.2,0-24.3
						C238.4,377.4,238.6,369.3,238.9,361.2z"/>
				</g>
				<g>
					<path class="st11" d="M122.9,358.2c0.5,8.1,0.8,16.2,1,24.3c0.2,8.1,0.4,16.2,0.5,24.3c0.1,8.1,0.1,16.2,0,24.3
						c0,8.1-0.2,16.2-0.5,24.3c-0.5-8.1-0.8-16.2-1-24.3c-0.2-8.1-0.4-16.2-0.5-24.3c-0.1-8.1-0.1-16.2,0-24.3
						C122.4,374.4,122.6,366.3,122.9,358.2z"/>
				</g>
				<g>
					<path class="st11" d="M244.4,375c-10.5,0.4-21.1,0.6-31.6,0.8c-10.5,0.2-21.1,0.2-31.6,0.2c-10.5,0-21.1-0.1-31.6-0.2
						c-10.5-0.1-21.1-0.4-31.6-0.8c10.5-0.4,21.1-0.6,31.6-0.8c10.5-0.2,21.1-0.2,31.6-0.2c10.5,0,21.1,0.1,31.6,0.2
						C223.3,374.4,233.9,374.6,244.4,375z"/>
				</g>
				<g>
					<path class="st11" d="M245.4,399.2c-10.8,0.4-21.7,0.6-32.5,0.8c-10.8,0.2-21.7,0.2-32.5,0.2c-10.8,0-21.7-0.1-32.5-0.2
						c-10.8-0.1-21.7-0.4-32.5-0.8c10.8-0.4,21.7-0.6,32.5-0.8c10.8-0.2,21.7-0.2,32.5-0.2c10.8,0,21.7,0.1,32.5,0.2
						C223.7,398.5,234.6,398.8,245.4,399.2z"/>
				</g>
				<g>
					<path class="st11" d="M247.5,425.4c-11.2,0.4-22.4,0.6-33.7,0.8c-11.2,0.2-22.4,0.2-33.7,0.2c-11.2,0-22.4-0.1-33.7-0.2
						c-11.2-0.1-22.4-0.4-33.7-0.8c11.2-0.4,22.4-0.6,33.7-0.8c11.2-0.2,22.4-0.2,33.7-0.2c11.2,0,22.4,0.1,33.7,0.2
						C225,424.7,236.3,425,247.5,425.4z"/>
				</g>
				<g>
					<path class="st11" d="M248.7,446.2c-11.5,0.4-23,0.6-34.5,0.8c-11.5,0.2-23,0.2-34.5,0.2c-11.5,0-23-0.1-34.5-0.2
						c-11.5-0.1-23-0.4-34.5-0.8c11.5-0.4,23-0.6,34.5-0.8c11.5-0.2,23-0.2,34.5-0.2c11.5,0,23,0.1,34.5,0.2
						C225.7,445.6,237.2,445.8,248.7,446.2z"/>
				</g>
				<g>
					<polygon class="st11" points="218.9,298.2 219.1,316.9 219.3,335.7 219.4,373.2 219.3,410.7 219.1,429.4 218.9,448.2 
						218.6,429.4 218.5,410.7 218.4,373.2 218.5,335.7 218.6,316.9 					"/>
				</g>
				<g>
					<path class="st11" d="M139.9,296.2c-0.5,4.2-1.4,8.3-2.5,12.4c-1.1,4.1-2.6,8-4.3,11.9l-1.3,2.9l-1.5,2.8
						c-0.5,0.9-1,1.8-1.6,2.7c-0.6,0.9-1.1,1.8-1.7,2.7c-2.3,3.5-5.1,6.7-8.2,9.6c1.3-1.7,2.8-3.1,4-4.9c0.6-0.8,1.3-1.7,1.8-2.5
						l1.7-2.6c2.2-3.6,4.2-7.2,5.8-11.1c1.7-3.8,3.2-7.7,4.4-11.7c0.6-2,1.2-4,1.8-6C139,300.3,139.4,298.2,139.9,296.2z"/>
				</g>
				<g>
					<g>
						<path class="st11" d="M238.9,340.2c7.9-0.6,16-0.2,23.9,1.4c7.8,1.6,15.7,4.3,22.2,9.3c3.2,2.5,6,5.6,8.1,9.2
							c2,3.6,3.3,7.5,3.8,11.6c0.8,8.1-1,16.2-3.9,23.6c2.2-7.6,3.4-15.6,2.3-23.3c-0.6-3.8-1.9-7.5-3.9-10.8
							c-1.9-3.3-4.6-6.2-7.7-8.5c-3-2.4-6.5-4.3-10.1-5.8c-3.6-1.5-7.4-2.7-11.2-3.6c-3.8-0.9-7.7-1.6-11.7-2.1
							C246.8,340.5,242.9,340.3,238.9,340.2z"/>
					</g>
					<g>
						<path class="st11" d="M240.4,317.7c12.2,0.7,24.3,3.5,35.6,8.4c5.7,2.4,11.1,5.4,16.1,9c1.3,0.9,2.5,1.8,3.7,2.8
							c0.6,0.5,1.2,1,1.8,1.5l1.7,1.5c2.3,2.1,4.4,4.3,6.4,6.7c2,2.4,3.8,4.9,5.4,7.6c1.6,2.7,3,5.4,4.1,8.4c1.1,2.9,1.9,6,2.3,9.1
							c0.5,3.1,0.5,6.2,0,9.3c-0.8,6.2-3.6,12.2-8,16.6c-4.4,4.4-10.2,7.3-16.2,8.2c3-0.7,5.8-1.8,8.5-3.3c2.6-1.5,5-3.4,7-5.6
							c4.1-4.4,6.5-10.2,7.2-16.1c0.7-5.9-0.4-12-2.5-17.5c-2.2-5.6-5.4-10.8-9.2-15.4c-1.9-2.3-4-4.5-6.2-6.5l-1.7-1.5
							c-0.6-0.5-1.2-1-1.7-1.4c-1.2-1-2.4-1.9-3.6-2.8c-4.9-3.6-10.2-6.5-15.7-9.1C264.4,322.4,252.5,319.2,240.4,317.7z"/>
					</g>
					<g>
						<path class="st11" d="M281.8,315.6c-3.9,0.9-7.5,2.7-10.5,5.2c-2.9,2.5-5.2,5.8-6.6,9.4c-0.7,1.8-1.4,3.7-1.8,5.6
							c-0.3,0.9-0.4,1.9-0.6,2.9c-0.2,1-0.3,2-0.4,2.9c-0.4,3.9-0.4,7.9-0.4,12c-0.9-3.9-1.3-8-1.2-12.1c0.1-4.1,0.9-8.2,2.5-12.1
							c1.6-3.8,4.1-7.4,7.5-9.8C273.6,317.2,277.7,315.6,281.8,315.6z"/>
					</g>
					<g>
						<path class="st11" d="M306.8,334.6c-3.9,0.1-7.8,0.7-11.4,1.8c-3.6,1.1-7.1,2.8-9.8,5.3c-1.4,1.2-2.6,2.7-3.6,4.2
							c-1.1,1.5-1.8,3.3-2.5,5c-1.3,3.6-1.9,7.4-2.3,11.3c-0.5-3.9-0.3-7.9,0.8-11.8c1.1-3.9,3.3-7.5,6.3-10.2
							c3.1-2.7,6.9-4.4,10.8-5.3C298.9,334,303,333.9,306.8,334.6z"/>
					</g>
					<g>
						<path class="st11" d="M327.7,370.5c-3.4-1.9-7-3.4-10.6-4.5c-3.7-1.1-7.4-1.8-11.2-1.6c-3.8,0.1-7.5,1-10.9,2.6
							c-3.4,1.6-6.5,4-9.4,6.6c2.2-3.2,5.2-6,8.7-8c1.7-1,3.6-1.7,5.6-2.3c2-0.5,4-0.8,6-0.9c4-0.1,8.1,0.7,11.8,2.1
							C321.3,365.9,324.8,367.9,327.7,370.5z"/>
					</g>
					<g>
						<path class="st11" d="M313.5,410.8c-0.6-4-1.6-7.8-3-11.5c-1.4-3.6-3.3-7.1-5.8-10c-2.5-2.9-5.7-5.2-9.2-6.7
							c-3.6-1.5-7.5-2.2-11.5-2.5c4-0.5,8.1-0.3,12,1c2,0.6,3.8,1.6,5.6,2.7c1.7,1.2,3.3,2.6,4.6,4.1c1.3,1.6,2.5,3.3,3.5,5.1
							c0.9,1.8,1.7,3.7,2.3,5.7C313.1,402.7,313.7,406.8,313.5,410.8z"/>
					</g>
				</g>
				<g>
					<path class="st11" d="M241.4,300.6c-1,4.1-1.6,8.3-1.9,12.4c-0.4,4.2-0.5,8.3-0.4,12.5c0.1,4.2,0.5,8.3,1.2,12.4
						c0.3,2.1,0.7,4.1,1.2,6.2c0.2,1,0.5,2,0.7,3.1c0.3,1,0.5,2,0.7,3.1c-0.4-1-0.9-1.9-1.3-2.9c-0.4-1-0.8-2-1.1-3
						c-0.6-2-1.3-4-1.7-6.1c-0.5-2.1-0.8-4.2-1.2-6.3c-0.2-1.1-0.2-2.1-0.3-3.2c-0.1-1.1-0.2-2.1-0.2-3.2c-0.2-4.3,0.1-8.5,0.8-12.7
						C238.6,308.6,239.6,304.5,241.4,300.6z"/>
				</g>
				<path class="st13" d="M120,638.7H114c-4.2,0-8.4,1.3-11.7,3.8c-7,5.3-7.5,13.2-7.3,20.9c0.1,5.1,0.3,10.5,5.7,12.9
					c3.3,1.5,46,0.4,63.8,0c2.3-0.1,4.1-1.9,4.1-4.2l-0.5-59.4l-47.5,0.5L120,638.7z"/>
				<g>
					<path class="st14" d="M120.1,632.9l5.9,0.6c1.9,0.2,3.9,0.3,5.8,0.3c1.9,0.1,3.9,0,5.8-0.1c1.9-0.1,3.9-0.4,5.9-0.6
						c-1.7,1-3.7,1.8-5.7,2.2c-2,0.4-4,0.6-6.1,0.5c-2-0.1-4-0.3-6-0.8C123.8,634.6,121.9,633.9,120.1,632.9z"/>
				</g>
				<g>
					<path class="st14" d="M120.1,624.9l5.9,0.6c1.9,0.2,3.9,0.3,5.8,0.3c1.9,0.1,3.9,0,5.8-0.1c1.9-0.1,3.9-0.4,5.9-0.6
						c-1.7,1-3.7,1.8-5.7,2.2c-2,0.4-4,0.6-6.1,0.5c-2-0.1-4-0.3-6-0.8C123.8,626.6,121.9,625.9,120.1,624.9z"/>
				</g>
				<g>
					<path class="st14" d="M120,638.5c2.1-0.1,4.3,0.3,6.3,1.1c2,0.8,3.9,2,5.2,3.6c-1.9-1.1-3.7-2-5.6-2.7
						C124,639.7,122,639.2,120,638.5z"/>
				</g>
				<g>
					<path class="st15" d="M101.5,659.2c-0.5-2-0.4-4.1,0-6.1c0.4-2,1.3-4,2.7-5.7c0.6-0.9,1.5-1.5,2.3-2.2l1.4-0.8
						c0.4-0.3,1-0.4,1.5-0.6c1-0.4,2-0.5,3-0.7c1-0.1,2.1,0,3.1,0c-1,0.4-1.9,0.6-2.8,0.9c-0.9,0.4-1.8,0.7-2.6,1.2
						c-1.7,0.8-3.1,2-4.3,3.4c-1.2,1.4-2.1,3-2.8,4.8C102.4,655.3,101.9,657.2,101.5,659.2z"/>
				</g>
				<path class="st14" d="M168.5,672.1c0,2.3-1.8,4.2-4.1,4.2c-17.8,0.5-60.4,1.5-63.8,0c-5.3-2.4-5.5-7.8-5.7-12.9
					c0-0.2,0-0.3,0-0.5c12.1,1.1,58.3,5.1,73.4-3.2L168.5,672.1z"/>
				<path class="st16" d="M168.1,618.6c-0.3,0.1-0.5,0.1-0.8,0.1h-46.9l0.1-3h46.8c0.3,0,0.5,0,0.8-0.1L168.1,618.6z"/>
				<path class="st13" d="M241.4,638.7h6.1c4.2,0,8.4,1.3,11.7,3.8c7,5.3,7.5,13.2,7.3,20.9c-0.1,5.1-0.3,10.5-5.7,12.9
					c-3.3,1.5-46,0.4-63.8,0c-2.3-0.1-4.1-1.9-4.1-4.2l0.5-59.4l47.5,0.5L241.4,638.7z"/>
				<path class="st12" d="M141.4,493.7h79c8.3,0,15-6.7,15-15v-24h-109v24C126.4,487,133.1,493.7,141.4,493.7z"/>
				<path class="st12" d="M107.4,445v8.5c0,2.1,1.2,3.9,3,4.6c59.2,21.3,118.5,7,139.5,0.5c1.9-0.6,3.2-2.5,3.2-4.6v-8.6
					c0-3.2-2.7-5.5-5.5-4.6c-22.4,6.6-78.3,19-134.6-0.3C110.2,439.4,107.4,441.7,107.4,445z"/>
				<path class="st17" d="M126.4,462.9v6c43.2,11.2,84.6,5.3,109-0.5v-6C211,468.2,169.6,474.1,126.4,462.9z"/>
				<path class="st18" d="M124.2,438.8v5c45.8,12.4,89.8,5.4,114.2-0.7v-5C214.1,444.2,170,451.3,124.2,438.8z"/>
				<path class="st19" d="M114.5,459.4c57.8,19.2,114.8,5.4,135.3-0.9c1.9-0.6,3.2-2.5,3.2-4.6v-8.6c0-3.2-2.7-5.5-5.5-4.7
					c-0.8,0.2-1.5,0.5-2.4,0.7c-13,14.2-44.9,24.3-82.3,24.3C145,465.7,128.4,463.4,114.5,459.4z"/>
				<g>
					<path class="st20" d="M140.6,452.7c-2.3,0.1-4.5,0-6.7-0.3c-2.2-0.2-4.4-0.6-6.6-1.1c-2.2-0.5-4.3-1.1-6.4-1.9
						c-2.1-0.8-4.2-1.7-5.9-3.2c2.1,0.7,4.3,1.2,6.4,1.7c2.1,0.5,4.3,1,6.4,1.4c2.1,0.5,4.3,1,6.4,1.5
						C136.3,451.4,138.4,452,140.6,452.7z"/>
				</g>
				<path class="st18" d="M193.3,493.7v8h27.1c8.3,0,15-6.7,15-15v-8c0,8.3-6.7,15-15,15H193.3z"/>
				<path class="st18" d="M126.4,478.7v8c0,8.3,6.7,15,15,15h28.4v-8h-28.4C133.1,493.7,126.4,487,126.4,478.7z"/>
				<g>
					<path class="st20" d="M229.4,475.7c0.6,1.4,0.3,3.1-0.4,4.5c-0.3,0.7-0.9,1.3-1.4,1.9c-0.3,0.3-0.6,0.5-0.9,0.8
						c-0.3,0.3-0.6,0.5-0.9,0.7c-0.7,0.4-1.3,0.9-2,1.2l-2.1,1c-1.5,0.5-2.9,1-4.4,1.3l-2.2,0.4c-0.7,0.1-1.5,0.2-2.2,0.3l-2.2,0.2
						c-0.7,0-1.5,0.1-2.2,0.1c-3,0.1-6-0.1-9-0.4c3-0.5,5.9-0.7,8.8-1.1c0.7-0.1,1.5-0.2,2.2-0.3l2.2-0.4l2.2-0.3l2.1-0.5
						c1.4-0.2,2.8-0.7,4.2-1.1l2-0.8c0.3-0.1,0.6-0.3,1-0.5l0.9-0.5c0.6-0.3,1.2-0.8,1.8-1.2c0.5-0.5,1.1-0.9,1.4-1.5
						C229,478.6,229.5,477.2,229.4,475.7z"/>
				</g>
				<path class="st21" d="M118.1,615.7h51.5c2.1,0,3.8-1.7,3.8-3.8v-16.5c0-2.1-1.7-3.8-3.8-3.8h-51.5c-2.1,0-3.8,1.7-3.8,3.8v16.5
					C114.4,614,116.1,615.7,118.1,615.7z"/>
				<path class="st22" d="M114.4,609.9v2.1c0,2.1,1.7,3.8,3.8,3.8h51.5c2.1,0,3.8-1.7,3.8-3.8v-16.5c0-2.1-1.7-3.8-3.8-3.8h-1
					c0.5,1.3,0.7,2.6,0.7,4c0,10.5-14.8,19-33,19C127.9,614.7,120.2,612.9,114.4,609.9z"/>
				<g>
					<path class="st14" d="M241.3,632.9c-1.8,1-3.7,1.7-5.7,2.1c-2,0.5-4,0.7-6,0.8c-2,0.1-4.1-0.1-6.1-0.5c-2-0.4-3.9-1.1-5.7-2.2
						c2,0.2,3.9,0.5,5.9,0.6c1.9,0.1,3.9,0.1,5.8,0.1c1.9-0.1,3.9-0.2,5.8-0.3L241.3,632.9z"/>
				</g>
				<g>
					<path class="st14" d="M241.3,624.9c-1.8,1-3.7,1.7-5.7,2.1c-2,0.5-4,0.7-6,0.8c-2,0.1-4.1-0.1-6.1-0.5c-2-0.4-3.9-1.1-5.7-2.2
						c2,0.2,3.9,0.5,5.9,0.6c1.9,0.1,3.9,0.1,5.8,0.1c1.9-0.1,3.9-0.2,5.8-0.3L241.3,624.9z"/>
				</g>
				<g>
					<path class="st14" d="M241.4,638.5c-2,0.7-4,1.3-5.9,2c-1.9,0.7-3.7,1.6-5.6,2.7c1.3-1.7,3.2-2.8,5.2-3.6
						C237.1,638.8,239.2,638.4,241.4,638.5z"/>
				</g>
				<g>
					<path class="st15" d="M259.9,659.2c-0.4-2-0.8-3.9-1.5-5.7c-0.7-1.8-1.6-3.4-2.8-4.8c-1.2-1.4-2.6-2.6-4.3-3.4
						c-0.8-0.5-1.7-0.8-2.6-1.2c-0.9-0.3-1.9-0.5-2.8-0.9c1-0.1,2-0.1,3.1,0c1,0.2,2.1,0.3,3,0.7c0.5,0.2,1,0.3,1.5,0.6l1.4,0.8
						c0.8,0.6,1.7,1.3,2.3,2.2c1.4,1.6,2.3,3.6,2.7,5.7C260.3,655.1,260.4,657.2,259.9,659.2z"/>
				</g>
				<path class="st14" d="M192.9,672.1c0,2.3,1.8,4.2,4.1,4.2c17.8,0.5,60.4,1.5,63.8,0c5.3-2.4,5.5-7.8,5.7-12.9c0-0.2,0-0.3,0-0.5
					c-12.1,1.1-58.3,5.1-73.4-3.2L192.9,672.1z"/>
				<path class="st16" d="M193.3,618.6c0.3,0.1,0.5,0.1,0.8,0.1H241l-0.1-3h-46.8c-0.3,0-0.5,0-0.8-0.1L193.3,618.6z"/>
				<path class="st21" d="M245.6,615.7h-51.5c-2.1,0-3.8-1.7-3.8-3.8v-16.5c0-2.1,1.7-3.8,3.8-3.8h51.5c2.1,0,3.8,1.7,3.8,3.8v16.5
					C249.4,614,247.7,615.7,245.6,615.7z"/>
				<path class="st22" d="M249.4,609.9v2.1c0,2.1-1.7,3.8-3.8,3.8h-51.5c-2.1,0-3.8-1.7-3.8-3.8v-16.5c0-2.1,1.7-3.8,3.8-3.8h1
					c-0.5,1.3-0.7,2.6-0.7,4c0,10.5,14.8,19,33,19C235.8,614.7,243.5,612.9,249.4,609.9z"/>
				<g>
					<g>
						<path class="st23" d="M168.5,306.6c0,0-16.1-16.9-39.1-14.1c0,0,0,38-18,52l-7,101c0,0,34,21,68,11L168.5,306.6z"/>
						<path class="st24" d="M106.5,415.1c23.2,6.9,45.3,9.5,65.1,9.8l-0.5-19c-19.3-0.4-40.8-3.1-63.3-9.7L106.5,415.1z"/>
						<path class="st24" d="M111.1,348.4c20.8,5.7,40.7,8.1,58.7,8.5l-0.5-19c-14.9-0.4-31.1-2.2-48.1-6.1h0
							c-2.5,5-5.7,9.6-9.8,12.8L111.1,348.4z"/>
					</g>
					<g>
						<path class="st25" d="M138,398.6c9.5,1.1,18.2-5.7,19.4-15.2c-2.8,7.3-10.3,12.1-18.4,11.2c-9.6-1.1-16.5-9.8-15.3-19.4
							l1.2-10.3l-0.5-0.1l-1.7,14.4C121.5,388.7,128.4,397.4,138,398.6z"/>
						<path class="st12" d="M139,394.6L139,394.6c9.6,1.1,18.3-5.7,19.4-15.3l1.7-14.4l-34.8-4.1l-1.7,14.4
							C122.5,384.7,129.4,393.4,139,394.6z"/>
						<g>
							<path class="st26" d="M153.4,378.7c0,2.1-0.6,4.2-1.8,6c-1.1,1.8-2.8,3.4-4.8,4.3c-2,0.9-4.2,1.2-6.3,1.1
								c-1.1,0-2.1-0.3-3.1-0.4c-1-0.3-2-0.6-2.9-1c1.1,0,2.1,0,3.1,0.1l1.5-0.1c0.5,0,1,0,1.5-0.1c1.9-0.2,3.8-0.6,5.5-1.4
								c1.7-0.8,3.2-2,4.4-3.4C151.6,382.3,152.6,380.6,153.4,378.7z"/>
						</g>
						<g>
							<path class="st25" d="M159.9,365.2c-0.9,3.9-3.6,7.5-7.1,9.6c-1.8,1.2-3.8,1.8-5.8,2.2c-1,0.1-2.1,0.4-3.1,0.3
								c-1,0-2.1,0.1-3.1,0c-1-0.1-2.1-0.2-3.1-0.4l-1.5-0.3l-1.5-0.5c-1.9-0.8-3.8-1.9-5.3-3.5c-2.9-3.1-4.1-7.5-3.5-11.4
								c0.3,4,1.9,7.8,4.6,10.3c1.4,1.3,3,2.2,4.8,2.8l1.3,0.4l1.4,0.3c0.9,0.2,1.9,0.3,2.8,0.3c3.8,0.3,7.7-0.1,11.1-1.9
								C155.4,371.8,158.2,368.8,159.9,365.2z"/>
						</g>
					</g>
					<path class="st25" d="M104.4,445.5c0,0,34,21,68,11l-0.3-13c-5.2,5-11,7.7-17.2,7.7c-13.1,0-24.7-12.5-32-31.9
						c-5.4-1.2-10.9-2.6-16.4-4.2L104.4,445.5z"/>
					<path class="st25" d="M117.3,398.8c-1.6-8.6-2.4-17.9-2.4-27.6c0-7.4,0.5-14.6,1.5-21.4c-1.7-0.4-3.5-0.9-5.2-1.4l-3.3,47.8
						C111,397.1,114.2,398,117.3,398.8z"/>
					<path class="st27" d="M106.5,415.1c5.5,1.6,11,3,16.4,4.2c-2.3-6.2-4.2-13.1-5.6-20.5c-3.2-0.8-6.3-1.7-9.5-2.6L106.5,415.1z"
						/>
					<path class="st27" d="M111.1,348.4c1.8,0.5,3.5,0.9,5.2,1.4c0.7-4.9,1.6-9.6,2.7-14.1c-0.1,0.2-0.2,0.4-0.4,0.6
						c-0.3,0.4-0.6,0.9-0.8,1.3c-0.2,0.2-0.3,0.5-0.5,0.7c-0.2,0.3-0.4,0.6-0.7,0.9c-0.2,0.3-0.4,0.6-0.7,0.8
						c-0.2,0.2-0.3,0.4-0.5,0.6c-0.6,0.7-1.3,1.4-2,2.1c-0.3,0.3-0.7,0.6-1,0.9c-0.4,0.3-0.7,0.6-1.1,0.9L111.1,348.4z"/>
					<g>
						<path class="st28" d="M162.4,324.7c-0.9-3-2.1-5.8-3.4-8.5c-1.4-2.7-2.9-5.3-4.8-7.5c-1.9-2.3-4.1-4.3-6.6-6
							c-2.5-1.7-5.3-2.9-8.2-4c3.1,0.2,6.2,1.1,9,2.6c2.8,1.5,5.3,3.6,7.3,6.1c2,2.5,3.6,5.3,4.7,8.2
							C161.5,318.5,162.3,321.6,162.4,324.7z"/>
					</g>
				</g>
				<g>
					<path class="st28" d="M162.4,324.7c-0.9-3-2.1-5.8-3.4-8.5c-1.4-2.7-2.9-5.3-4.8-7.5c-1.9-2.3-4.1-4.3-6.6-6
						c-2.5-1.7-5.3-2.9-8.2-4c3.1,0.2,6.2,1.1,9,2.6c2.8,1.5,5.3,3.6,7.3,6.1c2,2.5,3.6,5.3,4.7,8.2
						C161.5,318.5,162.3,321.6,162.4,324.7z"/>
				</g>
				<g>
					<g>
						<path class="st23" d="M192.3,306.8c0,0,20.1-18.1,45.1-8.1c0,0-8,40,6,62l13,85c0,0-34,21-68,11L192.3,306.8z"/>
						<path class="st24" d="M191,356.7c20-1.2,36.4-4.5,47.3-7.4c-1.7-5.8-2.6-12-3-18c-10.9,2.6-26,5.4-43.8,6.4L191,356.7z"/>
						<path class="st24" d="M189.2,424.8c32.3-1.7,55.6-9.1,62.2-11.4l-2.7-17.8c-9.6,3-31,8.7-59,10.2L189.2,424.8z"/>
					</g>
					<g>
						<path class="st25" d="M220.7,398.6c-9.5,1.1-18.2-5.7-19.4-15.2c2.8,7.3,10.3,12.1,18.4,11.2c9.6-1.1,16.5-9.8,15.3-19.4
							l-1.2-10.3l0.5-0.1l1.7,14.4C237.2,388.7,230.3,397.4,220.7,398.6z"/>
						<path class="st12" d="M219.7,394.6L219.7,394.6c-9.6,1.1-18.3-5.7-19.4-15.3l-1.7-14.4l34.8-4.1l1.7,14.4
							C236.2,384.7,229.3,393.4,219.7,394.6z"/>
						<g>
							<path class="st26" d="M205.3,378.7c0.8,1.9,1.8,3.6,3,5.1c1.2,1.5,2.7,2.6,4.4,3.4c1.7,0.7,3.6,1.2,5.5,1.4
								c0.5,0.1,1,0,1.5,0.1l1.5,0.1c1,0,2-0.1,3.1-0.1c-1,0.4-1.9,0.7-2.9,1c-1,0.2-2.1,0.4-3.1,0.4c-2.1,0.1-4.3-0.2-6.3-1.1
								c-2-0.9-3.7-2.5-4.8-4.3C205.9,382.9,205.3,380.8,205.3,378.7z"/>
						</g>
						<g>
							<path class="st25" d="M198.8,365.2c1.7,3.6,4.5,6.6,7.9,8.3c3.4,1.8,7.3,2.2,11.1,1.9c1-0.1,1.9-0.1,2.8-0.3l1.4-0.3l1.3-0.4
								c1.8-0.6,3.5-1.5,4.8-2.8c2.8-2.5,4.3-6.4,4.6-10.3c0.5,4-0.6,8.3-3.5,11.4c-1.4,1.6-3.3,2.7-5.3,3.5l-1.5,0.5l-1.5,0.3
								c-1,0.3-2,0.3-3.1,0.4c-1,0.1-2.1,0.1-3.1,0c-1,0-2.1-0.2-3.1-0.3c-2-0.5-4.1-1.1-5.8-2.2
								C202.4,372.7,199.8,369.1,198.8,365.2z"/>
						</g>
					</g>
					<path class="st25" d="M239.5,398.3c3.7-1,6.8-1.9,9.2-2.6l-5.3-34.9c-1.2-2-2.3-4.1-3.2-6.3c1.1,6.4,1.7,13.2,1.7,20.3
						C241.9,382.9,241.1,390.9,239.5,398.3z"/>
					<path class="st25" d="M188.4,456.7c34,10,68-11,68-11l-4.9-32.3c-3,1-9.4,3.1-18.5,5.2c-8.5,18.5-22.1,30.6-37.6,30.6
						c-2.3,0-4.6-0.3-6.8-0.8L188.4,456.7z"/>
					<path class="st27" d="M232.9,418.6c9.1-2.1,15.5-4.2,18.5-5.2l-2.7-17.8c-2.4,0.8-5.5,1.7-9.2,2.6
						C238,405.6,235.8,412.5,232.9,418.6z"/>
					<g>
						<path class="st28" d="M198.4,324.7c0.1-3.1,0.9-6.2,2-9.1c1.1-2.9,2.7-5.7,4.7-8.2c2-2.4,4.5-4.6,7.3-6.1
							c2.8-1.5,5.9-2.4,9-2.6c-2.9,1-5.7,2.3-8.2,4c-2.5,1.7-4.7,3.7-6.6,6c-1.9,2.3-3.5,4.9-4.8,7.5
							C200.4,318.9,199.3,321.7,198.4,324.7z"/>
					</g>
				</g>
				<g>
					<path class="st29" d="M276.3,141.6c-5.2-3.1-10.8-5.9-16.9-8.4C265.2,135.6,270.8,138.4,276.3,141.6c0.9,0.6,1.9,1.2,2.8,1.8
						c0,0,0-0.1,0-0.1C278.2,142.7,277.3,142.1,276.3,141.6z"/>
					<path class="st29" d="M83.5,137c18.5-11.8,43.9-20.2,72.8-23.3c8.1-0.9,16.6-1.4,25.2-1.4c8.3,0,16.5,0.4,24.4,1.3
						c29.2,3,54.9,11.5,73.5,23.4c0.7-20.6-2.3-42.9-14.7-59.6c-11.2-15-27.2-23.6-44.6-28.3c-8.6-2.3-17.6-3.7-26.5-4.4
						c-16.8-1.3-34.4-0.3-50.8,4.2c-5,1.4-9.9,3-14.6,5.1c-16.5,7.1-29.7,20.2-37,36.8c-4.3,9.7-6.2,19.7-7.1,29.9
						C83.7,126.1,83.6,131.6,83.5,137z"/>
					<path class="st12" d="M157.7,120L157.7,120l3.9,18.3h38.9c0,0,1.7-7.6,4.1-18.3c0,0,0,0,0,0c-3.9-0.4-7.9-0.6-11.8-0.8
						c-1.2-0.1-2.5-0.1-3.7-0.1c-1.1,0-2.2-0.1-3.2-0.1c-1.4,0-2.8,0-4.3,0c-1.3,0-2.6,0-3.8,0c-2.5,0-4.9,0.1-7.4,0.2
						c-0.8,0-1.7,0.1-2.5,0.1c-0.2,0-0.4,0-0.6,0h-0.1c-0.8,0-1.6,0.1-2.4,0.2c-0.1,0-0.1,0-0.2,0c-0.3,0-0.6,0-0.9,0.1
						c-0.9,0.1-1.9,0.1-2.8,0.2C159.8,119.8,158.7,119.9,157.7,120z"/>
					<path class="st12" d="M142.9,49c0,0.6,0.1,1.3,0.2,1.9l13.3,62.8c8.1-0.9,16.6-1.4,25.2-1.4c8.3,0,16.5,0.4,24.4,1.3
						c5.7-25.9,13.9-62.7,13.9-62.8c0.1-0.6,0.2-1.2,0.3-1.8c0.7-8.4-6.5-16.2-13.3-20.2c-11.4-6.6-26.1-7.3-38.7-4.1
						c-6.1,1.6-12.2,4.2-17,8.4C147.1,36.7,142.7,43.2,142.9,49z"/>
					<path class="st12" d="M81.6,144.8c23.7,15.8,59.7,26,100,26c40.3,0,76.3-10.1,100-26c-0.8-0.5-1.5-1-2.3-1.5
						c-0.9-0.6-1.9-1.2-2.8-1.7c-5.2-3.1-10.8-5.9-16.9-8.4c-0.3-0.2-0.7-0.3-1-0.4c-15.6-6.4-33.9-10.8-53.8-12.8
						c-3.9-0.4-7.8-0.7-11.8-0.9c-1.2-0.1-2.5-0.1-3.7-0.1c-1.1,0-2.2-0.1-3.2-0.1c-1.4,0-2.8,0-4.3,0c-1.3,0-2.6,0-3.8,0
						c-2.5,0-4.9,0.1-7.4,0.2c-0.8,0-1.7,0.1-2.5,0.1c-0.2,0-0.4,0-0.6,0h-0.1c-0.9,0.1-1.7,0.1-2.6,0.2c-0.2,0-0.4,0-0.6,0
						c-2.1,0.2-4.2,0.3-6.3,0.6c-27.8,2.8-52.5,10.6-70.9,21.5C85,142.6,83.2,143.7,81.6,144.8z"/>
					<path class="st30" d="M156.4,113.7l1.3,6.3c1-0.1,2.1-0.2,3.1-0.3c0.9-0.1,1.9-0.2,2.8-0.2c0.3,0,0.6-0.1,0.9-0.1
						c0.1,0,0.1,0,0.2,0c0.8-0.1,1.6-0.1,2.4-0.2h0.1c0.2,0,0.4,0,0.6,0c0.8-0.1,1.7-0.1,2.5-0.1c2.4-0.1,4.9-0.2,7.4-0.2
						c1.3,0,2.6,0,3.8,0c1.4,0,2.8,0,4.3,0c1.1,0,2.2,0,3.2,0.1c1.2,0,2.5,0.1,3.7,0.1c3.9,0.2,7.9,0.4,11.8,0.8
						c0.4-2,0.9-4.1,1.4-6.3c-7.9-0.8-16.1-1.3-24.4-1.3C172.9,112.4,164.5,112.8,156.4,113.7z"/>
					<path class="st12" d="M163.6,119.5c0.1,0,0.2,0,0.3,0c0.2,0,0.4,0,0.6,0C164.2,119.5,163.9,119.5,163.6,119.5z"/>
					<path class="st31" d="M83.5,143.4c1-0.7,2.1-1.3,3.2-1.9c18.5-10.9,43.2-18.6,71-21.5l-1.3-6.3c-28.9,3.1-54.3,11.5-72.8,23.3
						c0,0.8,0,1.7,0,2.5C83.5,140.9,83.5,142.1,83.5,143.4z"/>
					<path class="st31" d="M204.6,119.9c18.4,1.8,36.8,5.8,53.8,12.8c0.3,0.1,0.7,0.3,1,0.4c6.1,2.5,11.8,5.3,16.9,8.4
						c1,0.6,1.9,1.1,2.8,1.7c0.1-1.2,0.2-2.4,0.2-3.6c0.1-0.9,0.1-1.8,0.1-2.7c-18.6-11.9-44.3-20.3-73.5-23.4
						C205.5,115.8,205,117.9,204.6,119.9z"/>
					<path class="st12" d="M86.7,141.5C86.7,141.5,86.7,141.5,86.7,141.5c23.7,14,57.4,22.8,94.9,22.8c37.4,0,71.1-8.7,94.7-22.7
						c0,0,0.1,0,0.1-0.1c-5.2-3.1-10.8-5.9-16.9-8.4c-0.3-0.2-0.7-0.3-1-0.4c-17-7.1-35.4-11.1-53.8-12.8c-3.9-0.4-7.9-0.6-11.8-0.8
						c-1.2-0.1-2.5-0.1-3.7-0.1c-1.1,0-2.2-0.1-3.2-0.1c-1.4,0-2.8,0-4.3,0c-1.3,0-2.6,0-3.8,0c-2.5,0-4.9,0.1-7.4,0.2
						c-0.8,0-1.7,0.1-2.5,0.1c-0.2,0-0.4,0-0.6,0h-0.1c-0.8,0-1.6,0.1-2.4,0.2c-0.1,0-0.1,0-0.2,0c-0.2,0-0.4,0-0.6,0
						c-0.1,0-0.2,0-0.3,0c-0.9,0.1-1.9,0.1-2.8,0.2c-1,0.1-2.1,0.2-3.1,0.3C129.8,122.9,105.2,130.6,86.7,141.5z"/>
					<path class="st12" d="M236.2,98.3l19.3-31l0,0c-3-2.7-6.2-5.1-9.6-7.2l0,0L236.2,98.3z"/>
					<path class="st12" d="M107.7,67.6l19.2,30.7l-9.7-38.2l-7.2,5.4l0,0C109.2,66.2,108.4,66.9,107.7,67.6z"/>
					<path class="st30" d="M143.2,45.8c6.1-8.7,13.8-14,22.1-14c19.7,0,35.7,29,35.7,64.9c0,5.7-0.4,11.2-1.1,16.4
						c2,0.2,4.1,0.3,6.1,0.6c5.7-25.9,13.9-62.7,13.9-62.8c0.1-0.6,0.2-1.2,0.3-1.8c0.7-8.4-6.5-16.2-13.3-20.2
						c-11.4-6.6-26.1-7.3-38.7-4.1c-6.1,1.6-12.2,4.2-17,8.4C147.8,36.1,144.3,40.9,143.2,45.8z"/>
					<path class="st32" d="M198.8,119.5c1.9,0.1,3.8,0.3,5.8,0.5c0.4-2,0.9-4.1,1.4-6.3c-2-0.2-4-0.4-6.1-0.6
						C199.6,115.2,199.2,117.4,198.8,119.5z"/>
					<path class="st31" d="M138.4,50.3c0.1,0.5,0.1,1,0.2,1.5l13.2,62.4c0.6-0.1,1.3-0.2,1.9-0.2c0.9-0.1,1.8-0.2,2.7-0.3
						l-13.3-62.8c-0.1-0.6-0.2-1.3-0.2-1.9C141.4,49.4,139.9,49.8,138.4,50.3z"/>
					<path class="st31" d="M206,113.6c0.9,0.1,1.8,0.2,2.7,0.3c0.6,0.1,1.3,0.2,1.9,0.2l9.2-41.7c3.2-14.5,4.2-19,4.5-20.6h0
						c0.1-0.5,0.2-0.9,0.2-1.4c-1.5-0.5-3-0.9-4.5-1.3c-0.1,0.6-0.1,1.2-0.3,1.8C219.9,50.9,211.7,87.8,206,113.6z"/>
					<path class="st33" d="M151.8,114.3l0.1,0.4l1.2,5.9c1.5-0.2,3-0.4,4.6-0.5l-1.3-6.3c-0.9,0.1-1.8,0.2-2.7,0.3
						C153,114.1,152.4,114.2,151.8,114.3z"/>
					<path class="st33" d="M204.6,119.9c1.5,0.2,3.1,0.3,4.6,0.5l1.4-6.3c-0.6-0.1-1.2-0.2-1.9-0.2c-0.9-0.1-1.8-0.2-2.7-0.3
						C205.5,115.8,205,117.9,204.6,119.9z"/>
					<g>
						<path class="st34" d="M155.8,59.9c1,3.5,1.8,6.9,2.8,10.4l2.6,10.5c0.8,3.5,2,6.9,2.5,10.5c0.5,3.6,0.9,7.1,0.8,10.8l-0.3,0.1
							c-1.5-3.3-2.6-6.8-3.5-10.3c-0.9-3.5-1.3-7.1-1.9-10.6l-1.7-10.6c-0.5-3.6-1.1-7.1-1.6-10.7L155.8,59.9z"/>
					</g>
					<path class="st30" d="M92.7,138.3c18.4-6.7,42.5-10.8,68.9-10.8c45.2,0,83.7,11.9,98.5,28.7c7.9-3.3,15.1-7.1,21.5-11.4
						c-0.8-0.5-1.5-1-2.3-1.5c-0.9-0.6-1.9-1.2-2.8-1.7c-5.2-3.1-10.8-5.9-16.9-8.4c-0.3-0.2-0.7-0.3-1-0.4
						c-15.6-6.4-33.9-10.8-53.8-12.8c-3.9-0.4-7.8-0.7-11.8-0.9c-1.2-0.1-2.5-0.1-3.7-0.1c-1.1,0-2.2-0.1-3.2-0.1
						c-1.4,0-2.8,0-4.3,0c-1.3,0-2.6,0-3.8,0c-2.5,0-4.9,0.1-7.4,0.2c-0.8,0-1.7,0.1-2.5,0.1c-0.2,0-0.4,0-0.6,0h-0.1
						c-0.9,0.1-1.7,0.1-2.6,0.2c-0.2,0-0.4,0-0.6,0c-2.1,0.2-4.2,0.3-6.3,0.6C132.8,122.6,110.4,129.1,92.7,138.3z"/>
					<g>
						<path class="st34" d="M215.1,156.3c-8.8,2-17.7,3.1-26.7,3.7c-9,0.6-18,0.6-27,0.1c-4.5-0.2-9-0.7-13.5-1.1l-6.7-1
							c-1.1-0.2-2.2-0.4-3.3-0.6l-3.3-0.8c-2.2-0.6-4.4-1.1-6.6-1.7c-2.2-0.7-4.3-1.4-6.4-2.1c-1.1-0.4-2.1-0.7-3.2-1.1l-3.1-1.3
							c-2.1-0.9-4.1-1.8-6.2-2.7l0.1-0.3c8.7,2.3,17.3,4.8,26,6.3l3.3,0.7c1.1,0.2,2.2,0.4,3.3,0.6l6.6,1.2
							c4.4,0.6,8.8,1.4,13.3,1.7c8.9,0.8,17.8,1.1,26.8,0.8c8.9-0.3,17.9-1,26.7-2.5L215.1,156.3z"/>
					</g>
				</g>
				<g>
					<path class="st2" d="M283.7,380.3l-18.4,3.7c0,0-3.7-14.3-8-13.3c-4.4,1-6,16-6,16s-18.4-4.5-20.6,0.1
						c-2.2,4.6,12.9,14.5,12.9,14.5s-15.3,7.6-14.3,11.9c1,4.4,18.4,4.5,18.4,4.5s1.5,14.8,5.6,14.8c4.1,0,9.2-12.2,9.2-12.2
						l26.9-4.7L283.7,380.3z"/>
					<path class="st11" d="M294.7,421.5l-3.7-44.9c-0.2-2.3-2.2-4-4.5-3.8l-13.9,1.1c-2.3,0.2-4,2.2-3.8,4.5l3.7,44.9
						c0.2,2.3,2.2,4,4.5,3.8l13.9-1.1C293.2,425.8,294.9,423.8,294.7,421.5z"/>
					<circle class="st12" cx="283.8" cy="415.3" r="4.5"/>
					<polygon class="st3" points="265.3,384 268.2,419.4 272.1,418.7 269.3,383.2 					"/>
				</g>
			</g>
		</g>
	</g>
</g>
</svg>
