<?xml version="1.0" encoding="utf-8"?>
<!-- Generator: Adobe Illustrator 22.1.0, SVG Export Plug-In . SVG Version: 6.00 Build 0)  -->
<svg version="1.1" xmlns="http://www.w3.org/2000/svg" xmlns:xlink="http://www.w3.org/1999/xlink" x="0px" y="0px"
	 viewBox="0 0 891.3 703.4" style="enable-background:new 0 0 891.3 703.4;" xml:space="preserve">
<style type="text/css">
	.st0{fill:#F2F2F2;}
	.st1{fill:#808080;}
	.st2{fill:#FFFFFF;}
	.st3{fill:#EFB789;}
	.st4{fill:#D88C52;}
	.st5{fill:#88D6F2;}
	.st6{opacity:0.5;fill:#D88C52;}
	.st7{fill:#EFD6BD;}
	.st8{fill:#EAC3A0;}
	.st9{fill:#4CBED8;}
	.st10{fill:#39B5C9;}
	.st11{opacity:0.67;fill:#78D2EA;}
	.st12{fill:#A0E6F9;}
	.st13{fill:#3EB3C6;}
	.st14{opacity:0.5;}
	.st15{opacity:0.67;fill:#4CBED8;}
	.st16{fill:#4D4D4D;}
	.st17{fill:#3D3D3D;}
	.st18{fill:#303030;}
	.st19{fill:#8E8E8E;}
	.st20{fill:#6B6C6D;}
	.st21{fill:#666666;}
	.st22{fill:#492107;}
	.st23{fill:#381705;}
	.st24{fill:#632A0D;}
	.st25{fill:#56250A;}
	.st26{fill:#8C3A15;}
	.st27{fill:#5B2C09;}
	.st28{fill:#A8A7A2;}
	.st29{fill:#9B5837;}
	.st30{fill:#86817B;}
	.st31{fill:#999893;}
	.st32{fill:#C6C5C1;}
	.st33{fill:#B77C55;}
	.st34{fill:#AA6A46;}
	.st35{fill:#CC9272;}
	.st36{fill:#F7AF77;}
	.st37{fill:#DB874D;}
	.st38{fill:#FEBA86;}
	.st39{fill:#ED985F;}
	.st40{fill:#CE773C;}
	.st41{fill:#2D2D2D;}
	.st42{fill:#FB0D1B;}
	.st43{fill:#DD051A;}
	.st44{fill:#686868;}
	.st45{fill:#565656;}
	.st46{fill:#989898;}
	.st47{fill:#848383;}
	.st48{fill:#FF6178;}
	.st49{fill:#C0C2C4;}
	.st50{fill:#CCCCCC;}
	.st51{fill:#D2E8FC;}
	.st52{fill:#AFD6F2;}
	.st53{fill:#C0E1F9;}
	.st54{fill:#AFAFAF;}
	.st55{opacity:0.12;fill:#161616;}
	.st56{fill:#FCEE21;}
</style>
<g id="manita">
	<g>
		<path class="st0" d="M756.6,624.2c0,0,34.9-3.5,25.3,41l-81.1,2.6C700.8,667.7,707.8,623.3,756.6,624.2z"/>
		<path class="st1" d="M783.5,654.2c-0.2,3.3-0.7,6.9-1.6,10.9l-81.1,2.6c0,0,0.9-6,4.5-13.5H783.5z"/>
		<path class="st1" d="M759.6,624.2c-2,0.5-3.9,1.3-5.7,2.4c-1.8,1-3.4,2.2-4.9,3.6c-0.7,0.7-1.3,1.5-2,2.3
			c-0.5,0.8-1.2,1.6-1.7,2.5c-0.6,0.8-1,1.7-1.6,2.6c-0.3,0.4-0.5,0.9-0.7,1.4c-0.2,0.5-0.5,0.9-0.8,1.4l-0.2,0
			c0.1-2.1,0.6-4.3,1.7-6.2c0.5-1,1.2-1.8,1.8-2.7c0.8-0.8,1.5-1.6,2.4-2.2c1.6-1.4,3.5-2.5,5.4-3.4c1.9-0.8,4-1.5,6.1-1.8
			L759.6,624.2z"/>
		<path class="st2" d="M764.9,629.8c1.9,0.2,3.7,0.9,5.4,2c1.7,1,3.1,2.5,4.2,4.2c1,1.7,1.7,3.7,1.8,5.6c0.1,1,0,2-0.1,2.9
			c-0.2,0.9-0.4,1.9-0.7,2.8c-0.1-1,0-1.9-0.1-2.8l-0.2-1.4c0-0.5-0.1-0.9-0.2-1.3c-0.3-1.8-1-3.4-1.9-4.9c-0.9-1.5-2.1-2.8-3.5-4
			C768.1,631.7,766.6,630.7,764.9,629.8z"/>
		<path class="st0" d="M605.7,627.2c0,0-34.9-3.5-25.3,41l81.1,2.6C661.5,670.8,654.6,626.3,605.7,627.2z"/>
		<path class="st1" d="M578.9,657.3c0.2,3.3,0.7,6.9,1.6,10.9l81.1,2.6c0,0-0.9-6-4.5-13.5H578.9z"/>
		<path class="st1" d="M602.9,627.1c2.1,0.3,4.1,0.9,6.1,1.8c1.9,0.9,3.8,2,5.4,3.4c0.9,0.7,1.6,1.5,2.4,2.2
			c0.7,0.8,1.4,1.7,1.8,2.7c1.1,1.9,1.6,4.1,1.7,6.2l-0.2,0c-0.3-0.5-0.5-0.9-0.8-1.4c-0.2-0.5-0.4-0.9-0.7-1.4
			c-0.5-0.9-1-1.8-1.6-2.6c-0.5-0.9-1.1-1.6-1.7-2.5c-0.6-0.8-1.2-1.6-2-2.3c-1.4-1.4-3.1-2.7-4.9-3.6c-1.8-1-3.7-1.8-5.7-2.4
			L602.9,627.1z"/>
		<path class="st2" d="M597.5,632.9c-1.7,0.9-3.2,1.9-4.6,3.1c-1.4,1.2-2.6,2.5-3.5,4c-0.9,1.5-1.6,3.1-1.9,4.9
			c-0.1,0.4-0.2,0.9-0.2,1.3l-0.2,1.4c-0.1,0.9,0,1.8-0.1,2.8c-0.3-0.9-0.6-1.8-0.7-2.8c-0.1-1-0.3-1.9-0.1-2.9
			c0.1-2,0.8-3.9,1.8-5.6c1.1-1.7,2.5-3.1,4.2-4.2C593.7,633.8,595.6,633.1,597.5,632.9z"/>
		<path class="st3" d="M605,458.5l-4.4,113.3l5.2,13.9l-5.2,13.9l5.2,14.8l-7.8,13.1c0,0,41,0.9,59.3,42.7l4.4,0.9l-8.7-67.1
			c0,0-0.9-12.2,3.5-20.9c4.4-8.7,12.2-67.1,11.3-78.5l16.6-0.9c0,0,6.5,66.7,17,79.8l-6.1,20.1l5.7,64.1h4.4c0,0,17.9-40.5,51.9-44
			l-7-10.5l7-16.6c0,0-11.3-13.1-10.5-18.3c0.9-5.2,3.5-14.8,3.5-14.8l-11.3-109L605,458.5z"/>
		<g>
			<path class="st4" d="M603.6,493.3c2.9-0.8,5.6-1.9,8.2-3.3c2.6-1.3,5.1-3,7.3-4.9c1.1-0.9,2.1-2,3.1-3c0.9-1.1,1.9-2.1,2.8-3.2
				c0.5-0.5,1-1.1,1.4-1.6c0.4-0.6,0.9-1.2,1.3-1.7c0.5-0.6,0.9-1.2,1.3-1.8c0.4-0.6,0.9-1.2,1.4-1.8l0.2,0.1
				c-0.6,3-1.8,5.9-3.7,8.4c-0.8,1.3-2,2.4-3.1,3.5c-1.2,1-2.4,2-3.7,2.8c-2.5,1.8-5.2,3.2-8,4.4l-2.1,0.8c-0.7,0.2-1.4,0.5-2.2,0.7
				c-1.5,0.4-2.9,0.7-4.4,0.9L603.6,493.3z"/>
			<path class="st4" d="M717.1,465.9c1.5,2.7,3.2,5.2,5.1,7.6c1.8,2.4,3.9,4.7,6,6.8l1.7,1.5l1.8,1.4l3.5,2.7
				c2.3,1.9,4.9,3.4,7.5,5.2l-0.1,0.2c-0.8-0.1-1.5-0.3-2.3-0.5c-0.4-0.1-0.8-0.2-1.2-0.3c-0.4-0.1-0.7-0.3-1.1-0.4
				c-0.7-0.3-1.5-0.6-2.2-0.9l-2.1-1.2c-2.7-1.7-5-4-7-6.3c-2.1-2.4-3.9-4.9-5.6-7.5c-1.6-2.7-3.1-5.4-4.2-8.3L717.1,465.9z"/>
			<path class="st4" d="M605.3,585.3c0.6-1.8,1.3-3.5,1.9-5.2c0.7-1.7,1.3-3.5,2-5.2c0.7-1.7,1.2-3.5,2.2-5.1c1-1.6,2-3.1,3.5-4.5
				l0.2,0.1c-0.1,2-0.7,3.8-1.3,5.5c-0.6,1.8-1.7,3.3-2.6,4.9c-0.9,1.6-1.8,3.2-2.8,4.8c-1,1.6-1.9,3.2-2.9,4.8L605.3,585.3z"/>
			<path class="st4" d="M597.5,627.1c4.5-0.3,9-1,13.3-2c4.4-0.9,8.7-2.3,12.8-3.9c4.1-1.7,7.9-4,11.6-6.4c1.8-1.2,3.6-2.5,5.3-3.9
				c1.7-1.4,3.2-3,4.8-4.7l0.2,0.1c-1,2.1-2.3,4-3.8,5.8c-1.5,1.8-3.2,3.4-5.1,4.8c-1.9,1.4-3.9,2.6-5.9,3.6c-2.1,1-4.2,1.8-6.4,2.6
				c-4.3,1.5-8.8,2.6-13.3,3.3c-4.5,0.7-9,1.1-13.6,0.9V627.1z"/>
			<path class="st4" d="M757.1,596.8c-3-0.2-6-0.8-8.9-1.5c-2.9-0.8-5.8-1.8-8.6-3c-1.4-0.6-2.8-1.3-4.1-2.1
				c-1.3-0.8-2.6-1.8-3.7-2.9c-1.1-1.1-2.1-2.4-2.9-3.7c-0.8-1.4-1.4-2.8-1.7-4.3l0.2-0.1c1,1.2,1.9,2.3,2.9,3.3c1,1,2.1,2,3.2,2.9
				c2.2,1.8,4.4,3.6,6.9,5.1c2.5,1.4,5.2,2.6,8,3.6c2.8,1,5.6,1.8,8.5,2.5L757.1,596.8z"/>
			<path class="st4" d="M756.1,624c-2.1,0.2-4.1,0.1-6.2-0.1c-2.1-0.2-4.1-0.5-6.1-1c-2-0.5-4.1-1-5.9-2.2c-1.8-1.2-3.4-2.7-4.4-4.7
				l0.2-0.2c2,0.9,3.7,1.8,5.4,2.5c1.8,0.7,3.4,1.8,5.3,2.5c1.9,0.7,3.8,1.3,5.7,1.8c1.9,0.5,3.9,0.9,6,1.1L756.1,624z"/>
			<path class="st4" d="M701.2,583.6l1.6-11c0.3-1.8,0.3-3.7,0.8-5.5c0.5-1.8,1-3.5,1.9-5.3l0.3,0c0.5,1.9,0.5,3.8,0.4,5.7
				c-0.1,1.9-0.8,3.7-1.3,5.5c-0.5,1.8-1,3.6-1.6,5.4c-0.6,1.8-1.2,3.5-1.8,5.3L701.2,583.6z"/>
		</g>
		<path class="st5" d="M706.1,269.3c0,0,31.4-5.2,56.7,66.3l32.3,91.5l-29.6,8.7l-38.8-107.7l13.1,79.3c0,0,8.7,10.5,1.7,25.3
			c0,0,11.3,18.3,1.7,22.7c-9.6,4.4-87.2,33.1-149.9,1.7l10.5-22.7l-7-7l20.5-117.3c0,0-25.3,7-25.3,29.6
			c0,19.2,31.4,25.3,31.4,25.3s0.9,30.5,0.9,30.5c0,0-16.7-3.1-17.7-3.4c-10.9-2.8-22-6.8-31.1-13.5c-23-17-21.5-47.6-6.1-69.2
			c13.3-18.6,41.4-39.5,64.5-41.2c1-0.1,9.5,0.9,10.5,0.9H706.1z"/>
		<path class="st6" d="M739.6,462.2c-4.4,1.7-11.7,4.2-21.1,6.7c-22,5.8-55.4,11.5-88.9,5.4c-8.4-1.5-16.8-3.7-25-6.9l0.2-5.2
			c54.7,20.7,116.4,1.7,134.2-5.2L739.6,462.2z"/>
		<path class="st7" d="M795.3,443.7l2.6,9.6c0,0,11.3,0,11.3,2.6s-7.8,7.8-7.8,7.8s5.2,11.3,2.6,13.9c-2.6,2.6-9.6-8.7-9.6-8.7
			s2.6,16.6-0.9,17.4s-9.6-14.8-9.6-14.8s-4.4,13.9-7.8,13.1s-1.7-15.7-1.7-15.7s-6.1,5.2-7.8,4.4s6.1-14.8,6.1-14.8L770,448
			L795.3,443.7z"/>
		<polygon class="st8" points="770.4,449.9 771,452.3 796,446.4 795.3,444 		"/>
		<path class="st9" d="M669.9,315.1c0,0,32.3-34,30.5-45.3c0,0,6.5-4.8,8.3,1.3s-5.2,34-24,57.1L669.9,315.1z"/>
		<path class="st9" d="M669.9,315.1c0,0-33.7-34-32-45.3c0,0-5.9-7.4-8.5,1.3c-1.8,6.1,8.7,34,27.5,57.1L669.9,315.1z"/>
		<path class="st10" d="M684.7,328.2l-9.7-8.6c10.7-3.1,20.9-13,25.8-26.8c3.1-8.4,3.7-17,2.3-24.5c2-0.7,4.5-0.7,5.5,2.7
			C710.4,277.2,703.5,305.1,684.7,328.2z"/>
		<path class="st10" d="M666.8,318.2l-9.9,9.9c-18.7-23.1-29.3-51-27.5-57.1c1.6-5.5,4.6-4.6,6.5-3.2c-1.5,9.1,0.4,19.7,6.1,29.5
			C648.1,308.1,657.4,315.4,666.8,318.2z"/>
		<path class="st9" d="M704.3,354.8L704.3,354.8c-8.2,0-14.8-6.6-14.8-14.8v-9.6h29.6v9.6C719.2,348.1,712.5,354.8,704.3,354.8z"/>
		<path class="st9" d="M669.6,316.4c0.5,6.4,0.7,12.9,0.9,19.3c0.1,6.4,0.2,12.9,0.1,19.3l-0.4,9.6c-0.1,3.2-0.3,6.4-0.3,9.6
			c-0.1,6.4,0.1,12.9,0.3,19.3c0.3,6.4,0.4,12.9,0.5,19.3c0.1,6.4,0.2,12.9,0.2,19.3c-0.1,12.9-0.4,25.7-1.3,38.6h-0.3
			c-0.8-12.9-1.2-25.7-1.3-38.6c0-6.4,0.1-12.9,0.2-19.3c0.1-6.4,0.3-12.9,0.5-19.3c0.2-6.4,0.4-12.9,0.3-19.3
			c0-3.2-0.2-6.4-0.3-9.6l-0.4-9.6c-0.2-6.4-0.1-12.9,0.1-19.3c0.1-6.4,0.4-12.9,0.9-19.3H669.6z"/>
		<g>
			<circle class="st9" cx="658.6" cy="336.9" r="3.5"/>
			<circle class="st9" cx="659" cy="360" r="3.5"/>
			<circle class="st9" cx="659.4" cy="383.1" r="3.5"/>
			<circle class="st9" cx="659.9" cy="406.2" r="3.5"/>
			<circle class="st9" cx="660.3" cy="429.3" r="3.5"/>
			<circle class="st9" cx="660.7" cy="452.4" r="3.5"/>
		</g>
		<path class="st9" d="M799.6,443.1l-31.1,7.3c-2.3,0.5-4.6-0.9-5.1-3.1l-2.3-9.9c-0.5-2.3,0.9-4.6,3.1-5.1l31.1-7.3
			c2.3-0.5,4.6,0.9,5.1,3.1l2.3,9.9C803.3,440.3,801.9,442.6,799.6,443.1z"/>
		<circle class="st5" cx="794.7" cy="435.9" r="3.5"/>
		<path class="st9" d="M776.7,374.8c-10.5-1.7-19.6-11.3-19.6-23.1c0-6.1,2.2-11.7,5.7-15.9L776.7,374.8z"/>
		<path class="st9" d="M603.7,434.5c1.9,1.3,4.1,2.3,6.3,3c2.2,0.8,4.5,1.3,6.8,1.7l1.7,0.2c0.6,0.1,1.2,0.1,1.7,0.1
			c1.2,0.1,2.3,0.2,3.5,0.3c0.6,0.1,1.2,0.1,1.7,0.2c0.6,0.1,1.2,0.1,1.7,0.2c1.2,0.1,2.3,0.2,3.5,0.4l0,0.2
			c-1.2,0.3-2.3,0.5-3.5,0.7c-1.2,0.1-2.4,0.2-3.6,0.2c-2.4,0-4.8-0.5-7.1-1c-2.3-0.6-4.6-1.3-6.8-2.2c-2.2-1-4.3-2.1-6.1-3.7
			L603.7,434.5z"/>
		<path class="st9" d="M741.5,432.8c-0.4,1.5-1,2.9-1.7,4.3c-0.8,1.4-1.6,2.7-2.7,3.9c-1,1.2-2.1,2.4-3.4,3.3
			c-1.3,0.9-2.9,1.4-4.4,1.7l-0.1-0.2c0.6-0.6,1.2-1,1.8-1.5c0.6-0.5,1.2-0.9,1.7-1.4c1.1-0.9,2.4-1.8,3.4-2.8
			c1.1-1,2.1-2.2,2.9-3.4c0.9-1.2,1.7-2.5,2.3-3.9L741.5,432.8z"/>
		<path class="st11" d="M719.2,339.9v3.5c0,8.2-6.6,14.8-14.8,14.8c-8.2,0-14.8-6.6-14.8-14.8v-3.5c0,8.2,6.6,14.8,14.8,14.8
			C712.5,354.8,719.2,348.1,719.2,339.9z"/>
		<path class="st12" d="M733.1,409.7c1.4,1.8,2,4.2,2.1,6.5c0.1,2.3-0.4,4.7-1.2,6.8c-0.2,0.5-0.4,1.1-0.7,1.6l-0.8,1.5
			c-0.2,0.5-0.6,1-0.9,1.5c-0.3,0.5-0.6,1-0.9,1.4c-0.7,0.9-1.4,1.8-2.2,2.6c-0.8,0.8-1.6,1.6-2.5,2.3c0.6-1,1.2-1.9,1.8-2.9
			c0.6-1,1.1-1.9,1.7-2.9c1-2,2.1-3.9,2.8-5.9c0.8-2,1.3-4.1,1.4-6.3C734,414,733.9,411.8,733.1,409.7z"/>
		<path class="st12" d="M716.1,281.1c3,0.9,5.7,2.4,8.3,4.2c0.6,0.5,1.3,0.9,1.9,1.4l1.8,1.5c1.1,1.1,2.3,2.2,3.3,3.4l0.8,0.9
			l0.7,0.9c0.5,0.6,1,1.2,1.4,1.9c0.8,1.3,1.7,2.6,2.4,4.1c1.5,2.8,2.4,5.8,3,8.8c-1.3-2.8-2.6-5.6-4.2-8.1c-1.6-2.6-3.4-5-5.4-7.3
			c-2-2.3-4.2-4.4-6.5-6.3C721.2,284.4,718.8,282.7,716.1,281.1z"/>
		<path class="st13" d="M717.5,346.8c-2.5,4.7-7.4,8-13.1,8c-8.2,0-14.8-6.6-14.8-14.8v-9.6h4c0.6,10,8.2,17.9,17.4,17.9
			C713.2,348.2,715.4,347.7,717.5,346.8z"/>
		<path class="st9" d="M571,347.4c0,7.1-2.9,13.4-7.7,17.9c-6.4-11.5-6.9-25.3-2.8-38.2C566.8,331.6,571,339,571,347.4z"/>
		<g class="st14">
			<path class="st15" d="M639.8,399.1v0.8c0,2-1.6,3.7-3.7,3.7l-11.3,0c-2,0-3.6-1.6-3.7-3.6c-2.6-0.5-16.4-3.1-17.3-3.3
				c-0.6-0.1-1.1-0.3-1.7-0.4l0.8-4.8c1.1,0.3,2.3,0.6,3.4,0.9c0,0,0.1,0,0.2,0c0,0,0.1,0,0.1,0c0.2,0.1,0.5,0.1,1,0.2
				c0.1,0,0.1,0,0.2,0c1.4,0.3,3.5,0.7,5.8,1.1c0.2,0,0.4,0.1,0.7,0.1c0.3,0.1,0.5,0.1,0.8,0.2c0.2,0,0.4,0.1,0.7,0.1
				c0.8,0.1,1.5,0.3,2.3,0.4c0.3,0.1,0.6,0.1,1,0.2c0.2,0,0.5,0.1,0.7,0.1c0.4,0.1,0.9,0.2,1.3,0.2c0.2,0,0.5,0.1,0.7,0.1
				c0.3,0.1,0.7,0.1,0.9,0.2c0,0,0,0,0.1,0c0.4,0.1,0.7,0.1,0.9,0.2c0,0,0,0,0,0c0.1,2,1.7,3.6,3.7,3.6l11.3,0
				C639.1,399.2,639.4,399.2,639.8,399.1z"/>
			<path class="st15" d="M661.7,406c-1.2,1.5-13-9.3-13-9.3l-6.4,0.1h-0.1c0.1-0.4,0.2-0.8,0.2-1.2v-3.1l2.6,0l6.4-0.1
				c0,0,5.3,4.9,9.2,7.6C661.4,402.1,662.5,405.1,661.7,406z"/>
			<path class="st15" d="M674.9,399.2c-1,1.9-6.4,0.9-10.6-0.3c-0.7-2.5-2.3-5.7-2.4-5.9c0.2,0.1,7.1,2.6,11.7,2.9
				C674.8,397.2,675.4,398.3,674.9,399.2z"/>
			<path class="st15" d="M680.6,382.7c0,2-4.9,3.5-9.4,4.6c-2.4-1.7-4.6-3-4.6-3s8.1-1.1,13-3C680.2,381.6,680.6,382.1,680.6,382.7z
				"/>
		</g>
		<path class="st9" d="M608.4,360.2c2.6,1.1,5.2,2.2,7.8,3.2c1.3,0.5,2.6,1,3.9,1.5c1.3,0.4,2.6,0.9,4,1.2c-2.8,0-5.6-0.8-8.3-1.9
			C613.3,363.2,610.7,361.9,608.4,360.2z"/>
		<g>
			<g>
				<path class="st16" d="M654.4,396.8h29.6c2.4,0,4.4-2,4.4-4.4v-48.8c0-2.4-2-4.4-4.4-4.4h-29.6c-2.4,0-4.4,2-4.4,4.4v48.8
					C650.1,394.9,652,396.8,654.4,396.8z"/>
				<path class="st17" d="M650.3,392.1c0.8,2.7,3.3,4.7,6.3,4.7h28c2.1,0,3.8-1.7,3.8-3.8v-49.9c0-2.1-1.7-3.8-3.8-3.8h-7.5
					c4.8,5.6,7.8,13.1,7.8,21.4c0,17.6-13.5,31.8-30.1,31.8C653.3,392.5,651.8,392.3,650.3,392.1z"/>
			</g>
			<circle class="st18" cx="669.2" cy="368.1" r="7.4"/>
			<circle class="st19" cx="656" cy="344.7" r="2.2"/>
			<circle class="st20" cx="656" cy="344.7" r="1.3"/>
			<path class="st21" d="M652.9,351.3c0.3,1.5,0.4,2.9,0.4,4.4c0,1.5-0.1,2.9-0.4,4.4c-0.3-1.5-0.4-2.9-0.4-4.4
				C652.5,354.2,652.6,352.7,652.9,351.3z"/>
		</g>
		<g>
			<path class="st7" d="M642,366.8l9.9-0.4c0,0,2.6-11,5.1-10.4c2.5,0.6,5.8,9.4,5.8,9.4s12.2-2.5,14.2,0.6
				c1.9,3.1-10.7,7.3-10.7,7.3s16.7,1.2,16.8,4.8s-16.6,6-16.6,6s12.6,7.4,10.9,10.6c-1.6,3.2-15.7-1.9-15.7-1.9s3.7,7.1,2.5,8.6
				c-1.2,1.5-13-9.3-13-9.3l-10.8,0.2L642,366.8z"/>
			<path class="st9" d="M642.3,363l0,32c0,2.3-1.9,4.2-4.2,4.2l-10.2,0c-2.3,0-4.2-1.9-4.2-4.2l0-32c0-2.3,1.9-4.2,4.2-4.2l10.2,0
				C640.4,358.8,642.3,360.7,642.3,363z"/>
			<circle class="st5" cx="634.2" cy="366.1" r="3.5"/>
			<polygon class="st8" points="642.4,392.4 644.9,392.4 644.9,366.7 642.3,366.8 			"/>
		</g>
		<path class="st7" d="M700.7,269.6c-0.2,0.1-0.3,0.2-0.3,0.2c1.7,10.8-27.6,42.3-30.3,45.1l-1.6-1.2l0,0
			c-6-6.2-28.9-30.5-30.6-41.8v-24.4h62.8V269.6z"/>
		<path class="st7" d="M763.3,204.4h-11.1v-54.1h22.1c6.6,0,11.9,5.3,11.9,11.9v19.3C786.2,194.1,775.9,204.4,763.3,204.4z"/>
		<path class="st7" d="M575.4,204.4h11.1v-54.1h-22.1c-6.6,0-11.9,5.3-11.9,11.9v19.3C552.5,194.1,562.8,204.4,575.4,204.4z"/>
		<path class="st7" d="M669.3,267.2L669.3,267.2c-55.1,0-99.8-44.7-99.8-99.8V87.6h199.6v79.8C769.2,222.5,724.5,267.2,669.3,267.2z
			"/>
		<path class="st8" d="M769.2,158.4v4.8c-5.3,1.2-10.8,1.6-16.3,1.3c-14.3-0.7-28.4-5.5-40.4-13.3c-5.1-3.3-9.7-7.1-14.2-11.1
			c-4.4,3.9-9.3,7.2-14.6,9.9c-13,6.5-26.7,7.3-40.9,6.6c-15.8-0.7-31.9-1.7-47-6.7c-8.7-2.9-16.9-7.2-24.3-12.6
			c-0.1-1.8-0.4-3.6-0.8-5.4c7.6,5.7,16,10.1,25.1,13.2c15.1,5,31.2,6,47,6.7c14.2,0.6,27.9-0.2,40.9-6.6c5.3-2.7,10.2-6,14.6-9.9
			c4.5,4,9.1,7.8,14.2,11.1c12,7.7,26.1,12.5,40.4,13.3C758.3,160,763.9,159.6,769.2,158.4z"/>
		<path class="st8" d="M570,155.1h-0.5v-4.8h0.5c0.8-2.5,1.3-5,1.5-7.6C571.8,146.9,571.3,151.1,570,155.1z"/>
		<path class="st8" d="M699.5,275.3c-0.9-0.1-1.7-0.2-2.6-0.3c-4-0.7-7.4-1.9-11.4-0.4c-3.4,1.2-6.8,2.7-10.3,3.7
			c-11.8,3.5-25.4,4.1-36.1-2.5c-0.6-1.4-1-2.7-1.1-3.8v-2.2c10.9,7.4,25.1,6.8,37.3,3.2c3.5-1,6.8-2.5,10.3-3.7
			c4-1.4,7.5-0.2,11.4,0.4c1.2,0.2,2.4,0.3,3.6,0.4C700.6,271.5,700.2,273.3,699.5,275.3z"/>
		<path class="st22" d="M779.6,147.7c-2,0.9-3.8,2.1-5.4,3.5c-0.6,0.1-1.1,0.6-1.1,1.1c-0.9,1-1.7,2.1-2.4,3.2c-1.1,1.9-2,4-2.4,6.2
			c-0.5,2.7,0.1,5-2.2,7c-3.8,3.3-8,5.3-11.1,9.5c-2.4,3.3-3.7,7-3.8,11c-9.5,0.9-17.8,5.4-25.6,10.8c-2.3,1.6-5,4.2-7.9,4.4
			c-2.9,0.2-6.3-0.9-9.1-1c-6.2-0.3-12.5,0.4-18.7,1.1c-0.3,0-0.6,0.2-0.8,0.4c-7.2,1.5-14.3-0.6-21.5-1.8
			c-6.4-1.1-12.1-0.8-18.2,0.9c-0.2-0.1-0.5-0.1-0.8,0c-4.9,1.3-9.9,3.3-14.9,4.1c-4.6,0.7-10.5-3.1-14.9-4.6
			c-9.1-3.2-18.5-5.6-28.1-7c-5.1-0.7-4.7-5.8-5.4-9.9c-0.8-4.4-1.8-8.8-3.2-13.1c-2.5-8.1-6.1-15.9-10.5-23.1
			c0-0.3-0.2-0.5-0.4-0.7c0-0.1-0.1-0.1-0.1-0.2c-0.1-0.2-0.3-0.3-0.4-0.4c-0.5-0.9-1-1.8-1.7-2.6c-0.3-0.3-0.6-0.5-1-0.5
			c-0.6-1-2.4-0.8-2.4,0.7c0,0.3,0,0.6,0,1c-0.5,0-0.9,0.3-1,0.9c-1.3,6.4-2.4,13.9-1.3,20.7c0.4,8.6,2.5,17.1,7.6,23.5
			c1.3,6,0.5,12.3,2,18.3c1.4,5.6,4,10.9,7.5,15.4c3.7,4.7,8.1,7.8,13,11.1c6,4,7.5,11.3,11.9,16.8c3.3,4.1,7.6,7.7,12.9,9
			c2.9,0.7,5.8,0.3,8.7,0.3c4.8,0.1,7,3,10.5,5.6c11,7.9,25.5,7.3,37.9,3.7c3.5-1,6.8-2.5,10.3-3.7c4-1.4,7.5-0.2,11.4,0.4
			c5.2,0.9,10.5,0.6,15.6-0.6c10.4-2.6,20-9.3,25.3-18.7c1.4-2.5,2.3-5.2,3.8-7.7c2.2-3.7,5.7-5.5,9.1-8.1c4.3-3.4,8-7.6,10.8-12.3
			c3.3-5.5,5.3-11.7,6-18c0.5-4.3-0.3-8.3,3.2-11.5c2.3-2.1,4.2-4.5,5.8-7.2c5.7-10,5.7-22.7-0.2-32.5c1.4-1.2,2.9-2.2,4.6-3
			C782.4,149.3,781.1,147,779.6,147.7z M645,239.8c-0.3,3.4-3.4,5.8-6.5,6.6c-6,1.5-11.8-1.9-17-4.5c-4-2-9-4.8-8.8-9.9
			c0.2-5.2,5.5-9.6,10.3-10.7c2.3-0.6,3.6,0.7,4.8,2.5c1.6,2.2,3.5,4.1,5.4,6c1.9,1.9,4.2,3.4,6.7,4.1
			C642.8,234.8,645.3,236.4,645,239.8z"/>
		<path class="st23" d="M689.4,210.9c0,4.3-3.5,7.8-7.8,7.8h-24.4c-4.3,0-7.8-3.5-7.8-7.8l0.4-1.5c1,3.2,4,5.5,7.5,5.5h24.4
			c3.5,0,6.5-2.3,7.5-5.5L689.4,210.9z"/>
		<path d="M622.7,230.1c1.2,1.5,2.5,2.9,3.9,4.2c1.4,1.2,2.9,2.3,4.5,3.2c1.6,0.9,3.3,1.6,5.1,2.1c0.9,0.3,1.8,0.4,2.8,0.6
			c0.9,0.2,1.9,0.2,2.9,0.4c-1,0.2-1.9,0.4-2.9,0.4c-1,0-2,0.1-3-0.1c-2-0.2-3.9-0.9-5.7-1.9c-0.9-0.5-1.7-1.1-2.5-1.7l-1.1-1
			c-0.4-0.3-0.7-0.7-1-1.1C624.3,233.7,623.3,232,622.7,230.1z"/>
		<path d="M617,235.8l2.5-2.6c0.8-0.9,1.5-1.7,2.2-2.6c0.7-0.9,1.3-1.8,1.8-2.8c0.5-1,0.9-2.1,1.3-3.3c0.3,1.2,0.3,2.5,0,3.8
			c-0.4,1.2-1,2.4-1.7,3.4c-0.8,1-1.7,1.9-2.7,2.6C619.4,234.9,618.2,235.5,617,235.8z"/>
		<path class="st7" d="M681.5,174.7l7.8,32.3c0,4.3-3.5,7.8-7.8,7.8h-24.4c-4.3,0-7.8-3.5-7.8-7.8l7.8-32.3"/>
		<path class="st8" d="M650,203.9c0.1-2.6,0.4-5,0.8-7.5c0.4-2.5,0.9-4.9,1.5-7.3c0.6-2.4,1.3-4.8,2-7.2c0.8-2.4,1.6-4.7,2.8-7
			c-0.1,2.6-0.4,5-0.8,7.5c-0.4,2.5-0.9,4.9-1.5,7.3c-0.6,2.4-1.3,4.8-2,7.2C652,199.2,651.2,201.6,650,203.9z"/>
		<path class="st8" d="M681.5,174.7c1.1,2.4,2,4.9,2.8,7.3c0.8,2.5,1.5,5,2.1,7.5c0.6,2.5,1.2,5.1,1.6,7.6c0.4,2.6,0.8,5.2,0.9,7.8
			c-1.1-2.4-2-4.9-2.8-7.3c-0.8-2.5-1.5-5-2.1-7.5c-0.6-2.5-1.1-5.1-1.6-7.6C682,180,681.6,177.4,681.5,174.7z"/>
		<path class="st8" d="M571.9,204.4c-1.2,0-2.4-0.2-3.5-0.4c-0.2-3.8-0.2-7.5-1.1-11.2c-5.1-6.4-7.2-14.9-7.6-23.5
			c-1-6.1-0.2-12.8,0.9-18.7c0.7-0.2,1.4-0.2,2.2-0.2h1.3c-1.1,6-2,12.8-1,19c0.4,8.6,2.5,17.1,7.6,23.5
			C571.7,196.6,571.7,200.5,571.9,204.4z"/>
		<path class="st8" d="M780,185.5c-1.6,2.7-3.5,5.1-5.8,7.2c-3.4,3.1-2.8,6.9-3.2,11.1c-1.2,0.3-2.3,0.5-3.5,0.5c0,0,0-0.1,0-0.1
			c0.5-4.3-0.3-8.3,3.2-11.5c2.3-2.1,4.2-4.5,5.8-7.2c5.7-10,5.7-22.7-0.2-32.5c0.9-0.8,1.8-1.5,2.9-2.1c0.7,0.2,1.4,0.6,2,0.9
			c-0.5,0.3-1,0.7-1.4,1.1C785.7,162.8,785.7,175.5,780,185.5z"/>
		<path class="st24" d="M585,199.7c-0.1-0.6-0.9-0.3-0.8,0.2c0.2,1.3,0.3,2.5,0.4,3.8c0,0.6,0.9,0.6,0.9,0
			C585.3,202.4,585.2,201,585,199.7z"/>
		<path class="st24" d="M575.3,180.8c0-0.6-0.9-0.6-0.9,0c0.1,1.2,0,2.4-0.3,3.6c-0.1,0.5,0.7,0.8,0.8,0.2
			C575.3,183.4,575.4,182.1,575.3,180.8z"/>
		<path class="st24" d="M567.8,167.8c-0.1,1.2-0.2,2.5-0.3,3.7c-0.1,0.6,0.8,0.6,0.9,0c0.1-1.2,0.2-2.5,0.3-3.7
			C568.7,167.2,567.9,167.2,567.8,167.8z"/>
		<path class="st24" d="M575.2,169c-0.1-0.5-1-0.3-0.8,0.2c0.3,1.2,0.4,2.4,0.4,3.6c0,0.6,0.9,0.6,0.9,0
			C575.7,171.5,575.5,170.2,575.2,169z"/>
		<path class="st24" d="M578.6,194.8c0-0.8,0-1.6,0-2.4c0-0.6-0.9-0.6-0.9,0c0,0.7,0,1.5,0,2.2c0,0.6-0.2,1.6,0.2,2
			c-0.4-0.4-1,0.2-0.6,0.6c0.5,0.6,1.2,0.1,1.3-0.5C578.7,196.1,578.6,195.4,578.6,194.8z"/>
		<path class="st24" d="M569.2,179.2c-0.2-0.5-1-0.3-0.8,0.2c0.2,0.7,0.3,1.4,0.2,2.1c-0.1,0.6,0.8,0.6,0.9,0
			C569.5,180.7,569.4,179.9,569.2,179.2z"/>
		<path class="st24" d="M581.4,182.8c0-0.6-0.9-0.6-0.9,0c0.1,1.5,0.2,2.9,0.2,4.4c0,0.6,0.9,0.6,0.9,0
			C581.5,185.7,581.5,184.3,581.4,182.8z"/>
		<path class="st24" d="M582.5,211.2c-0.1-0.5-1-0.3-0.8,0.2c0.4,1.6,0.5,3.2,0.3,4.9c-0.1,0.6,0.8,0.6,0.9,0
			C583,214.6,582.9,212.9,582.5,211.2z"/>
		<path class="st24" d="M577.2,206.2c-0.1-0.6-0.9-0.3-0.8,0.2c0.2,1.1,0.4,2.2,0.6,3.3c0.1,0.6,0.9,0.3,0.8-0.2
			C577.6,208.4,577.4,207.3,577.2,206.2z"/>
		<path class="st24" d="M596.9,209.9c-0.5-1.4-0.9-2.8-1-4.3c-0.1-0.5-0.9-0.6-0.9,0c0.2,1.5,0.5,3,1.1,4.5
			C596.2,210.7,597,210.5,596.9,209.9z"/>
		<path class="st24" d="M604.7,205.6c-0.2-0.5-1-0.3-0.8,0.2c0.3,1,0.4,1.9,0.4,2.9c0,0.6,0.8,0.6,0.9,0
			C605.1,207.7,605,206.6,604.7,205.6z"/>
		<path class="st24" d="M592,209.5c-0.1-0.5-1-0.3-0.8,0.2c0.3,1.6,0.3,3.2,0,4.8c-0.1,0.5,0.7,0.8,0.8,0.2
			C592.4,213,592.4,211.3,592,209.5z"/>
		<path class="st24" d="M601.3,216.8c-0.1-0.6-0.9-0.6-0.9,0c0,0.5,0.5,4.3-0.1,4.4c-0.6,0-0.6,0.9,0,0.9c0.7,0,1.1-0.6,1.1-1.3
			C601.7,219.5,601.4,218.1,601.3,216.8z"/>
		<path class="st24" d="M591.6,222c0-0.6-0.9-0.6-0.9,0c0.1,1.7,0.1,3.3-0.1,5c0,0.6,0.8,0.6,0.9,0
			C591.7,225.4,591.7,223.7,591.6,222z"/>
		<path class="st24" d="M585.8,224.5c-0.6-0.8-0.7-1.8-0.4-2.8c0.2-0.5-0.7-0.8-0.8-0.2c-0.4,1.2-0.2,2.4,0.5,3.4
			C585.4,225.4,586.1,225,585.8,224.5z"/>
		<path class="st24" d="M597.9,227.5c0-0.6-0.9-0.6-0.9,0c0.1,1.5,0.1,3.1,0.2,4.6c0,0.6,0.9,0.6,0.9,0
			C598,230.5,597.9,229,597.9,227.5z"/>
		<path class="st24" d="M606.7,225.1c-0.1-0.5-0.9-0.6-0.9,0l0.5,3.9c0.1,0.5,0.9,0.6,0.9,0L606.7,225.1z"/>
		<path class="st24" d="M611.1,216.2v3.1c0,0.6,0.9,0.6,0.9,0v-3.1C611.9,215.6,611.1,215.6,611.1,216.2z"/>
		<path class="st24" d="M618.8,214.3c-0.5-1.7-0.9-3.3-1.2-5c-0.1-0.6-0.9-0.3-0.8,0.2c0.3,1.7,0.7,3.4,1.2,5
			C618.1,215.1,619,214.9,618.8,214.3z"/>
		<path class="st24" d="M627,215.8c-0.2-0.8-0.3-1.6-0.5-2.4c-0.1-0.6-0.9-0.3-0.8,0.2c0.1,0.6,0.2,1.2,0.3,1.7
			c-0.1,0.1-0.1,0.1-0.1,0.2c-0.1,0.5,0.3,0.9,0.8,0.8C626.9,216.3,627,216.1,627,215.8z"/>
		<path class="st24" d="M612,204.8c-0.4,0.8-0.5,1.6-0.5,2.4c0,0.6,0.9,0.6,0.9,0c0-0.7,0.1-1.3,0.4-2
			C613,204.8,612.2,204.3,612,204.8z"/>
		<path class="st24" d="M635,211.4c-0.1-0.5-0.9-0.6-0.9,0l0.5,3.5c0.1,0.5,0.9,0.6,0.9,0L635,211.4z"/>
		<path class="st24" d="M633.3,222.4c-0.2-0.9-0.4-1.9-0.7-2.8c-0.1-0.5-1-0.3-0.8,0.2c0.2,0.9,0.4,1.9,0.7,2.8
			C632.5,223.1,633.4,222.9,633.3,222.4z"/>
		<path class="st24" d="M608,237.9v4.6c0,0.6,0.9,0.6,0.9,0v-4.6C608.9,237.4,608,237.4,608,237.9z"/>
		<path class="st24" d="M602.3,237.4c-0.1-0.6-0.9-0.3-0.8,0.2c0.2,1.3,0.1,2.5-0.3,3.7c-0.2,0.5,0.7,0.8,0.8,0.2
			C602.4,240.2,602.5,238.8,602.3,237.4z"/>
		<path class="st24" d="M595.1,233.8c0-0.6-0.9-0.6-0.9,0c0,1.4,0.1,2.7,0.4,4.1c0.1,0.6,0.9,0.3,0.8-0.2
			C595.3,236.4,595.1,235.1,595.1,233.8z"/>
		<path class="st24" d="M607.5,251.1c-0.5-1.5-0.7-2.9-0.6-4.5c0-0.6-0.8-0.6-0.9,0c-0.1,1.6,0.1,3.2,0.6,4.7
			C606.9,251.9,607.7,251.7,607.5,251.1z"/>
		<path class="st24" d="M616.1,249.5c0-0.6-0.9-0.6-0.9,0c0,1.4,0.1,2.9,0.4,4.3c0.1,0.6,0.9,0.3,0.8-0.2
			C616.2,252.2,616.1,250.9,616.1,249.5z"/>
		<path class="st24" d="M612.5,242.5l-0.3,2.8c-0.1,0.6,0.8,0.6,0.9,0l0.3-2.8C613.5,242,612.6,242,612.5,242.5z"/>
		<path class="st24" d="M611.5,253.7c-0.2-1.1-0.5-2.2-0.7-3.3c-0.1-0.5-1-0.3-0.8,0.2c0.2,1.1,0.5,2.2,0.7,3.3
			C610.8,254.5,611.6,254.3,611.5,253.7z"/>
		<path class="st24" d="M625.7,249.9c-0.1-0.6-0.9-0.6-0.9,0c0.2,1.4,0.3,2.8,0.5,4.1c0.1,0.6,0.9,0.6,0.9,0
			C626,252.7,625.8,251.3,625.7,249.9z"/>
		<path class="st24" d="M636.1,253.5c-0.1-0.6-0.9-0.3-0.8,0.2c0.2,1.7,0.4,3.3,0.7,5c0.1,0.6,0.9,0.3,0.8-0.2
			C636.5,256.9,636.3,255.2,636.1,253.5z"/>
		<path class="st24" d="M628.6,258.2c-0.2-0.5-1-0.1-0.8,0.4c0.4,0.7,0.5,1.5,0.3,2.3c-0.1,0.5,0.7,0.8,0.8,0.2
			C629.2,260.2,629.1,259.2,628.6,258.2z"/>
		<path class="st24" d="M622.6,258.2c-0.1,0.9-0.2,1.9-0.3,2.8c-0.1,0.6,0.8,0.6,0.9,0c0.1-0.9,0.2-1.9,0.3-2.8
			C623.5,257.7,622.6,257.7,622.6,258.2z"/>
		<path class="st24" d="M619.8,247.9c-0.1-0.2-0.1-0.4-0.2-0.7c-0.2-0.5-1-0.3-0.8,0.2c0.1,0.2,0.1,0.4,0.2,0.7
			C619.1,248.6,619.9,248.4,619.8,247.9z"/>
		<path class="st24" d="M645.7,249.4c-0.1-0.6-0.9-0.3-0.8,0.2c0.2,1.2,0.4,2.3,0.6,3.5c0.1,0.6,0.9,0.3,0.8-0.2
			C646.1,251.7,645.9,250.5,645.7,249.4z"/>
		<path class="st24" d="M633.1,250.6c-0.1-0.6-0.9-0.6-0.9,0c0.1,0.7,0.2,1.3,0.2,2c0.1,0.6,0.9,0.6,0.9,0
			C633.2,251.9,633.2,251.2,633.1,250.6z"/>
		<path class="st24" d="M642.1,255.5c-0.2-0.5-1-0.3-0.8,0.2c0.5,1.3,0.6,2.6,0.3,3.9c-0.1,0.5,0.7,0.8,0.8,0.2
			C642.7,258.4,642.7,256.9,642.1,255.5z"/>
		<path class="st24" d="M621.2,250.9c0.1-0.5-0.8-0.8-0.8-0.2c-0.2,1.5-0.3,3-0.2,4.5c0,0.6,0.9,0.6,0.9,0
			C621,253.7,621,252.3,621.2,250.9z"/>
		<path class="st24" d="M646.3,230.9c-0.1-0.6-0.9-0.3-0.8,0.2c0.2,1.3,0.4,2.6,0.7,3.9c0.1,0.6,0.9,0.3,0.8-0.2
			C646.7,233.5,646.5,232.2,646.3,230.9z"/>
		<path class="st24" d="M640,226.4c0-0.6-0.9-0.6-0.9,0c0.1,1.5,0.2,3,0.3,4.6c0,0.6,0.9,0.6,0.9,0
			C640.2,229.4,640.1,227.9,640,226.4z"/>
		<path class="st24" d="M643.5,222c0-0.6-0.9-0.6-0.9,0c0.1,1.1,0.1,2.2,0.2,3.3c0,0.6,0.9,0.6,0.9,0
			C643.7,224.2,643.6,223.1,643.5,222z"/>
		<path class="st24" d="M638.1,215.3c0,0.7-0.1,1.4-0.2,2.1c0,0.2-0.1,1-0.2,1.4c0,0,0,0-0.1,0c-0.2,0-0.3,0.2-0.3,0.4
			c0,0.2,0,0.3,0.2,0.5c0.1,0.1,0.4,0.2,0.5,0.1c0.5-0.4,0.5-1.2,0.6-1.8c0.1-0.9,0.2-1.7,0.3-2.6
			C639,214.7,638.1,214.7,638.1,215.3z"/>
		<path class="st24" d="M644.7,211.4c-0.5-1.1-0.8-2.2-1-3.4c-0.1-0.6-0.9-0.3-0.8,0.2c0.2,1.3,0.6,2.4,1.1,3.6
			C644.2,212.3,644.9,211.9,644.7,211.4z"/>
		<path class="st24" d="M650.6,219c-0.1-0.6-0.9-0.6-0.9,0c0.2,1.7,0.3,3.5,0.5,5.2c0.1,0.6,0.9,0.6,0.9,0
			C650.9,222.5,650.7,220.7,650.6,219z"/>
		<path class="st24" d="M659.1,220.1c-0.2-0.5-1-0.1-0.8,0.4c0.5,1.1,0.7,2.3,0.6,3.5c0,0.6,0.8,0.6,0.9,0
			C660,222.6,659.7,221.3,659.1,220.1z"/>
		<path class="st24" d="M655.3,226.7c-0.1-0.6-0.9-0.3-0.8,0.2c0.3,1.6,0.4,3.2,0.4,4.9c0,0.6,0.9,0.6,0.9,0
			C655.7,230.1,655.6,228.4,655.3,226.7z"/>
		<path class="st24" d="M650.5,230.1v1.3c0,0.6,0.9,0.6,0.9,0v-1.3C651.4,229.5,650.5,229.5,650.5,230.1z"/>
		<path class="st24" d="M657.9,237.7c0-0.6-0.9-0.6-0.9,0c0.1,1.3,0.1,2.5-0.1,3.8c-0.1,0.5,0.7,0.8,0.8,0.2
			C657.9,240.4,658,239.1,657.9,237.7z"/>
		<path class="st24" d="M652.7,240.1c-0.1-0.6-0.9-0.6-0.9,0c0.2,1.5,0.3,3,0.5,4.6c0.1,0.6,0.9,0.6,0.9,0
			C653,243.2,652.8,241.6,652.7,240.1z"/>
		<path class="st24" d="M647.9,241.3c0.1-0.5-0.8-0.8-0.8-0.2c-0.2,1.6-0.3,3.1-0.2,4.7c0,0.6,0.9,0.6,0.9,0
			C647.6,244.3,647.6,242.8,647.9,241.3z"/>
		<path class="st24" d="M653.6,250.8c0-0.6-0.9-0.6-0.9,0c0.1,1.4,0.2,2.8,0.3,4.2c0.1,0.6,0.9,0.6,0.9,0
			C653.7,253.6,653.6,252.2,653.6,250.8z"/>
		<path class="st24" d="M649.6,257.1c-0.1,1.2-0.2,2.5-0.3,3.7c0,0.6,0.8,0.6,0.9,0c0.1-1.2,0.2-2.5,0.3-3.7
			C650.5,256.6,649.6,256.6,649.6,257.1z"/>
		<path class="st24" d="M645.9,260c-0.1,1.2-0.2,2.5-0.3,3.7c0,0.6,0.8,0.6,0.9,0c0.1-1.2,0.2-2.5,0.3-3.7
			C646.8,259.4,645.9,259.4,645.9,260z"/>
		<path class="st24" d="M641.1,267c0-0.7,0-1.5,0-2.2c0-0.6-0.9-0.6-0.9,0c0,0.5,0,1.1,0,1.6c0,0.3,0,0.5,0,0.8c0,0.1,0,0.2,0,0.3
			c0,0,0,0.1,0,0.1c-0.2,0-0.3,0.1-0.4,0.3c-0.2,0.7,0.7,1.1,1.1,0.5C641.3,268,641.1,267.4,641.1,267z"/>
		<path class="st24" d="M634.4,261.6c-0.4,1-0.5,2-0.3,3.1c0.1,0.6,0.9,0.3,0.8-0.2c-0.2-0.9-0.1-1.8,0.3-2.6
			C635.5,261.3,634.6,261.1,634.4,261.6z"/>
		<path class="st24" d="M605.8,213.3c0,1.3-0.1,2.6-0.1,3.9c0,0.6,0.9,0.6,0.9,0c0-1.3,0.1-2.6,0.1-3.9
			C606.7,212.8,605.8,212.8,605.8,213.3z"/>
		<path class="st24" d="M669.7,220.9c0-0.6-0.9-0.6-0.9,0c0.1,1.2,0,2.5-0.1,3.7c0,0.6,0.8,0.6,0.9,0
			C669.7,223.4,669.7,222.2,669.7,220.9z"/>
		<path class="st24" d="M665.3,225c-0.1-0.5-1-0.3-0.8,0.2c0.3,1.5,0.4,3.1,0.4,4.7c0,0.6,0.8,0.6,0.9,0
			C665.8,228.2,665.6,226.6,665.3,225z"/>
		<path class="st24" d="M660.1,229v3.7c0,0.6,0.9,0.6,0.9,0V229C661,228.4,660.1,228.4,660.1,229z"/>
		<path class="st24" d="M665.5,237.7c0-0.6-0.9-0.6-0.9,0c-0.1,1.7,0,3.3,0.2,5c0.1,0.5,0.9,0.6,0.9,0
			C665.6,241.1,665.5,239.4,665.5,237.7z"/>
		<path class="st24" d="M672.4,233.1c0,1.7,0,3.3-0.1,5c0,0.6,0.8,0.6,0.9,0c0.1-1.7,0.2-3.3,0.1-5
			C673.3,232.6,672.4,232.6,672.4,233.1z"/>
		<path class="st24" d="M678.2,227.9c0-0.6-0.9-0.6-0.9,0c0.1,1.4,0.2,2.8,0.4,4.1c0,0.6,0.9,0.6,0.9,0
			C678.4,230.7,678.3,229.3,678.2,227.9z"/>
		<path class="st24" d="M676.7,221.2c0-0.6-0.9-0.6-0.9,0c0.1,1.2,0.2,2.3,0.2,3.5c0,0.6,0.9,0.6,0.9,0
			C676.9,223.5,676.8,222.3,676.7,221.2z"/>
		<path class="st24" d="M686.6,225.4c-0.4-1.8-0.8-3.5-1.2-5.3c-0.1-0.5-1-0.3-0.8,0.2c0.4,1.8,0.8,3.5,1.2,5.3
			C685.9,226.2,686.7,226,686.6,225.4z"/>
		<path class="st24" d="M693.2,221.6c0-0.2-0.2-0.3-0.4-0.3c0.2-0.4-0.1-1.2-0.1-1.6c-0.1-0.6-0.1-1.2-0.2-1.8
			c-0.1-0.6-0.9-0.6-0.9,0c0.1,0.8,0.2,1.6,0.2,2.4c0,0.5,0,1.2,0.2,1.7C692.6,222.6,693.4,222.3,693.2,221.6z"/>
		<path class="st24" d="M694.1,211.4c-0.1-0.6-0.9-0.6-0.9,0c0.1,1,0.2,2,0.3,3.1c0.1,0.6,0.9,0.6,0.9,0
			C694.3,213.4,694.2,212.4,694.1,211.4z"/>
		<path class="st24" d="M700.6,208.1c-0.1-0.5-0.9-0.6-0.9,0c0.2,1.6,0.4,3.2,0.6,4.8c0.1,0.5,0.9,0.6,0.9,0
			C701,211.3,700.8,209.7,700.6,208.1z"/>
		<path class="st24" d="M700.4,219c0-0.6-0.9-0.6-0.9,0c0,1.1,0.1,2.3,0.3,3.4c0.1,0.6,0.9,0.3,0.8-0.2
			C700.5,221.1,700.4,220,700.4,219z"/>
		<path class="st24" d="M696.7,222.5c-0.1-0.6-0.9-0.6-0.9,0c0.2,1.9,0,3.8-0.6,5.6c-0.2,0.5,0.7,0.8,0.8,0.2
			C696.7,226.4,696.9,224.5,696.7,222.5z"/>
		<path class="st24" d="M689.3,226.2c0-0.6-0.8-0.6-0.9,0c-0.1,1.4,0,2.8,0.3,4.3c0.1,0.6,0.9,0.3,0.8-0.2
			C689.3,228.9,689.2,227.5,689.3,226.2z"/>
		<path class="st24" d="M682.8,230.5c-0.1-0.5-0.9-0.6-0.9,0c0.2,1.7,0.3,3.3,0.2,5c0,0.6,0.8,0.6,0.9,0
			C683.1,233.9,683,232.2,682.8,230.5z"/>
		<path class="st24" d="M677.6,239.2c-0.1,0.7-0.1,1.3-0.2,2c0,0.1-0.1,1.5-0.1,1.7c-0.2,0-0.4,0.2-0.3,0.5c0,0,0,0.1,0,0.1
			c0.1,0.2,0.3,0.4,0.5,0.3c0.7-0.1,0.6-0.9,0.7-1.4c0.1-1.1,0.2-2.1,0.3-3.2C678.5,238.7,677.7,238.7,677.6,239.2z"/>
		<path class="st24" d="M667.6,244c0,0.7-0.1,1.5-0.1,2.2c0,0.3,0.1,1.6-0.1,2.1c-0.3,0-0.6,0.4-0.3,0.7c0,0,0.1,0.1,0.1,0.1
			c0.1,0.1,0.3,0.2,0.5,0.1c0.7-0.3,0.6-1.1,0.6-1.7c0-1.2,0.1-2.3,0.1-3.5C668.5,243.5,667.7,243.5,667.6,244z"/>
		<path class="st24" d="M661.3,249.1c0-0.6-0.9-0.6-0.9,0c0.1,1,0,2-0.4,3c-0.2,0.5,0.6,0.8,0.8,0.2
			C661.3,251.3,661.4,250.2,661.3,249.1z"/>
		<path class="st24" d="M657.7,264.5c0-0.6-0.9-0.6-0.9,0c0.1,1.1,0,2.3-0.1,3.4c-0.1,0.5,0.7,0.8,0.8,0.2l0.1-0.3
			c0-0.1,0-0.1,0-0.2C657.7,266.7,657.7,265.6,657.7,264.5z"/>
		<path class="st24" d="M662.8,258.7c-0.1-0.6-0.9-0.3-0.8,0.2c0.2,1.3,0.2,2.7,0.1,4c0,0.6,0.8,0.6,0.9,0
			C663,261.6,663,260.2,662.8,258.7z"/>
		<path class="st24" d="M672.9,258.7c-0.2-1.4-0.2-2.8-0.2-4.2c0-0.6-0.8-0.6-0.9,0c-0.1,1.7,0,3.3,0.2,5c0.1,0.4,0.6,0.4,0.8,0.1
			c0.1-0.1,0.1-0.2,0.2-0.3C673.3,259,673.1,258.8,672.9,258.7z"/>
		<path class="st24" d="M681.6,252c-0.3-1.2-0.4-2.4-0.5-3.6c0-0.6-0.9-0.6-0.9,0c0.1,1.3,0.3,2.6,0.5,3.8
			C680.9,252.8,681.7,252.6,681.6,252z"/>
		<path class="st24" d="M674.7,245.8c0-0.6-0.9-0.6-0.9,0c0.1,1.2,0.2,2.5,0.3,3.7c0,0.6,0.9,0.6,0.9,0
			C674.8,248.3,674.7,247,674.7,245.8z"/>
		<path class="st24" d="M663.4,250c-0.2,1.1-0.3,2.2-0.3,3.4c0,0.6,0.9,0.6,0.9,0c-0.1-1.1,0-2.1,0.2-3.1
			C664.4,249.7,663.5,249.5,663.4,250z"/>
		<path class="st24" d="M656.7,259.7c0.1-1.1,0.2-2.1,0.3-3.2c0-0.6-0.8-0.6-0.9,0c-0.1,1.3-0.2,2.5-0.3,3.8c0,0.4,0.6,0.6,0.8,0.2
			c0.1-0.1,0.1-0.2,0.2-0.3C656.9,260,656.8,259.8,656.7,259.7z"/>
		<path class="st24" d="M650.8,264.9c-0.4,1.4-0.6,2.8-0.4,4.3c0.1,0.5,0.9,0.6,0.9,0c-0.2-1.4-0.1-2.7,0.3-4
			C651.8,264.6,650.9,264.3,650.8,264.9z"/>
		<path class="st24" d="M663.8,270C663.8,270,663.7,270.1,663.8,270c-0.2-1.2-0.3-2.5-0.4-3.8c0-0.6-0.9-0.6-0.9,0
			c0.1,1.5,0.2,2.9,0.4,4.3c0,0.2,0.2,0.4,0.4,0.4c0.4,0,0.6-0.1,0.9-0.3C664.7,270.5,664.2,269.7,663.8,270z"/>
		<path class="st24" d="M673.7,268.2c0.2-0.4,0.1-1.5,0.2-1.8c0-0.7,0.1-1.4,0.1-2.1c0-0.6-0.8-0.6-0.9,0c0,0.8-0.1,1.5-0.1,2.3
			c0,0.6-0.2,1.4-0.1,2c0.2,0.7,1,0.8,1.3,0.1C674.3,268.4,674,268.2,673.7,268.2z"/>
		<path class="st24" d="M683,260.9c-0.1-0.5-1-0.3-0.8,0.2c0.2,1,0.3,2.1,0.2,3.2c0,0.6,0.8,0.6,0.9,0
			C683.3,263.2,683.2,262.1,683,260.9z"/>
		<path class="st24" d="M669.5,263.6c-0.4-1-0.6-2.1-0.6-3.2c0-0.6-0.9-0.6-0.9,0c0,1.2,0.2,2.3,0.6,3.5
			C668.8,264.4,669.7,264.1,669.5,263.6z"/>
		<path class="st24" d="M679.1,259.5C679.1,259.5,679.1,259.5,679.1,259.5c-0.1-0.1-0.2-0.2-0.3-0.2c0-0.3,0-0.6-0.1-0.7
			c0-0.3-0.1-0.7-0.1-1c-0.1-0.7-0.2-1.4-0.2-2c-0.1-0.6-0.9-0.6-0.9,0c0.1,1,0.2,1.9,0.3,2.9c0.1,0.6,0,1.4,0.5,1.8
			c0.1,0.1,0.3,0.2,0.4,0.1c0.3-0.1,0.4-0.2,0.5-0.5C679.3,259.8,679.2,259.6,679.1,259.5z"/>
		<path class="st24" d="M691.3,253c-0.1-0.6-0.9-0.6-0.9,0c0.1,1.4,0.3,2.8,0.4,4.1c0.1,0.6,0.9,0.6,0.9,0
			C691.6,255.7,691.4,254.4,691.3,253z"/>
		<path class="st24" d="M685.4,248.6v3.7c0,0.6,0.9,0.6,0.9,0v-3.7C686.2,248.1,685.4,248.1,685.4,248.6z"/>
		<path class="st24" d="M694.3,240.4c-0.1-0.6-0.9-0.3-0.8,0.2c0.3,1.6,0.3,3.3,0.1,4.9c-0.1,0.6,0.8,0.6,0.9,0
			C694.6,243.9,694.6,242.2,694.3,240.4z"/>
		<path class="st24" d="M686.3,239.8c-0.3,1.3-0.4,2.5-0.2,3.8c0.1,0.5,0.9,0.6,0.9,0c-0.2-1.2-0.1-2.4,0.2-3.6
			C687.3,239.5,686.4,239.3,686.3,239.8z"/>
		<path class="st24" d="M691,235.7c0.1-0.5-0.8-0.8-0.8-0.2c-0.2,1.4-0.3,2.8-0.2,4.3c0,0.6,0.9,0.6,0.9,0
			C690.7,238.3,690.8,237,691,235.7z"/>
		<path class="st24" d="M698.6,237.2c-0.4-1.4-0.6-2.8-0.6-4.3c0-0.6-0.9-0.6-0.9,0c0,1.5,0.2,3,0.6,4.5
			C697.9,238,698.8,237.7,698.6,237.2z"/>
		<path class="st24" d="M705.7,228.6c0-0.6-0.8-0.6-0.9,0c-0.1,1.6,0,3.1,0.2,4.7c0.1,0.6,0.9,0.3,0.8-0.2
			C705.6,231.6,705.6,230.1,705.7,228.6z"/>
		<path class="st24" d="M701.4,226.2c-0.1,0.9-0.1,1.7-0.2,2.6c0,0.6,0.8,0.6,0.9,0c0.1-0.9,0.1-1.7,0.2-2.6
			C702.4,225.6,701.5,225.6,701.4,226.2z"/>
		<path class="st24" d="M707.4,216.5c-0.2,1.3-0.4,2.6-0.5,3.9c-0.1,0.5,0.8,0.8,0.8,0.2c0.2-1.3,0.4-2.6,0.5-3.9
			C708.3,216.2,707.5,215.9,707.4,216.5z"/>
		<path class="st24" d="M712,209.2c0-0.6-0.8-0.6-0.9,0c-0.1,1.3,0,2.6,0.2,3.8c0.1,0.6,0.9,0.3,0.8-0.2
			C711.9,211.6,711.9,210.4,712,209.2z"/>
		<path class="st24" d="M718.4,210.1c0-0.6-0.9-0.6-0.9,0c0.1,1.5,0.2,3.1,0.3,4.6c0,0.6,0.9,0.6,0.9,0
			C718.6,213.1,718.5,211.6,718.4,210.1z"/>
		<path class="st24" d="M715.5,217.2c0-0.6-0.9-0.6-0.9,0l0.3,3.9c0,0.6,0.9,0.6,0.9,0L715.5,217.2z"/>
		<path class="st24" d="M710.9,222.3c0-0.6-0.9-0.6-0.9,0c0.1,1.3,0.1,2.6-0.1,3.9c-0.1,0.6,0.8,0.6,0.9,0
			C710.9,224.9,710.9,223.6,710.9,222.3z"/>
		<path class="st24" d="M710.4,233.4v4.1c0,0.6,0.9,0.6,0.9,0v-4.1C711.3,232.8,710.4,232.8,710.4,233.4z"/>
		<path class="st24" d="M715.6,229.7c0-0.6-0.9-0.6-0.9,0c0.1,1.5,0.2,2.9,0.3,4.4c0,0.6,0.9,0.6,0.9,0
			C715.8,232.6,715.7,231.1,715.6,229.7z"/>
		<path class="st24" d="M721.6,230.1c-0.1-0.3-0.1-1.7-0.1-1.9c0-0.7-0.1-1.4-0.1-2c0-0.6-0.9-0.6-0.9,0c0.1,1.1,0.1,2.3,0.2,3.4
			c0,0.6,0,1.2,0.7,1.5c0.2,0.1,0.4-0.1,0.5-0.2c0,0,0-0.1,0.1-0.1C722.2,230.4,721.9,230.1,721.6,230.1z"/>
		<path class="st24" d="M725.3,219v4.4c0,0.6,0.9,0.6,0.9,0V219C726.1,218.4,725.3,218.4,725.3,219z"/>
		<path class="st24" d="M722.6,213.6c-0.2-1-0.3-1.9-0.2-2.9c0-0.6-0.8-0.6-0.9,0c-0.1,1.1,0,2.1,0.2,3.2
			C721.9,214.4,722.8,214.2,722.6,213.6z"/>
		<path class="st24" d="M726.6,207.2c0-0.6-0.8-0.6-0.9,0c-0.1,1-0.1,2,0.1,3.1c0.1,0.5,0.9,0.6,0.9,0
			C726.5,209.3,726.5,208.2,726.6,207.2z"/>
		<path class="st24" d="M734.2,209.6c0-0.8,0-1.6,0-2.4c0-0.6-0.9-0.6-0.9,0c0,0.6,0,1.3,0,1.9c0,0.5-0.1,1.3,0,1.8
			c-0.1-0.5-1-0.3-0.8,0.2c0.2,0.8,1.3,0.8,1.6,0.1C734.3,210.8,734.2,210.1,734.2,209.6z"/>
		<path class="st24" d="M707.1,209.4c-0.4-0.8-0.5-1.6-0.3-2.5c0.1-0.5-0.7-0.8-0.8-0.2c-0.2,1.1-0.1,2.2,0.4,3.2
			C706.6,210.4,707.3,209.9,707.1,209.4z"/>
		<path class="st24" d="M705.9,241.4v2.6c0,0.6,0.9,0.6,0.9,0v-2.6C706.7,240.9,705.9,240.9,705.9,241.4z"/>
		<path class="st24" d="M701.1,244.5v3.7c0,0.6,0.9,0.6,0.9,0v-3.7C701.9,243.9,701.1,243.9,701.1,244.5z"/>
		<path class="st24" d="M696.7,253.1c-0.3,1.1-0.3,2.2-0.1,3.3c0.1,0.6,0.9,0.3,0.8-0.2c-0.2-1-0.1-1.9,0.1-2.8
			C697.7,252.8,696.9,252.6,696.7,253.1z"/>
		<path class="st24" d="M706.1,251.7v2.4c0,0.6,0.9,0.6,0.9,0v-2.4C707,251.1,706.1,251.1,706.1,251.7z"/>
		<path class="st24" d="M701.7,257.8v3.5c0,0.6,0.9,0.6,0.9,0v-3.5C702.6,257.2,701.7,257.2,701.7,257.8z"/>
		<path class="st24" d="M695.6,261c-0.1,0.9-0.1,1.9-0.2,2.8c0,0.6,0.8,0.6,0.9,0c0.1-0.9,0.1-1.9,0.2-2.8
			C696.5,260.5,695.6,260.5,695.6,261z"/>
		<path class="st24" d="M687.7,264.8c-0.1-1-0.2-2.1-0.3-3.1c-0.1-0.5-0.9-0.6-0.9,0c0.2,1.3,0.3,2.6,0.4,3.9c0,0.4,0.5,0.6,0.7,0.3
			c0.1-0.1,0.3-0.2,0.4-0.4C688.4,265.2,688.1,264.8,687.7,264.8z"/>
		<path class="st24" d="M707.2,263.3c-0.5-1-0.7-2-0.7-3.1c0-0.6-0.8-0.6-0.9,0c-0.1,1.3,0.2,2.4,0.8,3.6
			C706.7,264.2,707.4,263.8,707.2,263.3z"/>
		<path class="st24" d="M713.6,259.8C713.6,259.7,713.5,259.7,713.6,259.8c-0.1-0.2-0.2-0.3-0.4-0.3c0-0.4,0-1.1,0-1.3
			c0-0.6,0-1.3,0-1.9c0-0.6-0.9-0.6-0.9,0c0,0.7,0,1.3,0,2c0,0.5-0.1,1.1,0,1.7c0.1,0.6,0.8,0.8,1.1,0.3
			C713.7,260.1,713.7,259.9,713.6,259.8z"/>
		<path class="st24" d="M719.2,250c-0.2,1-0.3,2-0.2,2.9c0,0.6,0.9,0.6,0.9,0c0-0.9,0-1.8,0.2-2.7
			C720.1,249.7,719.3,249.5,719.2,250z"/>
		<path class="st24" d="M714.4,245.8v3.9c0,0.6,0.9,0.6,0.9,0v-3.9C715.2,245.2,714.4,245.2,714.4,245.8z"/>
		<path class="st24" d="M709.8,245.8v2.8c0,0.6,0.9,0.6,0.9,0v-2.8C710.7,245.2,709.8,245.2,709.8,245.8z"/>
		<path class="st24" d="M719.7,240.6c-0.2-1.2-0.4-2.3-0.8-3.4c-0.2-0.5-1-0.3-0.8,0.2c0.4,1.3,0.7,2.5,0.8,3.8
			c0,0.2,0.2,0.4,0.4,0.4c0.4,0,0.7-0.3,0.7-0.7C720,240.8,719.8,240.6,719.7,240.6z"/>
		<path class="st24" d="M725,234.7v3.3c0,0.6,0.9,0.6,0.9,0v-3.3C725.9,234.1,725,234.1,725,234.7z"/>
		<path class="st24" d="M729.8,240.6c0-0.6-0.9-0.6-0.9,0c0.1,1.6,0,3.1-0.2,4.7c-0.1,0.5,0.8,0.8,0.8,0.2
			C729.8,243.8,729.9,242.2,729.8,240.6z"/>
		<path class="st24" d="M726.6,248c-0.5-1.4-0.7-2.8-0.6-4.2c0-0.6-0.8-0.6-0.9,0c-0.1,1.5,0.1,3,0.7,4.4
			C726,248.8,726.8,248.6,726.6,248z"/>
		<path class="st24" d="M724.6,253.7c-0.1-0.6-0.9-0.3-0.8,0.2c0.2,1.3,0.1,2.6-0.4,3.9c-0.2,0.5,0.7,0.8,0.8,0.2
			C724.7,256.7,724.8,255.2,724.6,253.7z"/>
		<path class="st24" d="M719.6,260c-0.3-0.5-1-0.1-0.8,0.4c0.4,0.8,0.3,1.8-0.3,2.6c-0.3,0.4,0.3,1.1,0.6,0.6
			C720,262.6,720.2,261.3,719.6,260z"/>
		<path class="st24" d="M712.2,264.1c-0.1,0.9-0.2,1.9-0.3,2.8c-0.1,0.6,0.8,0.6,0.9,0c0.1-0.9,0.2-1.9,0.3-2.8
			C713.1,263.5,712.2,263.5,712.2,264.1z"/>
		<path class="st24" d="M701.7,266.5c-0.4,0.8-0.6,1.6-0.5,2.4c0,0.6,0.9,0.6,0.9,0c0-0.7,0.1-1.4,0.4-2
			C702.7,266.4,702,266,701.7,266.5z"/>
		<path class="st24" d="M693,265.4v2.2c0,0.6,0.9,0.6,0.9,0v-2.2C693.9,264.8,693,264.8,693,265.4z"/>
		<path class="st24" d="M730.5,229.3c0.1-0.6,0.2-1.1,0.2-1.7c0.1-0.5-0.8-0.8-0.8-0.2c-0.1,0.8-0.2,1.6-0.3,2.4
			c-0.1,0.5-0.3,1.2,0,1.7c0.1,0.1,0.3,0.3,0.5,0.2c0.2-0.1,0.4-0.2,0.4-0.4c0-0.2,0-0.4-0.2-0.5c0-0.2,0.1-0.5,0.1-0.6
			C730.4,229.9,730.4,229.6,730.5,229.3z"/>
		<path class="st24" d="M735.5,219.2c-0.1,1.6-0.3,3.2-0.4,4.8c-0.1,0.6,0.8,0.6,0.9,0c0.1-1.6,0.3-3.2,0.4-4.8
			C736.4,218.6,735.5,218.6,735.5,219.2z"/>
		<path class="st24" d="M731.5,215c-0.5,1.6-0.6,3.3-0.4,5c0.1,0.6,0.9,0.3,0.8-0.2c-0.2-1.5-0.1-3.1,0.4-4.6
			C732.5,214.7,731.6,214.4,731.5,215z"/>
		<path class="st24" d="M738.6,207.7c0-0.6-0.8-0.6-0.9,0c-0.1,1.5,0,3.1,0.1,4.6c0,0.6,0.9,0.6,0.9,0
			C738.5,210.7,738.5,209.2,738.6,207.7z"/>
		<path class="st24" d="M741.6,199.6c0,1.7,0,3.5-0.1,5.2c0,0.6,0.9,0.6,0.9,0c0-1.7,0-3.5,0.1-5.2C742.5,199,741.7,199,741.6,199.6
			z"/>
		<path class="st24" d="M748.1,199.4l-0.2,4.6c0,0.6,0.8,0.6,0.9,0l0.2-4.6C749,198.8,748.2,198.8,748.1,199.4z"/>
		<path class="st24" d="M745.2,210c-0.2,1.8-0.5,3.6-0.7,5.5c-0.1,0.6,0.8,0.5,0.9,0c0.2-1.8,0.5-3.6,0.7-5.5
			C746.2,209.5,745.3,209.5,745.2,210z"/>
		<path class="st24" d="M742.4,218.4c-0.1-0.6-0.9-0.3-0.8,0.2c0.3,1.6,0.1,3.1-0.4,4.6c-0.2,0.5,0.7,0.8,0.8,0.2
			C742.6,221.9,742.7,220.2,742.4,218.4z"/>
		<path class="st24" d="M739,230.5c-0.1,1.7-0.2,3.3-0.3,5c0,0.6,0.8,0.6,0.9,0c0.1-1.7,0.2-3.3,0.3-5C739.9,230,739,230,739,230.5z
			"/>
		<path class="st24" d="M735,233.6c0-0.6-0.9-0.6-0.9,0c0.1,1.5,0.1,3.1-0.1,4.6c-0.1,0.6,0.8,0.6,0.9,0
			C735.1,236.6,735.1,235.1,735,233.6z"/>
		<path class="st24" d="M735.8,243.7c-0.2-0.5-1-0.3-0.8,0.2c0.4,1.4,0.2,2.7-0.6,3.9c-0.3,0.5,0.4,0.9,0.8,0.4
			C736.1,246.9,736.3,245.3,735.8,243.7z"/>
		<path class="st24" d="M730,252.5c-0.1,0.7-0.2,1.3-0.2,2c-0.1,0.6,0.8,0.6,0.9,0c0.1-0.7,0.2-1.3,0.2-2
			C731,252,730.1,252,730,252.5z"/>
		<path class="st24" d="M733.1,198.9c0-0.6-0.9-0.6-0.9,0c0.1,1.1,0.2,2.2,0.3,3.3c0,0.6,0.9,0.6,0.9,0
			C733.3,201.1,733.2,200,733.1,198.9z"/>
		<path class="st24" d="M743.4,195.5c-0.4-0.6-0.4-1.2-0.2-1.9c0.2-0.5-0.7-0.8-0.8-0.2c-0.3,0.9-0.2,1.8,0.3,2.6
			C742.9,196.4,743.7,196,743.4,195.5z"/>
		<path class="st24" d="M756.8,185.3c-0.4,1.4-0.5,2.9-0.3,4.4c0.1,0.6,0.9,0.3,0.8-0.2c-0.2-1.3-0.1-2.6,0.3-3.9
			C757.8,185,756.9,184.7,756.8,185.3z"/>
		<path class="st24" d="M753.2,192.6v5.7c0,0.6,0.9,0.6,0.9,0v-5.7C754,192.1,753.2,192,753.2,192.6z"/>
		<path class="st24" d="M757.5,200.7c-0.2,2.3-0.3,4.5-0.5,6.8c0,0.6,0.8,0.6,0.9,0c0.2-2.3,0.3-4.5,0.5-6.8
			C758.4,200.1,757.6,200.1,757.5,200.7z"/>
		<path class="st24" d="M753.1,207.4c0-0.6-0.9-0.6-0.9,0c0.1,1.5,0.2,3.1,0.3,4.6c0,0.6,0.9,0.6,0.9,0
			C753.3,210.5,753.2,209,753.1,207.4z"/>
		<path class="st24" d="M751.1,216.4c0-0.6-0.9-0.6-0.9,0c0.1,1.6,0,3.1-0.3,4.7c-0.1,0.5,0.7,0.8,0.8,0.2
			C751,219.7,751.1,218,751.1,216.4z"/>
		<path class="st24" d="M746.4,223.6c0-0.6-0.9-0.6-0.9,0c0.1,1.5,0.2,3.1,0.2,4.6c0,0.6,0.9,0.6,0.9,0
			C746.6,226.6,746.5,225.1,746.4,223.6z"/>
		<path class="st24" d="M745.1,233.1c0,0,0-0.1,0-0.1c-0.1-0.8-0.3-1.7-0.4-2.5c-0.1-0.6-0.9-0.3-0.8,0.2c0.2,1.1,0.5,2.2,0.4,3.2
			c0,0.6,0.5,1.1,1,1.1C746.6,235.1,746.3,233,745.1,233.1z"/>
		<path class="st24" d="M752.1,227.3c0-0.6-0.8-0.6-0.9,0c-0.1,0.6,0,1.3,0.1,1.9c0.1,0.6,0.9,0.3,0.8-0.2
			C752,228.4,752,227.8,752.1,227.3z"/>
		<path class="st24" d="M757.8,218.6c-0.1,1.2-0.2,2.5-0.2,3.7c0,0.6,0.8,0.6,0.9,0c0.1-1.2,0.2-2.5,0.2-3.7
			C758.7,218,757.8,218,757.8,218.6z"/>
		<path class="st24" d="M763.8,213.9c0.1-1.8,0.3-3.5,0.6-5.3c0.1-0.5-0.7-0.8-0.8-0.2c-0.3,1.6-0.5,3.2-0.6,4.7
			c-0.3,0.1-0.4,0.5-0.1,0.7c0,0.1,0,0.1,0.1,0.2c0,0,0,0.1,0,0.1c0,0.5,0.8,0.6,0.9,0.1c0,0,0-0.1,0-0.1h0c0,0,0,0,0,0
			C763.8,214,763.8,214,763.8,213.9z"/>
		<path class="st24" d="M761.5,198.2c-0.3,1.9-0.5,3.8-0.5,5.8c0,0.6,0.9,0.6,0.9,0c0-1.9,0.2-3.7,0.4-5.5
			C762.4,197.8,761.5,197.6,761.5,198.2z"/>
		<path class="st24" d="M761.4,186.9c0,1.7,0,3.3-0.2,5c-0.1,0.6,0.8,0.6,0.9,0c0.2-1.7,0.3-3.3,0.2-5
			C762.3,186.4,761.4,186.4,761.4,186.9z"/>
		<path class="st24" d="M766.7,185c0-0.6-0.8-0.6-0.9,0c-0.1,1.5-0.1,2.9,0.1,4.4c0,0.6,0.9,0.6,0.9,0
			C766.6,187.9,766.6,186.4,766.7,185z"/>
		<path class="st24" d="M771.9,179.8c-0.1-0.8-0.1-1.6-0.2-2.4c0-0.6-0.9-0.6-0.9,0l0.1,1.9c0,0.3,0,0.6,0.1,1c0,0.1,0,0.2,0,0.3
			c0,0.1,0,0.2,0,0.2c-0.2,0-0.5,0.2-0.4,0.5c0.1,0.7,1,0.6,1.3,0.1C772.1,180.9,771.9,180.2,771.9,179.8z"/>
		<path class="st24" d="M766.4,175.6c0-0.6-0.9-0.6-0.9,0c0.1,1.5,0.1,2.9-0.1,4.4c-0.1,0.6,0.8,0.6,0.9,0
			C766.5,178.5,766.5,177.1,766.4,175.6z"/>
		<path class="st24" d="M760.8,177.6c-0.1,0.8-0.2,1.6-0.2,2.4c-0.1,0.6,0.8,0.6,0.9,0c0.1-0.8,0.2-1.6,0.2-2.4
			C761.7,177,760.8,177,760.8,177.6z"/>
		<path class="st24" d="M769.6,168c0,1.3-0.1,2.5-0.4,3.8c-0.1,0.5,0.7,0.8,0.8,0.2c0.3-1.3,0.5-2.7,0.4-4
			C770.5,167.4,769.6,167.4,769.6,168z"/>
		<path class="st24" d="M773,162.5v4.4c0,0.6,0.9,0.6,0.9,0v-4.4C773.9,162,773,162,773,162.5z"/>
		<path class="st24" d="M776.9,167.1v4.8c0,0.6,0.9,0.6,0.9,0v-4.8C777.8,166.6,776.9,166.5,776.9,167.1z"/>
		<path class="st24" d="M775.9,176.1c-0.6,1.5-0.8,3-0.5,4.6c0.1,0.6,0.9,0.3,0.8-0.2c-0.2-1.4,0-2.8,0.5-4.2
			C777,175.8,776.2,175.6,775.9,176.1z"/>
		<path class="st24" d="M769.7,188.3v2.4c0,0.6,0.9,0.6,0.9,0v-2.4C770.6,187.7,769.7,187.7,769.7,188.3z"/>
		<path class="st22" d="M806.2,113.9c-1.1,12.6-7.2,25.6-16.5,34.1c-9.9,9.1-23.5,12.4-36.8,11.7c-14.3-0.7-28.4-5.5-40.4-13.3
			c-5.1-3.3-9.7-7.1-14.2-11.1c-4.4,3.9-9.3,7.2-14.6,9.9c-13,6.5-26.7,7.3-40.9,6.6c-15.8-0.7-31.9-1.7-47-6.7
			c-9.1-3-17.5-7.5-25.1-13.2c1.3,6.2,1.3,12.5-0.6,18.3h-7.1c-0.6,0-1.2,0.1-1.8,0.1c-6.7-14.8-18.5-28.5-19.1-45.2
			c-0.3-6.9,3.5-14.9,11.5-14.1c4.3,0.4,7.3,2.8,9.5,5.9c7.3-15.6,16.9-30.2,28.8-42.5c20.9-21.7,51.8-31.7,81.2-23.4
			c14.2,4,26.2,12.7,38.6,20.3c1.4,0.9,2.9,1.8,4.4,2.6c0.1,0,0.3-0.1,0.5-0.1c16.9,0.7,33.4-7.1,50.3-4.1
			c12.6,2.3,22.7,11.2,23.4,24.5c0.3,5.8-0.9,11.9-3.2,17.6C798.7,91.9,807.2,102.1,806.2,113.9z"/>
		<path class="st25" d="M806.2,113.9c-1.1,12.6-7.2,25.6-16.5,34.1c-1,0.9-2,1.7-3,2.5c1.3-5.7,1.4-11.7-0.3-17.3
			c-3.2-11-12.5-19.5-23-23.9c-10.5-4.5-22.2-5.4-33.6-5.3c-28.4,0.2-56.4,6.1-84.7,8.8c-15.8,1.5-31.9,1.9-47.2-2.1
			c-12.1-3.2-23.5-9.1-33.1-17.2c0.9-1.8,1.8-3.6,2.8-5.4c14.4,9.9,33.4,13.3,51.2,11.8c23.7-2,46-11.4,68.4-19.3
			c28.2-9.8,57.5-17.3,87.3-17.6c4.2,0,8.5,0.1,12.7,0.5c1.8,3.2,2.9,6.8,3.1,10.9c0.3,5.8-0.9,11.9-3.2,17.6
			C798.7,91.9,807.2,102.1,806.2,113.9z"/>
		<path class="st24" d="M774.8,146.8c-1.2,4-2.9,7.9-5,11.5c-1.2,0.3-2.5,0.5-3.7,0.7c5.8-9,8.9-20.2,8.8-31.1
			c0-12.2-4.3-22.8-13.6-30.8c-8.4-7.2-19-11.3-29.7-13.4c-22-4.2-45.7-0.8-67.2,4.5c-20.7,5-41.2,14.1-62.8,13.1
			c-8.3-0.4-16.7-2.2-24.1-6c-2.7-1.4-5.1-3-7.3-4.8c5.1,8.7,13.4,15.4,23.6,18.8c15.8,5.3,32.9,5.8,49.3,8
			c12.4,1.7,29.6,3.1,37.2,14.7c3.2,4.9,3.4,9.7,1.8,14.1c-1.1,0.5-2.1,0.9-3.2,1.4c3.8-7.1,0.5-14.9-6-19.4
			c-5.7-3.9-13-5.3-19.7-6.6c-14.8-2.8-29.9-3.5-44.8-6.1c-12.4-2.2-25-5.6-34.1-14.9c-3.1-3.1-5.6-6.7-7.5-10.6
			c0.7-1.4,1.5-2.8,2.3-4.2c0.4,0.4,0.9,0.9,1.4,1.3c14.2,5.4,30.1,5.5,45.1,2.6c34.3-6.7,63.5-28.1,96.8-37.9c1,0.6,2,1.2,3.1,1.9
			c-6,1.6-11.9,3.6-17.8,5.8c-17.1,6.6-33.2,15.4-50,22.6c-21.8,9.3-47.4,15.8-70.6,9.9c3.6,2.2,7.6,3.8,12.2,5
			c12.7,3.2,25.7,1.8,38.3-1.1c12-2.8,23.6-6.9,35.5-9.8c11.2-2.8,22.5-4.7,34-5.8c21.1-2,44.3-0.6,62.2,12c8,5.6,14.5,13.4,17,23.1
			C778.6,125.4,777.8,136.8,774.8,146.8z"/>
		<path class="st24" d="M683.5,35c-5.2,0.9-10.4,2.3-15.3,3.7c-13.7,4-25.2,11.5-36.4,20.2c-17.9,13.7-39,30.5-62.6,26.2
			c0.5-0.8,0.9-1.6,1.4-2.4c26.4,4.2,48.5-18.5,68.6-32.6c11.3-7.9,23.2-13,36.6-16.1c1.1-0.3,2.3-0.5,3.4-0.7
			C680.7,33.8,682.1,34.3,683.5,35z"/>
		<path class="st24" d="M577.1,136.5c-1.5-0.9-2.9-1.9-4.4-2.9c-5.6-11.6-8.3-24.6-9.1-37.8c0.8-1.6,1.6-3.2,2.4-4.8
			C566.5,106.9,569.5,122.9,577.1,136.5z"/>
		<path class="st26" d="M550.5,116.3c-0.9-1.5-1.5-3.2-1.9-4.9c-0.5-1.7-0.8-3.4-0.8-5.2c-0.1-1.8,0.1-3.6,0.8-5.3
			c0.3-0.9,0.8-1.7,1.4-2.4c0.6-0.7,1.4-1.2,2.3-1.4c-1.4,1.1-2.1,2.6-2.4,4.2c-0.3,1.6-0.4,3.2-0.3,4.9
			C549.6,109.5,550.1,112.9,550.5,116.3z"/>
		<g>
			<circle cx="726.7" cy="185.6" r="3.1"/>
			<path class="st27" d="M742.7,173.2c-0.4,0.4-0.7,0.7-1.1,1c-4,3.1-8.4-1.5-11.7-3.4c-2.9-1.7-6.1-2.6-9.3-3.4
				c-2.4-0.6-4.2-1.4-4.2-4.2c0-4.4,3-9.4,7.3-10.9c4.8-1.6,20.4,6.6,21.9,10C747.1,165.9,745.2,170.4,742.7,173.2z"/>
			<circle cx="612" cy="186.1" r="3.1"/>
			<path class="st27" d="M596,173.6c0.4,0.4,0.7,0.7,1.1,1c4,3.1,8.4-1.5,11.7-3.4c2.9-1.7,6.1-2.6,9.3-3.4c2.4-0.6,4.2-1.4,4.2-4.2
				c0-4.4-3-9.4-7.3-10.9c-4.8-1.6-20.4,6.6-21.9,10C591.6,166.3,593.5,170.9,596,173.6z"/>
		</g>
	</g>
</g>
<g id="Martillo">
	<g>
		<path class="st28" d="M255.8,279.9c-5.7-10-13.6-19.9-24.6-24.3c-17.9-7.3-34.5,5.2-49.4,13.7c-2,1.1-2.7,3.7-1.6,5.7l15.5,27.2
			c1.1,2,3.7,2.7,5.7,1.6l22.5-12.9c2-1.1,2.7-3.7,1.6-5.7l-9-15.7C242.3,261.5,255.8,279.9,255.8,279.9z"/>
		<path class="st29" d="M223.7,299.3l-13.9,7.9c-1.6,0.9-3.6,0.3-4.5-1.2l-0.4-0.7c-0.9-1.6-0.3-3.6,1.2-4.5l13.9-7.9
			c1.6-0.9,3.6-0.3,4.5,1.2l0.4,0.7C225.8,296.4,225.2,298.4,223.7,299.3z"/>
		<g>
			<path class="st28" d="M184.5,311.2l-1.8,1c-4.1,2.4-9.4,0.9-11.8-3.2l-7.6-13.4c-2.4-4.1-0.9-9.4,3.2-11.8l1.8-1
				c4.1-2.4,9.4-0.9,11.8,3.2l7.6,13.4C190.1,303.5,188.6,308.8,184.5,311.2z"/>
		</g>
		<path class="st30" d="M192.5,301.8l-0.6,0.3c-1.3,0.7-3,0.3-3.7-1l-9.3-16.4c-0.7-1.3-0.3-3,1-3.7l0.6-0.3c1.3-0.7,3-0.3,3.7,1
			l9.3,16.4C194.3,299.4,193.8,301.1,192.5,301.8z"/>
		<path class="st31" d="M255.8,279.9c0,0-0.7-1-2.2-2.5c-13-16.8-36-22.4-54-12.1c-6.9,3.9-12.1,9.6-15.5,16.2l-3.8-6.7
			c-1.1-2-0.4-4.5,1.6-5.7c14.9-8.5,31.5-21,49.4-13.7C242.3,260,250.1,269.9,255.8,279.9z"/>
		<path class="st32" d="M218.4,278.9c0.7,0.7,1.3,1.6,1.8,2.5c0.5,0.9,0.9,1.8,1.2,2.8c0.3,1,0.5,2,0.4,3.1
			c-0.1,0.5-0.2,1.1-0.5,1.5c-0.3,0.5-0.7,0.8-1.2,1c0.8-0.7,1-1.6,1-2.5c0-0.9-0.3-1.9-0.6-2.8
			C219.9,282.6,219.1,280.8,218.4,278.9z"/>
		<g>
			<path class="st31" d="M177.9,282.2l12,21.1c1.1,2,0.4,4.5-1.6,5.7l-3.4,1.9c0.4-4.6-0.6-9.5-3.1-14c-3.9-6.9-10.6-11.1-17.5-11.8
				l7.8-4.5C174.2,279.5,176.7,280.2,177.9,282.2z"/>
			<path class="st28" d="M181.9,296.9c2.6,4.5,3.6,9.4,3.1,14l-6.2,3.5c-2,1.1-4.5,0.4-5.7-1.6l-12-21.1c-1.1-2-0.4-4.5,1.5-5.7
				l1.7-1C171.2,285.8,177.9,290,181.9,296.9z"/>
		</g>
		<path class="st32" d="M166,295.8c0.7,0.9,1.4,1.8,2,2.8c0.6,1,1.2,1.9,1.8,2.9c0.6,1,1.1,2,1.6,3c0.5,1,1,2.1,1.4,3.2
			c-0.7-0.9-1.4-1.8-2-2.8c-0.6-1-1.2-1.9-1.8-2.9c-0.6-1-1.1-2-1.6-3C166.9,298,166.4,296.9,166,295.8z"/>
		<path class="st33" d="M259.7,375.3l-2.8,1.6c-6.4,3.6-14.5,1.4-18.2-5l-28.5-50c-3.6-6.4-1.4-14.5,5-18.2l2.8-1.6
			c6.4-3.6,14.5-1.4,18.2,5l28.5,50C268.4,363.6,266.1,371.7,259.7,375.3z"/>
		<path class="st34" d="M232.1,300l36.8,64.4c1.4,2.4,0.5,5.5-1.9,6.8l-3,1.7c-0.4-9.6-3.8-20.9-10.1-32
			c-13-22.8-33.4-35.6-45.6-28.6c-0.8,0.5-1.6,1-2.3,1.7c-0.9-2.3,0-4.9,2.2-6.1l17.2-9.8C227.6,296.7,230.7,297.6,232.1,300z"/>
		<path class="st35" d="M239.8,365.9c0.8,1.5,1.7,2.9,2.6,4.2c1,1.3,2,2.6,3.2,3.6c1.2,1,2.6,1.8,4.2,2c1.6,0.2,3.2-0.1,4.7-0.8
			c-1.3,1-3,1.6-4.8,1.5c-0.9,0-1.7-0.3-2.5-0.6c-0.8-0.4-1.5-0.8-2.2-1.4c-1.3-1.1-2.4-2.5-3.2-3.9
			C240.9,369,240.2,367.5,239.8,365.9z"/>
	</g>
	<g>
		<g>
			<polygon class="st36" points="406.8,390.1 400.1,438.5 482.4,433.3 489.1,384.8 			"/>
			<polygon class="st37" points="406.8,390.1 340.9,327.4 335.2,368.8 400.1,438.5 			"/>
			<polygon class="st38" points="340.9,327.4 415.6,325.4 489.1,384.8 406.8,390.1 			"/>
		</g>
		<g>
			<polygon class="st37" points="203.4,354.4 354.4,411.5 348.3,456.5 197.7,395.8 			"/>
			<polygon class="st38" points="203.4,354.4 252.4,331 394.9,382.7 354.4,411.5 			"/>
			<polygon class="st36" points="394.9,382.7 389,425.6 348.3,456.5 354.4,411.5 			"/>
		</g>
		<g>
			
				<rect x="259.2" y="327.9" transform="matrix(0.9908 0.1355 -0.1355 0.9908 50.63 -44.0481)" class="st37" width="179.4" height="44"/>
			<polygon class="st38" points="263,316 270.3,289.1 436.6,308.2 440.8,340.3 			"/>
		</g>
		<g>
			<polygon class="st39" points="347.1,303.2 340.5,351.6 422.8,346.4 429.4,297.9 			"/>
			<polygon class="st40" points="347.1,303.2 281.2,240.5 275.5,281.9 340.5,351.6 			"/>
			<polygon class="st38" points="281.2,240.5 355.9,238.5 429.4,297.9 347.1,303.2 			"/>
		</g>
	</g>
	<g>
		<path class="st41" d="M240.8,461.6l-64.9-14.4c-5.4-1.2-8.8-6.6-7.6-12c1.2-5.4,6.6-8.8,12-7.6l64.9,14.4c5.4,1.2,8.8,6.6,7.6,12
			C251.5,459.4,246.2,462.8,240.8,461.6z"/>
		<path class="st42" d="M248.8,547.2l-28.6-169.7c0,0,336.9,63.6,334.7,65c-2.2,1.4-86.2,152.6-86.2,152.6"/>
		<path class="st43" d="M484,567.7c-9,16.3-15.2,27.4-15.2,27.4l-220-47.9l-28.6-169.7c0,0,21.1,4,52.7,10
			c-2.3,5.2-4.1,10.7-5.4,16.4c-14.8,66.8,49.6,138,143.9,158.9C436.5,568.3,461.1,569.8,484,567.7z"/>
		<path class="st41" d="M240,666.6c-0.7-0.2-1.5-0.4-2.1-0.7c-2.9-1.4-5-4.1-5.6-7.3L212.3,543c-0.9-5.5,2.7-10.6,8.2-11.6
			c5.5-0.9,10.6,2.7,11.6,8.2l17.7,101.7l130.4-72.5c4.8-2.7,10.9-1,13.6,3.9c2.7,4.8,1,10.9-3.9,13.6l-142.7,79.4
			C244.9,666.8,242.4,667.1,240,666.6z"/>
		<g>
			<circle class="st44" cx="485.5" cy="599.7" r="72"/>
			<path class="st45" d="M511.3,666.9c-12.8,4.9-27.1,6.3-41.4,3.1c-38.8-8.6-63.3-47.1-54.7-85.9c6.5-29.2,29.8-50.2,57.4-55.2
				c-21.8,8.3-39,27.1-44.5,51.6c-8.6,38.8,15.8,77.3,54.7,85.9C492.5,668.5,502.1,668.6,511.3,666.9z"/>
			<circle class="st46" cx="485.5" cy="599.7" r="36.5"/>
			<path class="st47" d="M509.2,627.4c-8.4,7.2-20,10.5-31.6,7.9c-19.7-4.4-32-23.8-27.7-43.5c2.6-11.6,10.5-20.7,20.6-25.3
				c-5.8,5-10.1,11.8-11.9,19.8c-4.4,19.7,8,39.1,27.7,43.5C494.3,631.6,502.3,630.6,509.2,627.4z"/>
			<path class="st46" d="M524.4,550.5c4.6,2.5,8.6,6.1,12.1,10.1c3.5,4,6.3,8.6,8.4,13.6c0.4,1.3,1,2.5,1.3,3.8l1,3.9
				c0.3,1.3,0.3,2.7,0.5,4c0.1,0.7,0.1,1.3,0.2,2l-0.1,2c0.1,5.4-1.6,10.6-3.7,15.3c0.7-5.2,1.5-10.2,0.9-15.3
				c-0.4-5-1.4-9.9-3.4-14.5c-1.8-4.6-4.3-9-7.2-13.2C531.4,558.2,528.1,554.2,524.4,550.5z"/>
		</g>
		<path class="st41" d="M482.6,608.4l-275.8-61.3c-3.5-0.8-6.3-3.4-7.4-6.8l-37.6-121.2l-79-22.8c-5.3-1.5-8.4-7.1-6.9-12.4
			c1.5-5.3,7.1-8.4,12.4-6.9l84.2,24.3c3.2,0.9,5.8,3.4,6.8,6.7l37.4,120.8l270.1,60c5.4,1.2,8.8,6.6,7.6,12
			C493.4,606.2,488,609.6,482.6,608.4z"/>
		<path class="st48" d="M464.1,443.8c5.2,0.2,10.4,0.8,15.6,1.4c5.1,0.6,10.3,1.4,15.4,2.3c10.2,1.7,20.3,3.9,30.3,6.3l4.5,1.1
			l-2.1,4c-3.4,6.4-7,12.6-10.8,18.8c-1.9,3.1-3.8,6.2-5.9,9.2c-2,3-4.1,6-6.3,8.9c1.1-3.5,2.3-6.9,3.6-10.3c1.2-3.4,2.7-6.7,4-10.1
			c2.8-6.7,5.8-13.2,9-19.7l2.4,5.1c-10.1-2-20.2-4.4-30.2-7.1c-5-1.4-9.9-2.8-14.9-4.5C473.9,447.5,469,445.8,464.1,443.8z"/>
	</g>
	<g>
		<path class="st49" d="M275.4,467.8H98c-0.4-8.8,6.6-16.4,15.7-19c-3.1-5-3.2-11.6,0.2-16.9c4.1-6.4,11.4-8.3,18.4-7.5
			c0.4-17.1,19.7-26.7,32.2-14.7c9.1-14.9,30.2-13.9,37.3,2.7c6.4-2.6,13.7-3.9,20-0.1c4.8,2.9,7.4,7.7,7.5,13
			c6.3-1.4,13.2-2.1,18.2,2.5c3.3,3.1,4.9,7.4,4,11.5c8.3,0.8,16.5,6,14.8,14.7c4.8,1,8.5,5.4,9.2,10.8
			C275.5,465.9,275.5,466.8,275.4,467.8z"/>
		<path class="st50" d="M129.7,481.7c-9.2-2.8-14.2-14.9-9.7-23.4c4.5-8.5,17.2-11.1,24.7-5.2c-3.9-9.1,0.6-20.9,9.5-25.1
			s20.9-0.3,25.5,8.4c4-6.8,11.3-11.6,19.1-12.5c2.9-0.3,6-0.1,8.7,1.1c7.2,3.3,9.1,12.4,10.2,20.3c4.5-3.4,9.8-6.5,15.4-6.1
			c5.6,0.4,11.1,6.1,9.2,11.4c6.8,1.9,11.8,9.1,11.2,16.2s-6.7,13.3-13.8,14"/>
		<path class="st51" d="M284.6,650.4c1.9,2.1,2.7,4.6,2.7,7c0,6-5.1,11.6-12,10.8l-41.7-4.9c-0.4,0-0.8-0.1-1.2-0.1h-83.6
			c-0.3,0-0.7,0-1,0l-55.4,5c-9.4,0.9-15.3-9.9-9.5-17.3l4.6-6c1.8-2.4,2.6-5.4,2.1-8.3c-2.6-16.1-9.5-72,10.7-123.5
			c1-2.6,0.9-5.4-0.1-8l-9.3-22.6c-2.9-7.1,2.3-14.9,10-14.9h171.3c7.7,0,12.9,7.9,9.9,15l-9.7,23c-1.2,2.7-1.1,5.8,0.1,8.6
			c7,15.9,29.8,74.5,10.4,125C281.3,643.1,282,647.3,284.6,650.4z"/>
		<circle class="st52" cx="185.1" cy="568" r="52.9"/>
		<path class="st53" d="M287.3,657.4c0,6-5.1,11.6-12,10.8l-41.7-4.9c-0.4,0-0.8-0.1-1.2-0.1h-83.6c-0.3,0-0.7,0-1,0l-55.4,5
			c-9.4,0.9-15.3-9.9-9.5-17.3l4.6-6c1.8-2.4,2.6-5.4,2.1-8.3c-2.6-16.1-9.5-72,10.7-123.5c1-2.6,0.9-5.4-0.1-8l-9.3-22.6
			c-2.9-7.1,2.3-14.9,10-14.9h31c-18,20.2-28.9,46.3-28.9,74.9c0,63.9,54.3,115.7,121.4,115.7c20.9,0,40.7-5.1,57.8-14
			c0.2,2.2,1.1,4.3,2.6,6C286.5,652.5,287.3,655,287.3,657.4z"/>
		<path class="st2" d="M234.8,480.8c3.8-1.1,7.7-1.8,11.6-2.2c3.9-0.4,7.9-0.5,11.9-0.2c2,0.2,4,0.5,6,1.1c1,0.3,2,0.7,3,1.3
			c1,0.6,2,1.3,2.6,2.5c0.4,0.5,0.5,1.2,0.6,1.9c-0.1,0.6,0,1.3-0.2,1.8c-0.2,0.6-0.4,1.1-0.7,1.5c-0.3,0.5-0.5,0.9-0.9,1.3
			c-1.3,1.6-2.9,2.8-4.5,3.9c1.1-1.6,2.4-3.1,3.2-4.8c0.8-1.6,1.3-3.4,0.4-4.4c-0.8-1-2.5-1.7-4.2-2.1c-1.7-0.4-3.6-0.7-5.5-0.9
			c-3.8-0.4-7.6-0.4-11.5-0.6C242.6,481.1,238.7,481,234.8,480.8z"/>
		<path class="st54" d="M166.4,444.2c-3.1,0-3.1,4.9,0,4.9C169.5,449,169.5,444.2,166.4,444.2z"/>
		<path class="st54" d="M189.2,420.3c-3.1,0-3.1,4.9,0,4.9C192.3,425.1,192.3,420.3,189.2,420.3z"/>
		<path class="st54" d="M208.2,430c-3.1,0-3.1,4.9,0,4.9C211.3,434.9,211.3,430,208.2,430z"/>
		<path class="st54" d="M133.8,436c-3.1,0-3.1,4.9,0,4.9C136.9,440.9,136.9,436,133.8,436z"/>
		<path class="st54" d="M123.5,456.1h-1.1c-1.3,0-2.5,1.1-2.4,2.4c0.1,1.3,1.1,2.4,2.4,2.4h1.1c1.3,0,2.5-1.1,2.4-2.4
			C125.9,457.2,124.8,456.1,123.5,456.1z"/>
		<path class="st54" d="M250.5,450.7c-3.1,0-3.1,4.9,0,4.9C253.7,455.6,253.7,450.7,250.5,450.7z"/>
		<path class="st54" d="M247.3,457.2c-3.1,0-3.1,4.9,0,4.9C250.4,462.1,250.4,457.2,247.3,457.2z"/>
		<path class="st54" d="M255.4,457.2c-3.1,0-3.1,4.9,0,4.9C258.6,462.1,258.6,457.2,255.4,457.2z"/>
		<path class="st55" d="M275.4,467.8H98c-0.1-2.9,0.5-5.6,1.8-8.1c0.3,0,0.7-0.1,1-0.1h171.3c0.6,0,1.1,0,1.7,0.1
			c0.9,1.5,1.4,3.3,1.7,5.1C275.5,465.9,275.5,466.8,275.4,467.8z"/>
	</g>
	<path class="st56" d="M453.8,252l-0.9-1.7c-0.8-1.6-0.3-3.6,1.2-4.5l40.5-26.3c1.7-1.1,4.1-0.5,5,1.3l5.7,11c1,1.9,0.1,4.1-1.9,4.9
		l-45.4,17.1C456.5,254.3,454.7,253.5,453.8,252z"/>
	<path class="st56" d="M393.9,208.3L392,208c-1.8-0.3-3-1.9-2.9-3.7l3.1-48.3c0.1-2.1,2-3.6,4-3.2l12.2,2c2.1,0.3,3.4,2.4,2.8,4.4
		l-13.3,46.6C397.3,207.6,395.6,208.6,393.9,208.3z"/>
	<path class="st56" d="M291.6,213.4l-1.7,0.9c-1.6,0.8-3.6,0.3-4.5-1.2l-26-40.8c-1.1-1.7-0.5-4.1,1.4-5l11-5.6
		c1.9-1,4.1-0.1,4.9,1.9l16.7,45.5C293.9,210.7,293.1,212.6,291.6,213.4z"/>
</g>
</svg>
