<?xml version="1.0" encoding="utf-8"?>
<!-- Generator: Adobe Illustrator 22.1.0, SVG Export Plug-In . SVG Version: 6.00 Build 0)  -->
<svg version="1.1" id="Layer_1" xmlns="http://www.w3.org/2000/svg" xmlns:xlink="http://www.w3.org/1999/xlink" x="0px" y="0px"
	 viewBox="0 0 575 146" style="enable-background:new 0 0 575 146;" xml:space="preserve">
<style type="text/css">
	.st0{fill:#0047BA;}
	.st1{fill:#3CB4E5;}
	.st2{fill:#8DC6E8;}
	.st3{fill:#FFFFFF;}
</style>
<g>
	<g>
		<path class="st0" d="M216.7,49.2H200c-6.7,0-12.1,5.4-12.1,12.1v25.5h0c0,0.1,0,0.2,0,0.3c0,6.7,5.4,12.1,12.1,12.1h16.7
			c6.7,0,12.1-5.4,12.1-12.1V61.3C228.7,54.6,223.3,49.2,216.7,49.2z M214,85.7c0,1.2-1,2.2-2.2,2.2h-7.1c-1.2,0-2.2-1-2.2-2.2V63.2
			c0-1.2,1-2.2,2.2-2.2h7.1c1.2,0,2.2,1,2.2,2.2V85.7z"/>
		<path class="st0" d="M147.8,61.3v25.5h0c0,0.1,0,0.2,0,0.3c0,6.7,5.4,12.1,12.1,12.1h22.8V86.5h-18c-1.2,0-2.2-1-2.2-2.2V64.2
			c0-1.2,1-2.2,2.2-2.2h18V49.2h-22.8C153.2,49.2,147.8,54.6,147.8,61.3z"/>
		<path class="st0" d="M425.3,84.9c0,1.7-1.4,3.1-3.1,3.1h-2.3c-1.7,0-3.1-1.4-3.1-3.1V49.2h-14.7v38.3c0,6.7,5.5,12.2,12.2,12.2
			h13.4c6.7,0,12.2-5.5,12.2-12.2V49.2h-14.7V84.9z"/>
		<path class="st0" d="M290.3,49.2c-6.6,0-11.9,5.3-11.9,11.9V68c0,6.6,5.3,11.9,11.9,11.9h8.7c1,0,1.9,0.8,1.9,1.9v2.8
			c0,1-0.8,1.9-1.9,1.9h-20.6v12.8h25.3c6.6,0,11.9-5.3,11.9-11.9v-7.4h0c-0.4-6.2-5.5-11.2-11.9-11.2h-8.7c-1,0-1.9-0.8-1.9-1.9
			v-2.9c0-1,0.8-1.9,1.9-1.9l31.4,0v37.2h14.7V62h14.3V49.2v-0.1L290.3,49.2z"/>
		<path class="st1" d="M519.9,49.2L519.9,49.2l-28.6,0v36.7c0,7.3,5.9,13.3,13.2,13.3h22.4V86.5H506v-6.8h9.6V68.6H506v-6.8h19.9v0
			h7.3v37.3h14.7V61.8h15.8V49.2H519.9z"/>
		<path class="st0" d="M394.4,86.3l-2.6-7.1c2.8-2.2,4.6-5.6,4.6-9.4v-8.4c0-6.7-5.4-12.1-12.1-12.1h-25.4v50h14.7V83.3h4.1l2.7,8.4
			c1.4,4.5,5.6,7.5,10.3,7.5h8.4V88.4l-2.6-0.4C395.6,87.9,394.7,87.2,394.4,86.3z M381.5,69.3c0,1.2-0.9,2.1-2.1,2.1h-5.8v-9.6h5.8
			c1.2,0,2.1,0.9,2.1,2.1V69.3z"/>
		<polygon class="st0" points="258.8,71.3 258.4,71.3 248.7,49.2 234,49.2 234,99.2 248.7,99.2 248.7,77.2 249.1,77.2 258.7,99.2 
			273.5,99.2 273.5,49.2 258.8,49.2 		"/>
		<polygon class="st1" points="470.8,71.3 470.4,71.3 460.7,49.2 446,49.2 446,99.2 460.7,99.2 460.7,77.2 461.1,77.2 470.7,99.2 
			470.8,99.1 470.8,99.2 485.5,99.2 485.5,49.2 470.8,49.2 		"/>
	</g>
	<path class="st0" d="M58.2,10.4L12.6,36.7C8.5,39.1,6,43.4,6,48.1v52.7c0,4.7,2.5,9,6.6,11.3l45.6,26.3c4.1,2.3,9,2.3,13.1,0
		l45.6-26.3c4.1-2.3,6.6-6.7,6.6-11.3V48.1c0-4.7-2.5-9-6.6-11.3L71.3,10.4C67.2,8.1,62.2,8.1,58.2,10.4"/>
	<polygon class="st2" points="29.6,54.1 64.7,74.4 99.8,54.1 64.7,33.9 	"/>
	<polygon class="st3" points="29.6,54.1 64.7,74.4 64.7,114.9 29.6,94.7 	"/>
	<polygon class="st1" points="64.7,74.4 64.7,90.2 49.1,81.2 49.1,90.2 64.7,99.2 64.7,114.9 78.4,107.1 78.4,89 86.2,84.5 
		86.2,102.6 99.8,94.7 99.8,54.1 	"/>
</g>
</svg>
